<?xml version="1.0" encoding="UTF-8"?>
<svg width="1503pt" height="1870pt" version="1.1" viewBox="0 0 1503 1870" xmlns="http://www.w3.org/2000/svg">
 <defs>
  <filter id="a" color-interpolation-filters="sRGB">
   <feColorMatrix values="1 0 0 0 0 0 1 0 0 0 0 0 1 0 0 0 0 0 1000 -500 "/>
  </filter>
 </defs>
 <g filter="url(#a)">
  <path d="m727.19 0h6.44c22.37 3.31 45.59 0.63 68.07 0h37.57c38.8 2.52 78.38 3.47 117.2 7.31 2.29-0.1 5.15 1.54 7.26 0.01 18.95 6.15 42.47 3.64 57.67 17.59-2.6 5.62-9.6 5.4-14.5 7.99-10.04 3.41-20.81 3.83-31.16 6.09-11.11 1.17-22.14 3.22-33.32 3.76-9.76 0.57-19.55 0.97-29.24 2.36-29.58 0.65-59.46 6.06-88.93 2.85l0.48-0.78c4.76-0.27 9.95 0.62 14.46-0.95 0.48-0.03 1.44-0.1 1.93-0.14 4.91-0.09 9.9-0.02 14.85 0.09 5.08-0.04 10.35 0.56 15.32-0.92 3.64-0.41 7.31-0.71 11-0.9 22.46-3.48 46.65-2.53 67.44-12.76-3.33-10.51-20.31-9.04-29.6-11.72-3.13-0.28-6.1-0.56-9.17-0.87-7-0.45-13.95-1.22-20.88-2.28-4.01-0.35-7.97-0.77-11.96-1-4.13-0.29-8.21-0.58-12.31-0.76-3.3-0.12-6.46-0.12-9.71-0.15-4.42-0.26-8.77-0.7-13.16-0.93-8.21-1.04-16.51-1.38-24.76-0.83-1.48 0.11-2.94 0.32-4.38 0.49-4.89-0.01-9.7-0.69-14.56-0.51-5.99 0.19-11.96-0.16-17.92-0.11-9.23-0.1-18.43 0.52-27.62 1.14-6.24-0.07-12.45-0.17-18.66-0.24-34.39 1.14-69.63 2.14-102.7 12.49-5.51 2.91-0.04 7.89 3.99 8.45 28.75 6.7 58.36 8.5 87.7 10.67 9.95 0.92 19.94 1.28 29.93 1.7 17.39 1.93 34.92 0.25 52.37 1.06-39.72 1.69-79.67 1.08-119.31-1.23-15.14-1.71-30.46-1.23-45.56-3.23-15.11 0.12-30.03-2.49-45.03-3.92-11.45-2.14-23.12-3.04-34.22-6.83-5.46-1.77-15.66-3.01-13.93-10.95 23.09-10.9 48.96-13.39 74.36-14.79 34.53-4.87 69.61-4.38 104.55-7.25z" fill="#efbfa4"/>
  <path d="m956.47 7.31c2.39-0.05 4.81-0.05 7.26 0.01-2.11 1.53-4.97-0.11-7.26-0.01z" fill="#b38778"/>
  <path d="m753.7 14.07c9.19-0.62 18.39-1.24 27.62-1.14-2.55 3.73-10.21-0.14-6.75 5-3.19 9.67-6.65 19.24-8.7 29.25-3.99 0.05-7.95 0.04-11.91-0.04-2.39-0.3-4.74-0.66-7.07-1.08 4.61-8.88 6.63-18.8 9.9-28.2 1.29-2.57-1.04-3.27-3.09-3.79z" fill="#91544e"/>
  <path d="m781.32 12.93c5.96-0.05 11.93 0.3 17.92 0.11-3.81 0.99-11.86-0.23-10.69 6.6-1.99 9.42-7.33 17.83-8.67 27.39-4.7 0.03-9.34 0.08-14.01 0.15 2.05-10.01 5.51-19.58 8.7-29.25-3.46-5.14 4.2-1.27 6.75-5z" fill="#824c46"/>
  <path d="m799.24 13.04c4.86-0.18 9.67 0.5 14.56 0.51-18.08-2.5-10.31 17.69-19.03 26.73 1.02 2.39 0.99 4.85-0.86 6.91-4.7 0.01-9.35-0.09-14.03-0.16 1.34-9.56 6.68-17.97 8.67-27.39-1.17-6.83 6.88-5.61 10.69-6.6z" fill="#75453f"/>
  <path d="m813.8 13.55c1.44-0.17 2.9-0.38 4.38-0.49 0.34 0.28 1.02 0.84 1.37 1.12-5.92 10.14-6.04 23.42-11.76 33-4.66 0.03-9.26 0.05-13.88 0.01 1.85-2.06 1.88-4.52 0.86-6.91 8.72-9.04 0.95-29.23 19.03-26.73z" fill="#673d39"/>
  <path d="m818.18 13.06c8.25-0.55 16.55-0.21 24.76 0.83-3.34 0.08-6.54-0.05-9.83 0.1-4.56 0.04-9.05 0.12-13.56 0.19-0.35-0.28-1.03-0.84-1.37-1.12z" fill="#c09787"/>
  <path d="m632.34 26.32c33.07-10.35 68.31-11.35 102.7-12.49 0.27 10.48-2.43 25.69-11.01 31.61-29.34-2.17-58.95-3.97-87.7-10.67-4.03-0.56-9.5-5.54-3.99-8.45z" fill="#b66961"/>
  <path d="m735.04 13.83c6.21 0.07 12.42 0.17 18.66 0.24 2.05 0.52 4.38 1.22 3.09 3.79-3.27 9.4-5.29 19.32-9.9 28.2 2.33 0.42 4.68 0.78 7.07 1.08-9.99-0.42-19.98-0.78-29.93-1.7 8.58-5.92 11.28-21.13 11.01-31.61z" fill="#a45e57"/>
  <path d="m819.55 14.18c4.51-0.07 9-0.15 13.56-0.19-0.84 11.09-7.8 21.52-6.8 32.18-0.4 0.25-1.19 0.76-1.58 1.01-5.67-0.1-11.31-0.11-16.94 0 5.72-9.58 5.84-22.86 11.76-33z" fill="#593532"/>
  <path d="m833.11 13.99c3.29-0.15 6.49-0.02 9.83-0.1 2.5 0.34 5 0.76 7.51 1.27-2.53 10.48-7.23 20.39-9.33 30.93-0.49 0.04-1.45 0.11-1.93 0.14-4.33-0.03-8.6-0.19-12.88-0.06-1-10.66 5.96-21.09 6.8-32.18z" fill="#4a2c2a"/>
  <path d="m842.94 13.89c4.39 0.23 8.74 0.67 13.16 0.93-1.89 0.09-3.77 0.21-5.65 0.34-2.51-0.51-5.01-0.93-7.51-1.27z" fill="#845f50"/>
  <path d="m850.45 15.16c1.88-0.13 3.76-0.25 5.65-0.34 3.25 0.03 6.41 0.03 9.71 0.15l0.7 0.63c-5.6 7.68-8.85 20.73-10.49 29.65l-0.05 0.93c-4.95-0.11-9.94-0.18-14.85-0.09 2.1-10.54 6.8-20.45 9.33-30.93z" fill="#3c2522"/>
  <path d="m865.81 14.97c4.1 0.18 8.18 0.47 12.31 0.76-3.88-0.06-7.76-0.1-11.61-0.13l-0.7-0.63z" fill="#a08174"/>
  <path d="m856.02 45.25c1.64-8.92 4.89-21.97 10.49-29.65 3.85 0.03 7.73 0.07 11.61 0.13 3.99 0.23 7.95 0.65 11.96 1-10.65-2.89-8.81 9.53-11.66 15.6-2.03 4.56-5.66 14.48 3.87 12.03-3.69 0.19-7.36 0.49-11 0.9-5.12 0.02-10.19-0.33-15.27-0.01z" fill="#2c1e1c"/>
  <path d="m878.42 32.33c2.85-6.07 1.01-18.49 11.66-15.6 6.93 1.06 13.88 1.83 20.88 2.28 2.99 0.34 6.12 0.65 9.17 0.87 9.29 2.68 26.27 1.21 29.6 11.72-20.79 10.23-44.98 9.28-67.44 12.76-9.53 2.45-5.9-7.47-3.87-12.03z" fill="#151110"/>
  <path d="m910.96 19.01c3.07 0.31 6.04 0.59 9.17 0.87-3.05-0.22-6.18-0.53-9.17-0.87z" fill="#68564b"/>
  <path d="m409.48 82.44c43.95-24.79 89.47-48.43 138.8-60.4-1.73 7.94 8.47 9.18 13.93 10.95-31.25 15.43-62.53 31.15-90.19 52.55-1.25 5.07 3.86 8.03 7.69 9.84 31.52 10.98 65.34 9.77 97.93 15.05 60.56 5.36 121.09 10.55 181.92 11.34 0.34 0.6 1.03 1.8 1.37 2.4-10.09-0.35-20.17-0.12-30.25-0.12-5.25 0.15-10.47 0.18-15.67 0.81-7.55 0.8-15.11 1.48-22.57 2.83-5.49 0.34-11.02 0.84-16.33 2.32-6.97 2.15-14.3 2.73-21.24 4.92-5.67 1.96-11.42 3.74-16.85 6.27-5.65 2.84-11.32 5.75-16.31 9.64-4.86 3.11-9.65 6.38-13.74 10.47-4.63 4.93-9.91 9.29-14.12 14.59-9.03 45.74 14.63 90.53 5.93 136.92-4.19 11.84 12.36 9.58 19.48 13.28 5.37 0.67 10.83 1.04 15.94 3.02 5.05 1.39 10.25 2.28 15.46 2.96 5.61 2.06 11.58 2.85 17.46 3.92 6.58 1.27 13.22 2.09 19.85 3.09 4.89 0.77 9.85 1.25 14.77 2.02 6.03 1.73 12.25 2.63 18.43 3.66 2.14 0.85 12.35 0.99 6.24 2.57-13.2-0.8-26.13 2.72-39.23 3.67-5.72 0.63-11.41 1.42-17.09 2.19-9.11-0.19-18.12 1.27-27.11 2.48-5.72 0.54-11.39 1.38-17.02 2.43-10.37 0.32-20.75 0.44-30.96 2.72-10.44 0.93-20.97 1.79-31 5.06-29.5 7.91-60.47 13.37-88.23 26.13 14.03 4.06 27.59 9.4 41.15 14.79 6.82 3.68 13.75 7.13 20.84 10.25 8 4.94 15.74 10.27 23.78 15.16 7.16 5.22 13.84 11.08 20.42 17.02 10.37 13.32 19.85 27.95 22.75 44.91 0.73 4.24 2.05 8.38 2.58 12.66-0.47 6.22-0.94 8.29-1.7 0.84-3.93-42.62-40.19-71.49-75.67-89.57-48.82-23.6-102.34-36.25-155.93-43.24 0.44-3.65 4.25-3.09 7.28-3.13 8.07 0.83 16.1 1.95 24.12 3.22 7.89 3.29 14.71-3.32 21.6-5.97 32.92-16.57 69.06-25.92 102.77-40.02 16.41-4.93 33.18-8.62 49.93-12.25 0.97-4.42 1.39-8.93 1.62-13.43 0.5-10.75 1.88-21.81-0.03-32.44-4.3-59.3-32.65-114.5-68.87-160.4-14.66-2.44-29.43-4.6-44.29-5.49-2.8-0.2-5.52-0.41-8.27-0.81-16.79-1.82-34.28-3.06-49.83-10.12-5.16-1.53-8.67-9.48-1.54-11.56z" fill="#943426"/>
  <path d="m1021.4 24.91c40 15.16 76.7 37.79 111.4 62.58 1.1 3.55-1.7 6.56-4.5 8.06-31.5 7.84-65 7.61-96.1 16.61-19.8 26.17-38.52 55.29-48.02 86.76 19.42-1.56 39.22 0 57.72 6.23 47.9 15.12 95.3 32.56 140.6 54.31 76.2 13.27 155.2 31.53 218.3 78.78 23 12.6 20.3 42.95 23.4 65.41 0.2 6.52-1.4 13.36 0.6 19.71 0.4 8.25-1 16.41-1.9 24.59-0.6 3.32-0.7 6.72-0.8 10.1-3.2 41.24-12.3 82.09-26.1 120.93-4.4 11.09-1.7 23.87-7 34.9-2.5 13.04-5.7 25.91-9 38.78-6 13.16-8.8 27.52-14.1 40.98-7.3 13.28-12.3 27.61-18.8 41.31-6.4 13.82-11.9 28.08-19.5 41.35 12.1 18.17 28.3 38.05 28.1 61.62-1.1 14.67-10.7 26.57-17.7 38.9-8.6 11.31-18.6 21.56-32.2 26.74-9.3 3.78-20.4 5.45-29.6 1-13.3-4.23-23.6-13.81-33.2-23.43-1.1-1.39-2.2-2.76-3.2-4.18-0.1-1.74 1.3-1.45 2.5-1.28 2.1 2.29 4.1 4.63 6 7.06 20 28.12 64.6 24.11 83-3.42 10.3-15.41 28-33.29 18.7-53.2-6.5-16.68-17.9-30.57-28.5-44.73-3.1-3.54 0.3-7.69 1.7-11.2 34.4-75.21 64.2-155.45 62-239.36-3.1-61.77-27.3-122.82-70.5-167.51-53.4-59.89-126-97.54-199-128.03-30.9-12.05-61.9-24.53-94.4-31.59-35.98-6.81-76.15 5.12-97.9 35.7-31.1 43.47-36.93 99.07-41.38 150.82-2.96 19.02 4.19 38.59 14.93 53.8 11.44 21.08 35.63 29.78 56.57 38.26 20.5-1.91 44.75-9.74 50.98-32.02 3.2-26.3-18.59-46.01-36.81-61.26 1.81-0.74 5.96 0.09 5.19-2.9-2.41-17.38-5.4-36.11-0.9-52.98-0.13 3.22-0.1 6.51-0.24 9.75-1.01 8.38-1.29 16.86 0.08 25.23 0.91 6.67 1.14 13.55 2.8 20.06 20.35 13.33 40.58 34.1 38.18 60.52-3.3 13.04-12.7 25.71-25.93 29.88-0.51 0.2-1.54 0.59-2.05 0.79-1.03 0.74-1.98 1.55-2.92 2.37-1.72 0.73-3.44 1.44-5.14 2.17-3 0.75-6.06 1.41-9.03 2.15-3.05 0.08-5.98 0.5-8.76 1.7-18.49-6.2-36.94-14.16-52.06-26.79-4.26-4.12-8.21-8.55-11.72-13.3-2.76-4.02-4.94-8.41-7.23-12.7-1.83-3.93-3.46-7.94-5.07-11.96-1.9-4.83-4.13-9.51-6.01-14.34-0.12-3.36 0.63-6.55 1.14-9.82 1.68-6.57 0.79-13.32 0.87-20.01 0.03-0.45 0.1-1.37 0.13-1.83 5.09-53.78 14.51-111.69 52.01-153.11 1.56-1.66 3.22-3.24 4.89-4.8 1.74-1.31 3.49-2.6 5.24-3.91 1.85-1.17 3.57-2.57 4.96-4.29 1.67-0.6 3.36-1.14 5.04-1.75 1.67-0.6 3.33-1.25 4.94-2.04 2.03-0.95 3.99-2.07 5.91-3.26 1.96-0.69 3.95-1.32 5.96-1.94 3.64-0.21 6.38-2.11 6.99-6.01 10.37-27.43 21.22-54.66 38.24-78.84 3.1-4.88-3.1-4.03-6.4-3.46-4.4 0.33-8.67 0.58-12.99 0.87-1.21 0.14-2.4 0.36-3.56 0.65-2.39 0.37-4.81 0.51-7.2 0.78-2.41 0.23-4.78 0.5-7.12 0.8-4.06 0.36-8.03 1.25-12.04 1.86-1.73 0.36-3.41 0.91-5.07 1.44-9.02 0.16-18.09-0.6-27.03 0.76-18.51 1.21-37.07 1.77-55.52 3.58-12.66 0.53-26.17-2.15-38.37 0.68l-0.93 0.07c-24.96 0.31-49.97-0.83-74.89 0.46-0.28-0.34-0.86-1.02-1.15-1.35-0.34-0.6-1.03-1.8-1.37-2.4 87.51 3.85 175.6-0.39 262.14-13.98 21.2-5.29 43.8-4.51 64.2-12.8 2.6-0.96 4.9-3.66 3.9-6.51-26.1-20.45-54.6-37.5-83.7-53.48 0.2-0.53 0.6-1.58 0.8-2.1 4.9-2.59 11.9-2.37 14.5-7.99m186.5 246.65c3.2 2.05 6.1 5.55 10.1 5.94 3.2 1.91 6 4.91 9.9 5.52 31.9 20.41 63.7 43.18 90.4 70.67 44.6 43.35 74.3 102.99 77.7 165.4 1.3 4.65 0.7 9.52 1.1 14.31-0.7 4.61-0.1 9.31 0.1 13.97-0.9 5.7-0.9 12.23 0.5 17.45 17.6-68.94 31.8-143.61 9.2-212.99-56.6-49.89-131.9-71.2-204.6-85.35-11.8-2.02 2.1 3.68 5.6 5.08z" fill="#953829"/>
  <path d="m562.21 32.99c11.1 3.79 22.77 4.69 34.22 6.83-19.12 13.58-38.36 26.97-55.29 43.32-7.21 4.41 1.92 12.66 7.11 13.76 51.95 13.93 106.24 14.22 159.37 20.52 50.88-0.09 101.91 7.74 152.71 2.08 59.02 0.74 117.5-9.16 175.37-20.27 5.3-0.9 14.6-3.75 10.7-11.32-22.3-18.08-46.86-33.17-70.66-48.92 10.35-2.26 21.12-2.68 31.16-6.09-0.2 0.52-0.6 1.57-0.8 2.1 29.1 15.98 57.6 33.03 83.7 53.48 1 2.85-1.3 5.55-3.9 6.51-20.4 8.29-43 7.51-64.2 12.8-86.54 13.59-174.63 17.83-262.14 13.98-60.83-0.79-121.36-5.98-181.92-11.34-32.59-5.28-66.41-4.07-97.93-15.05-3.83-1.81-8.94-4.77-7.69-9.84 27.66-21.4 58.94-37.12 90.19-52.55z" fill="#a74e34"/>
  <path d="m942.42 42.75c11.18-0.54 22.21-2.59 33.32-3.76 23.8 15.75 48.36 30.84 70.66 48.92 3.9 7.57-5.4 10.42-10.7 11.32-57.87 11.11-116.35 21.01-175.37 20.27-50.8 5.66-101.83-2.17-152.71-2.08-53.13-6.3-107.42-6.59-159.37-20.52-5.19-1.1-14.32-9.35-7.11-13.76 16.93-16.35 36.17-29.74 55.29-43.32 15 1.43 29.92 4.04 45.03 3.92-13.24 13.7-27.73 26.7-37.38 43.39 1.9 9.31 14.5 11.12 21.84 14.01 110.19 14.99 222.83 25.98 333.2 7.01 14.98-5.04 32.32-3.23 45.68-12.63 0.4-6.43-5.32-10.96-9.9-14.5-17.35-12.96-34.88-25.64-52.48-38.27z" fill="#be6e49"/>
  <path d="m913.18 45.11c9.69-1.39 19.48-1.79 29.24-2.36 17.6 12.63 35.13 25.31 52.48 38.27 4.58 3.54 10.3 8.07 9.9 14.5-13.36 9.4-30.7 7.59-45.68 12.63-110.37 18.97-223.01 7.98-333.2-7.01-7.34-2.89-19.94-4.7-21.84-14.01 9.65-16.69 24.14-29.69 37.38-43.39 15.1 2 30.42 1.52 45.56 3.23-8.46 12-12.06 26.44-16.94 40.03 2.65 8.35 12.68 12.55 20.71 14.31 86.48 14.22 176.69 24.25 262.61 1.17 5.44-1.07 12.46-6.6 7.6-12.33-15.46-16.38-34.7-28.8-51.93-43.26 0.08-1.72 2.87-1.13 4.11-1.78z" fill="#d5905c"/>
  <path d="m856.02 45.25c5.08-0.32 10.15 0.03 15.27 0.01-4.97 1.48-10.24 0.88-15.32 0.92l0.05-0.93z" fill="#a3806e"/>
  <path d="m824.25 47.96c29.47 3.21 59.35-2.2 88.93-2.85-1.24 0.65-4.03 0.06-4.11 1.78 17.23 14.46 36.47 26.88 51.93 43.26 4.86 5.73-2.16 11.26-7.6 12.33-85.92 23.08-176.13 13.05-262.61-1.17-8.03-1.76-18.06-5.96-20.71-14.31 4.88-13.59 8.48-28.03 16.94-40.03 39.64 2.31 79.59 2.92 119.31 1.23 5.95-0.12 11.94-0.25 17.92-0.24z" fill="#eaae6e"/>
  <path d="m824.73 47.18c0.39-0.25 1.18-0.76 1.58-1.01 4.28-0.13 8.55 0.03 12.88 0.06-4.51 1.57-9.7 0.68-14.46 0.95z" fill="#876254"/>
  <path d="m753.96 47.14c3.96 0.08 7.92 0.09 11.91 0.04 4.67-0.07 9.31-0.12 14.01-0.15 4.68 0.07 9.33 0.17 14.03 0.16 4.62 0.04 9.22 0.02 13.88-0.01 5.63-0.11 11.27-0.1 16.94 0l-0.48 0.78c-5.98-0.01-11.97 0.12-17.92 0.24-17.45-0.81-34.98 0.87-52.37-1.06z" fill="#cc9c86"/>
  <path d="m460.85 104.12c2.75 0.4 5.47 0.61 8.27 0.81-2.74-0.4-5.55-0.58-8.27-0.81z" fill="#e2b1aa"/>
  <path d="m1006.8 113.57c3.3-0.57 9.5-1.42 6.4 3.46-17.02 24.18-27.87 51.41-38.24 78.84-0.61 3.9-3.35 5.8-6.99 6.01 8.19-31.07 23.58-60.43 38.83-88.31z" fill="#a34a33"/>
  <path d="m993.81 114.44c4.32-0.29 8.59-0.54 12.99-0.87-15.25 27.88-30.64 57.24-38.83 88.31-2.01 0.62-4 1.25-5.96 1.94 7.72-30.35 21.06-59.03 34.93-87.02-0.01-1.69-1.94-1.9-3.13-2.36z" fill="#ab563a"/>
  <path d="m983.05 115.87c2.39-0.27 4.81-0.41 7.2-0.78-12.22 30.27-26.71 60.03-34.15 91.99-1.61 0.79-3.27 1.44-4.94 2.04 7.58-32.09 18.64-63.06 31.89-93.25z" fill="#bd6e49"/>
  <path d="m990.25 115.09c1.16-0.29 2.35-0.51 3.56-0.65 1.19 0.46 3.12 0.67 3.13 2.36-13.87 27.99-27.21 56.67-34.93 87.02-1.92 1.19-3.88 2.31-5.91 3.26 7.44-31.96 21.93-61.72 34.15-91.99z" fill="#b46141"/>
  <path d="m975.93 116.67c2.34-0.3 4.71-0.57 7.12-0.8-13.25 30.19-24.31 61.16-31.89 93.25-1.68 0.61-3.37 1.15-5.04 1.75 5.91-32.5 16.36-64.12 29.81-94.2z" fill="#c57b4f"/>
  <path d="m963.89 118.53c4.01-0.61 7.98-1.5 12.04-1.86-13.45 30.08-23.9 61.7-29.81 94.2-1.39 1.72-3.11 3.12-4.96 4.29 3.89-32.89 14.8-64.31 25.78-95.28-0.99-0.53-2.01-0.98-3.05-1.35z" fill="#cf8857"/>
  <path d="m958.82 119.97c1.66-0.53 3.34-1.08 5.07-1.44 1.04 0.37 2.06 0.82 3.05 1.35-10.98 30.97-21.89 62.39-25.78 95.28-1.75 1.31-3.5 2.6-5.24 3.91 2.42-34.02 13.53-66.55 22.9-99.1z" fill="#d7945d"/>
  <path d="m931.79 120.73c8.94-1.36 18.01-0.6 27.03-0.76-9.37 32.55-20.48 65.08-22.9 99.1-1.67 1.56-3.33 3.14-4.89 4.8 1.73-35.22 11.54-69.54 20.98-103.28-6.76 0.16-13.49 0.63-20.22 0.14z" fill="#e1a165"/>
  <path d="m876.27 124.31c18.45-1.81 37.01-2.37 55.52-3.58 6.73 0.49 13.46 0.02 20.22-0.14-9.44 33.74-19.25 68.06-20.98 103.28-37.5 41.42-46.92 99.33-52.01 153.11-13.32 4.79-30.3 9.74-28.42 26.1-10.46 29.05-9.15 60.42-8.49 90.57-1.42 23.07 2.66 45.7 6.24 67.68-0.22 7.61-1.91 16.84 2.84 23.3-3.24 18.38 8.87 38.7 4.78 56.8 7.36 20.52 3.13 43.39 7.98 64.19 1.76 89.12 3.31 177.06 5.05 266.18 6.4 59.7 5.36 120.5-2.73 179.6 6.28-1.2-2.01 3.7 0.67 6.7-4.82 77.6-15.57 161.7 27.07 231.9 9.06 14.2 17.95 32 36.16 35.7 29.75 1.4 51.16-21.3 70.23-40.4 7-13.5 19.7-22.7 28.3-35.2 0.4-11.8 19-18.8 17.3-31.3 6.8-6.6 8.8-16.5 15.3-23.5-0.1-4.4 7.3-8.3 3.3-11.2 8.7-10.3 10.6-22.1 15.1-34.4 12.3-34.2 21.8-69.1 31-103.7-5.9-0.5 7.5-16.7 3.5-20.9 13.1-55.9 19.1-113.4 19-170.91-1.8-3.9 4.9-13.95-0.6-14.54 1-144.16-51.3-292.37-121.6-420.71-7.7-13.53-13.53-28.84-24.13-40.39 13.23-4.17 22.63-16.84 25.93-29.88 2.4-26.42-17.83-47.19-38.18-60.52-1.66-6.51-1.89-13.39-2.8-20.06-0.06-6.22 0.06-12.42 0.09-18.63 102.79 107.02 156.59 250.59 185.99 393.67 16 84.67 25.2 169.97 25.1 256.22 3.1 106.35-4 216.05-46.6 315.05-20.8 47.2-51.1 90.1-85 129-29.4 29.4-59.04 59.4-84.53 92.5-26.24 36-35.89 82.3-31.03 126.1-2.65 29.4 21.17 50.2 38.73 70.4 12.02 16.2 30.43 32.5 27.53 54.4-9.17 17.2-21.01 33.7-37.14 45.1-4.21 3.2-8.77 5.9-12.83 9.3-3.34 1-6.44 2.7-9.23 4.8-12.95 4.8-26.68 6.3-39.92 9.9-1.52 0.2-3.04 0.3-4.55 0.4-1.7-0.1-5.11-0.3-6.81-0.5-44.27-1.7-87.71-25.5-110.43-64.1-6.2-18.1 9.13-33.9 20-46.5 11.48-15.7 28.41-29.3 30.04-50.1 3.62-76.3-23.19-151.5-66.48-213.8-35.92-58.4-69.94-118.7-87.95-185.1-27.17-87-38.99-178.1-41.76-269.1-4.36-61.74-9.9-123.53-8.27-185.56 0.03-1.43-0.97-2.56-1.58-3.74 7.09 0.5 14.53-0.19 4.78-1.79-28.42-9.57-55.41-27.2-69.37-54.61-25.78-41.79-25.76-93.16-26.1-140.5-1.52-38.32 7.27-76.17 5.88-114.49 3.72-24.86-15.17-45.67-34.32-58.48-45.55-30.74-100.15-42.61-152.73-55.28-83.36-13.17-168.96-25.77-252.77-9.22-14.4 4.9-31.7 7.69-40.84 21.31-7.6 16.71-5.85 35.63-6.61 53.51-0.04 8.82-0.15 17.65-0.31 26.48-0.56 9.46-2.12 19.2-0.09 28.59 3.34 49.27 16.1 96.99 27.3 144.83-0.96 10.18-5.9 19.55-7.26 29.72-7.59-34.36-13.06-70.26-23-104.62-11.42-53.43-30.91-107.8-20.61-163.09 2.86-20.02 14.92-37.13 29.19-50.83 14.84-11.69 34.98-10.02 52.56-13.53 54.56-3.52 109.27-3.56 163.79-0.63 90.49 8.72 183.98 19.48 265.45 62.71 26.71 15.69 49.74 37.98 60.9 67.31l0.19 0.82c4.25 45.8 9.74 91.69 17.81 136.96 5.1 18.87 8.6 40.35 24.29 53.76 29.68 14.13 56.29 38.89 64.71 71.63l0.11 0.93c-0.56 17.85 4.07-2.99 1.38-9.49-0.38-1.71-0.79-3.41-1.11-5.12-3.44-22.72-19.73-41.91-39.3-52.98-1.57-0.98-3.21-1.81-4.82-2.7-22.75-12.81-28.75-40.67-35.22-63.83 6.33-56.72 8.83-113.93 21.21-169.87 6.67-38.11 15.34-76.19 31.64-111.3 0.85-2.56 4-2.29 6.26-2.99 13.1-0.95 26.03-4.47 39.23-3.67 3.12-0.14 6.12 0.94 9.23 1.03 6.66 0.09 13.36 0.88 20 0.41 5.29-75.1 0.79-151.52-22.38-223.74 9.27 0 18.55-0.32 27.82 0.48 24.92 0.5 50.04 1.45 74.89-0.46l0.93-0.07c12.75-0.6 25.73 1.19 38.37-0.68z" fill="#e9ae6e"/>
  <path d="m715.01 124.86c5.2-0.63 10.42-0.66 15.67-0.81 1.19 0.31 2.38 0.64 3.58 0.99 23.17 72.22 27.67 148.64 22.38 223.74-6.64 0.47-13.34-0.32-20-0.41 12.47-73.87 1.53-151.45-23.66-222.07 0.51-0.36 1.52-1.08 2.03-1.44z" fill="#e1a265"/>
  <path d="m730.68 124.05c10.08 0 20.16-0.23 30.25 0.12 0.29 0.33 0.87 1.01 1.15 1.35-9.27-0.8-18.55-0.48-27.82-0.48-1.2-0.35-2.39-0.68-3.58-0.99z" fill="#b56240"/>
  <path d="m837.9 124.99c12.2-2.83 25.71-0.15 38.37-0.68-12.64 1.87-25.62 0.08-38.37 0.68z" fill="#b66341"/>
  <path d="m692.44 127.69c7.46-1.35 15.02-2.03 22.57-2.83-0.51 0.36-1.52 1.08-2.03 1.44 25.19 70.62 36.13 148.2 23.66 222.07-3.11-0.09-6.11-1.17-9.23-1.03 6.11-1.58-4.1-1.72-6.24-2.57 7.52-73.23 1.42-149.12-28.73-217.08z" fill="#d7945d"/>
  <path d="m762.08 125.52c24.92-1.29 49.93-0.15 74.89-0.46-24.85 1.91-49.97 0.96-74.89 0.46z" fill="#d6905f"/>
  <path d="m676.11 130.01c5.31-1.48 10.84-1.98 16.33-2.32 30.15 67.96 36.25 143.85 28.73 217.08-6.18-1.03-12.4-1.93-18.43-3.66 10.66-70.83-0.7-144.07-28.64-209.81 0.5-0.32 1.51-0.97 2.01-1.29z" fill="#cf8958"/>
  <path d="m654.87 134.93c6.94-2.19 14.27-2.77 21.24-4.92-0.5 0.32-1.51 0.97-2.01 1.29 27.94 65.74 39.3 138.98 28.64 209.81-4.92-0.77-9.88-1.25-14.77-2.02-3.18-3.17-0.82-8.31-1.41-12.35 6.45-65.15-2.74-132.72-31.69-191.81z" fill="#c57c4f"/>
  <path d="m638.02 141.2c5.43-2.53 11.18-4.31 16.85-6.27 28.95 59.09 38.14 126.66 31.69 191.81 0.59 4.04-1.77 9.18 1.41 12.35-6.63-1-13.27-1.82-19.85-3.09 6.57-54.89 2.84-111.68-17.83-163.29-4.54-10.3-8.68-20.86-12.27-31.51z" fill="#be6e49"/>
  <path d="m621.71 150.84c4.99-3.89 10.66-6.8 16.31-9.64 3.59 10.65 7.73 21.21 12.27 31.51 20.67 51.61 24.4 108.4 17.83 163.29-5.88-1.07-11.85-1.86-17.46-3.92 7.69-61.43-1.28-125.56-28.95-181.24z" fill="#b46241"/>
  <path d="m607.97 161.31c4.09-4.09 8.88-7.36 13.74-10.47 27.67 55.68 36.64 119.81 28.95 181.24-5.21-0.68-10.41-1.57-15.46-2.96-4.65-3.81 0.49-10.22-0.21-15.1 6.33-52.63-7.29-104.53-27.02-152.71z" fill="#ac563a"/>
  <path d="m593.85 175.9c4.21-5.3 9.49-9.66 14.12-14.59 19.73 48.18 33.35 100.08 27.02 152.71 0.7 4.88-4.44 11.29 0.21 15.1-5.11-1.98-10.57-2.35-15.94-3.02-1.32-1.22-3.7-2.22-3.02-4.39 5.72-49.32-0.24-100.92-22.39-145.81z" fill="#a44c34"/>
  <path d="m599.78 312.82c8.7-46.39-14.96-91.18-5.93-136.92 22.15 44.89 28.11 96.49 22.39 145.81-0.68 2.17 1.7 3.17 3.02 4.39-7.12-3.7-23.67-1.44-19.48-13.28z" fill="#9a3c2a"/>
  <path d="m923.4 239.39c21.75-30.58 61.92-42.51 97.9-35.7 32.5 7.06 63.5 19.54 94.4 31.59 73 30.49 145.6 68.14 199 128.03 43.2 44.69 67.4 105.74 70.5 167.51 2.2 83.91-27.6 164.15-62 239.36-1.4 3.51-4.8 7.66-1.7 11.2 10.6 14.16 22 28.05 28.5 44.73 9.3 19.91-8.4 37.79-18.7 53.2-18.4 27.53-63 31.54-83 3.42 3.2 2.09 6.6 3.96 9.6 6.35 11.7 9.84 30 14.46 43.9 6.68 22.2-7.93 35.2-29.15 47.2-48.06 5-21.32-15.7-36.39-26.6-52.07-3.2-5.85-12.8-10.87-9.4-18.47 38.4-88.96 71.9-185.86 55.9-284.01-11.1-72.72-59.9-132.61-115.6-177.43-47.1-34.21-98.9-61.5-152.9-83.14-27.6-10.99-55.3-23.51-85.4-25.62-39.16-6.46-80.85 15.46-97.91 51.13-23.92 42.95-28.87 93.4-32.38 141.55-1.87 15.93 5.92 30.41 12.24 44.37-10.74-15.21-17.89-34.78-14.93-53.8 4.45-51.75 10.28-107.35 41.38-150.82z" fill="#a74e35"/>
  <path d="m917.09 258.09c17.06-35.67 58.75-57.59 97.91-51.13 30.1 2.11 57.8 14.63 85.4 25.62 54 21.64 105.8 48.93 152.9 83.14 55.7 44.82 104.5 104.71 115.6 177.43 16 98.15-17.5 195.05-55.9 284.01-3.4 7.6 6.2 12.62 9.4 18.47 10.9 15.68 31.6 30.75 26.6 52.07-12 18.91-25 40.13-47.2 48.06-13.9 7.78-32.2 3.16-43.9-6.68 30 17.58 64.4-4.55 80.3-30.88 4.6-6.18 11.3-12.79 9-21.3-8.2-22.2-33.2-33.1-43.1-53.91 38.7-100.36 76.5-211.42 46.1-319.16-24.9-80.2-89.4-141.32-160.3-182.75-47.3-27.07-97-50.38-149-66.96-31.1-8.3-66.53-5.18-93.18 13.6-30.74 25.16-45.41 64.7-51 103-5.52 31.65-11.35 64.78-5.26 96.8 8.9 25.92 36.09 38.05 60.74 44.29 16.22-0.83 39.5-7.57 39.43-27.6-5.26-24.65-26.01-42.86-45.48-57.12 4.66 0.52 9.37 1.08 13.86 2.55 17.79 14.19 35.54 32.46 37.84 56.24-1.45 22.51-28.3 30.79-47.25 30.56-20.15-6.11-39.43-16.63-53.65-32.43-6.32-13.96-14.11-28.44-12.24-44.37 3.51-48.15 8.46-98.6 32.38-141.55z" fill="#be6f49"/>
  <path d="m947.72 227.72c26.65-18.78 62.08-21.9 93.18-13.6 52 16.58 101.7 39.89 149 66.96 70.9 41.43 135.4 102.55 160.3 182.75 30.4 107.74-7.4 218.8-46.1 319.16 9.9 20.81 34.9 31.71 43.1 53.91 2.3 8.51-4.4 15.12-9 21.3-15.9 26.33-50.3 48.46-80.3 30.88-3-2.39-6.4-4.26-9.6-6.35-1.9-2.43-3.9-4.77-6-7.06-2.8-3.63-5.5-7.27-8.4-10.86-0.3-1.23-0.6-2.45-0.9-3.66 12.3 15.66 27.9 31.96 49.8 30.54 21-4.13 39.4-17.83 52.3-34.58 4.5-5.81 11.9-11.34 9.7-19.78-11.3-21.46-40.3-31.36-48.3-53.86 33.2-96.7 68.6-200.02 46.4-303.31-10.9-43.97-32.5-85.54-62.7-119.32-51.6-56.2-119.2-93.98-187.9-125.14-23.7-8.25-46.1-21.39-72-21.02-33.33-5.73-68.64 9.28-88.66 35.97-34.63 49.35-38.29 112.81-39.55 170.95 9.2 33.7 54.47 56.1 85.37 36.99 8.92-4.55 9.36-16.9 4.58-24.63-11.77-22.75-32.93-38.67-53.44-52.93-7.76-35.96 6.42-73.25 30.77-99.66 9.66-9.1 18.63-20.86 32.83-22.33 0.03 1.54 1.55 3.88-1.32 4.16-39.93 24.19-59.51 74.36-51.42 119.73 1.32 1.3 2.98 2.21 4.61 3.09 0.52 0.27 1.56 0.81 2.08 1.07 19.47 14.26 40.22 32.47 45.48 57.12 0.07 20.03-23.21 26.77-39.43 27.6-24.65-6.24-51.84-18.37-60.74-44.29-6.09-32.02-0.26-65.15 5.26-96.8 5.59-38.3 20.26-77.84 51-103z" fill="#d5905b"/>
  <path d="m931.64 250.65c20.02-26.69 55.33-41.7 88.66-35.97 25.9-0.37 48.3 12.77 72 21.02 68.7 31.16 136.3 68.94 187.9 125.14 30.2 33.78 51.8 75.35 62.7 119.32 22.2 103.29-13.2 206.61-46.4 303.31 8 22.5 37 32.4 48.3 53.86 2.2 8.44-5.2 13.97-9.7 19.78-12.9 16.75-31.3 30.45-52.3 34.58-21.9 1.42-37.5-14.88-49.8-30.54-22.9-28.07-13.4-66.7-2.8-97.95 21.3-52.63 61-96.72 74.8-152.39-2.8-128.24-76.9-250.82-185.1-318.72-30.9-15.85-63.7-32.56-99.2-33-7.5 0.67-14.9-1.51-22.25-0.45-1.54 0.11-3.08 0.19-4.59 0.27-0.42 0.03-1.25 0.1-1.66 0.13-14.2 1.47-23.17 13.23-32.83 22.33-24.35 26.41-38.53 63.7-30.77 99.66 20.51 14.26 41.67 30.18 53.44 52.93 4.78 7.73 4.34 20.08-4.58 24.63-30.9 19.11-76.17-3.29-85.37-36.99 1.26-58.14 4.92-121.6 39.55-170.95z" fill="#eaae6e"/>
  <path d="m998.45 258.64c7.35-1.06 14.75 1.12 22.25 0.45 66.5 12.17 125.8 50.85 171.7 99.47 57.6 61.47 96.2 141.45 104.9 225.57 0.6 11.07 5 22.62 0.2 33.35-12.2 53.01-51.4 94.35-67.3 145.72-10.6 31.25-20.1 69.88 2.8 97.95 0.3 1.21 0.6 2.43 0.9 3.66-4.9-3.06-6.3-14.47-11.3-14.66-1.2-2.29-2.4-4.56-3.4-6.97-3.9-30.38 0.9-61.24 10.8-90.19 21.2-47.99 53.7-91.78 63.7-144.13-5.5-124.84-75.3-245.44-182.8-309.73-34.7-20.12-72.2-36.44-112.45-40.49z" fill="#be6f49"/>
  <path d="m992.2 259.04c0.41-0.03 1.24-0.1 1.66-0.13 1.2 1.52 2.81 2.64 4.73 3.09-22.99 10.98-32.26 37.11-43.03 58.62-6.21 21.28-7.56 43.63-11.49 65.4-1.63-0.88-3.29-1.79-4.61-3.09-8.09-45.37 11.49-95.54 51.42-119.73 2.87-0.28 1.35-2.62 1.32-4.16z" fill="#bd6c48"/>
  <path d="m993.86 258.91c1.51-0.08 3.05-0.16 4.59-0.27 40.25 4.05 77.75 20.37 112.45 40.49 107.5 64.29 177.3 184.89 182.8 309.73-10 52.35-42.5 96.14-63.7 144.13 16.3-47.36 47.9-89 57.1-138.93-1.9-157.59-114.8-308.26-267.9-349.32-6.8-1.63-13.6-2.97-20.61-2.74-1.92-0.45-3.53-1.57-4.73-3.09z" fill="#a74e34"/>
  <path d="m1020.7 259.09c35.5 0.44 68.3 17.15 99.2 33 108.2 67.9 182.3 190.48 185.1 318.72-13.8 55.67-53.5 99.76-74.8 152.39 15.9-51.37 55.1-92.71 67.3-145.72 4.8-10.73 0.4-22.28-0.2-33.35-8.7-84.12-47.3-164.1-104.9-225.57-45.9-48.62-105.2-87.3-171.7-99.47z" fill="#d5905b"/>
  <path d="m998.59 262c7.01-0.23 13.81 1.11 20.61 2.74 0.5 1.06 0.3 1.99-0.5 2.8-3.4-1.24-6.8-2.72-10.4-2.65-4.4-0.39-5.7 3.84-6.3 7.32l-0.4 0.62c-2.45 2.8-4.83 5.61-6.91 8.67-2.56 2.27-4.63 5.04-5.78 8.28-1.87 2.69-3.89 5.28-5.46 8.14-1.52 3.19-2.32 6.67-3.4 10.02-1.02 2.38-2.2 4.69-3.26 7.06-0.73 1.59-1.35 3.23-1.85 4.91-0.36 1.03-0.65 2.07-0.88 3.14-0.47 1.92-0.72 3.9-0.97 5.87-0.08 0.41-0.24 1.25-0.32 1.67-0.2 0.63-0.59 1.89-0.79 2.52-4.5 16.87-1.51 35.6 0.9 52.98 0.77 2.99-3.38 2.16-5.19 2.9-2.64 0.27-5.09 0.78-7.68 0.65-4.49-1.47-9.2-2.03-13.86-2.55-0.52-0.26-1.56-0.8-2.08-1.07 3.93-21.77 5.28-44.12 11.49-65.4 10.77-21.51 20.04-47.64 43.03-58.62z" fill="#790302"/>
  <path d="m1002 272.21c0.6-3.48 1.9-7.71 6.3-7.32-1.8 2.71-3.9 5.14-6.3 7.32z" fill="#953524"/>
  <path d="m1008.3 264.89c3.6-0.07 7 1.41 10.4 2.65 3.4 1.15 6.9 2.31 10.3 3.6-9.2-0.09-18.3 3.23-27.4 1.69l0.4-0.62c2.4-2.18 4.5-4.61 6.3-7.32z" fill="#e9a07e"/>
  <path d="m1019.2 264.74c153.1 41.06 266 191.73 267.9 349.32-9.2 49.93-40.8 91.57-57.1 138.93-9.9 28.95-14.7 59.81-10.8 90.19-7-29.12-1.3-59.64 6.8-87.95 4.6-16.35 13.1-31.17 19.2-46.93 5.9-12.82 11.5-25.74 18-38.26 5.6-13.23 10.4-26.84 14.1-40.68 7.8-18.11 2.9-37.73-0.3-56.29-1.8-17.93-3.8-36.47-10.9-53.16-3.5-14.05-7.1-28.21-13.9-41.12-9-21.28-20.4-41.4-33.2-60.59-33.5-50.49-78.3-93.33-132.2-121.36-12.8-0.86-26.4-2.31-39.2 0.01-22.9 0.26-45.6 4.74-67.55 11.09 1.08-3.35 1.88-6.83 3.4-10.02 30.55-6.16 62.15-8.33 93.55-7.19-4.3-2.9-9.3-4.33-13.9-6.67-4.5-2.46-9.3-4.3-14.1-5.8-6.7-2.28-13.3-4.81-20-7.12-3.4-1.29-6.9-2.45-10.3-3.6 0.8-0.81 1-1.74 0.5-2.8z" fill="#95392a"/>
  <path d="m1207.9 271.56c-3.5-1.4-17.4-7.1-5.6-5.08 72.7 14.15 148 35.46 204.6 85.35 22.6 69.38 8.4 144.05-9.2 212.99-1.4-5.22-1.4-11.75-0.5-17.45 5.9-11.44 5.8-26.28 9.3-38.83 5.9-51.31 11.3-106.17-7.7-155.24-53.4-45.97-122.8-68.95-190.9-81.74z" fill="#aa513c"/>
  <path d="m582.28 270.82c1.91 10.63 0.53 21.69 0.03 32.44-0.35-10.81-0.47-21.63-0.03-32.44z" fill="#ddb9b4"/>
  <path d="m1029 271.14c6.7 2.31 13.3 4.84 20 7.12-18.2 0.71-36.3 1.09-54.31 3.24 2.08-3.06 4.46-5.87 6.91-8.67 9.1 1.54 18.2-1.78 27.4-1.69z" fill="#d38568"/>
  <path d="m1207.9 271.56c68.1 12.79 137.5 35.77 190.9 81.74 19 49.07 13.6 103.93 7.7 155.24-3.5 12.55-3.4 27.39-9.3 38.83-0.2-4.66-0.8-9.36-0.1-13.97 4.8-6.85 3.6-16.44 5-24.33 4.9-49.23 8.4-100.42-8.1-148.01-3-9.5-13.2-13.75-20.1-19.99-46.1-32.8-100.9-52.65-155.9-63.57-4-0.39-6.9-3.89-10.1-5.94z" fill="#be6a50"/>
  <path d="m1218 277.5c55 10.92 109.8 30.77 155.9 63.57 6.9 6.24 17.1 10.49 20.1 19.99 16.5 47.59 13 98.78 8.1 148.01-1.4 7.89-0.2 17.48-5 24.33-0.4-4.79 0.2-9.66-1.1-14.31 6.6-50.22 7.5-104.44-8.3-153.79-0.6-5.1-3.7-9.43-8.2-11.82-43.5-35.83-97.3-57.34-151.6-70.46-3.9-0.61-6.7-3.61-9.9-5.52z" fill="#d48869"/>
  <path d="m1049 278.26c4.8 1.5 9.6 3.34 14.1 5.8-24.8 1.02-49.7 0.47-74.19 5.72 1.15-3.24 3.22-6.01 5.78-8.28 18.01-2.15 36.11-2.53 54.31-3.24z" fill="#be6950"/>
  <path d="m1227.9 283.02c54.3 13.12 108.1 34.63 151.6 70.46 4.5 2.39 7.6 6.72 8.2 11.82 15.8 49.35 14.9 103.57 8.3 153.79-3.4-62.41-33.1-122.05-77.7-165.4-26.7-27.49-58.5-50.26-90.4-70.67z" fill="#eba680"/>
  <path d="m1063.1 284.06c4.6 2.34 9.6 3.77 13.9 6.67-31.4-1.14-63 1.03-93.55 7.19 1.57-2.86 3.59-5.45 5.46-8.14 24.49-5.25 49.39-4.7 74.19-5.72z" fill="#a94f3b"/>
  <path d="m1047.6 296.85c12.8-2.32 26.4-0.87 39.2-0.01-13 0.05-26.1 0.37-39.2 0.01z" fill="#e5b5af"/>
  <path d="m974.94 319.91c0.5-1.68 1.12-3.32 1.85-4.91 2.8 1.84 6.07 2.85 9.29 3.7-0.94 0.54-3.15 0.56-2.85 2.06 78.57 29.89 155.57 66.6 221.67 119.38 17.1 11.22 30.4 27.4 47.3 38.65 6.8 12.91 10.4 27.07 13.9 41.12-39-41.87-80.5-81.88-128-114.05-50-35.99-106.4-62.37-163.16-85.95z" fill="#c17661"/>
  <path d="m983.23 320.76c-0.3-1.5 1.91-1.52 2.85-2.06 80.82 23.75 159.32 56.6 231.52 100.34 1.1 0.83 1.6 0.55 1.4-0.84 12.8 19.19 24.2 39.31 33.2 60.59-16.9-11.25-30.2-27.43-47.3-38.65-66.1-52.78-143.1-89.49-221.67-119.38z" fill="#ba6e62"/>
  <path d="m974.94 319.91c56.76 23.58 113.16 49.96 163.16 85.95 47.5 32.17 89 72.18 128 114.05 7.1 16.69 9.1 35.23 10.9 53.16-72.6-111.03-180.2-199.67-302.94-250.02 0.23-1.07 0.52-2.11 0.88-3.14z" fill="#c67c63"/>
  <path d="m974.06 323.05c122.74 50.35 230.34 138.99 302.94 250.02 3.2 18.56 8.1 38.18 0.3 56.29-38-79.23-90.9-151.71-157.5-209.21-43.7-36.71-92.2-67.66-142.67-94.05-1.77-1.01-3.45-1.02-3.2 1.45-0.21 0.34-0.63 1.02-0.84 1.37 0.25-1.97 0.5-3.95 0.97-5.87z" fill="#cb8365"/>
  <path d="m973.93 327.55c-0.25-2.47 1.43-2.46 3.2-1.45 50.47 26.39 98.97 57.34 142.67 94.05 66.6 57.5 119.5 129.98 157.5 209.21-3.7 13.84-8.5 27.45-14.1 40.68-50.6-144.22-155.5-268.36-289.27-342.49z" fill="#d08a65"/>
  <path d="m973.93 327.55c133.77 74.13 238.67 198.27 289.27 342.49-6.5 12.52-12.1 25.44-18 38.26-32-106.94-84.8-209.64-164.1-289.42-32.9-33.15-68.4-63.82-108.33-88.29 0.08-0.42 0.24-1.26 0.32-1.67 0.21-0.35 0.63-1.03 0.84-1.37z" fill="#d49368"/>
  <path d="m406.39 374.93c39.83-19.27 81.88-33.85 124.37-45.99-33.71 14.1-69.85 23.45-102.77 40.02-6.89 2.65-13.71 9.26-21.6 5.97z" fill="#b6726b"/>
  <path d="m972.77 330.59c39.93 24.47 75.43 55.14 108.33 88.29 79.3 79.78 132.1 182.48 164.1 289.42-6.1 15.76-14.6 30.58-19.2 46.93-10.3-30.11-14-60.51-25.9-89.37-0.3-7.68-6.8-2.55-3.3-9.73-18-56.67-44.2-109.77-75.1-160.57-6.2-5.47-11.5-20.65-19.8-28.21-8.1 3.05 1.9-7.83-5.6-7.6-30.3-39.17-69.4-82.15-111.43-115.19-2.53-3.33-14.08-12.47-11.62-2.45-0.38 0.18-1.13 0.56-1.51 0.75 0.14-3.24 0.11-6.53 0.24-9.75 0.2-0.63 0.59-1.89 0.79-2.52z" fill="#d99a68"/>
  <path d="m973.25 342.11c-2.46-10.02 9.09-0.88 11.62 2.45 42.03 33.04 81.13 76.02 111.43 115.19 7.5-0.23-2.5 10.65 5.6 7.6 8.3 7.56 13.6 22.74 19.8 28.21 30.9 50.8 57.1 103.9 75.1 160.57-3.5 7.18 3 2.05 3.3 9.73 11.9 28.86 15.6 59.26 25.9 89.37-8.1 28.31-13.8 58.83-6.8 87.95 1 2.41 2.2 4.68 3.4 6.97 5 9.41 11.2 18.05 17.2 26.8 1 1.42 2.1 2.79 3.2 4.18 1.1 32.87 5.3 65.83 2.4 98.71 2.8 52.46-1.1 102.86-7.7 154.56 2.7 4.8-6.3 10.6-0.6 12-13.7 77.3-37.1 159-89.4 222.3-2.7 2.2-1.4 6.1-3.3 8.7-20.4 19.5-38.5 40.7-57 62-19.2 15-37.8 30.7-55 48-4.9 4.5-9.8 10.3-17 10.2 4 6.4-5.9 7.9-8.1 12.7-23.68 24.4-47.63 53.3-54.65 86.4-9.39 27.5-4.37 56.8-2.22 84.9 7.66 29.2 41.76 50.8 55.07 75.7 6 1.3 2.5 10.6 8.4 11.6 0.4 7.4 7.6 17.1-0.3 22.7-10.7 14-23.64 26.1-37.56 36.5-5.21 3.5-11.05 6-16.08 9.8-2.46 1.5-5.12 2.4-7.83 3.3 4.06-3.4 8.62-6.1 12.83-9.3 19.02-9.9 33.74-27.5 44.64-45.8 1.9-22.1-17.48-37.1-28.57-53.7-12.46-15.4-29.78-27.9-35.86-47.6-11.01-53.8-2.26-115.3 37.29-156.3 3.75-1.9-3.77-3.2 0.37-4.7 27.57-26.3 53.57-54.8 82.77-79.2 61.2-62.1 109.3-138.9 127.9-225.2 22.1-85.6 21.7-175.5 20.7-263.34-5.4-169.35-40.6-342.83-134-488.28-29.1-46.95-66.2-88.49-106.95-125.67z" fill="#de9f6a"/>
  <path d="m973.25 342.11c40.75 37.18 77.85 78.72 106.95 125.67 93.4 145.45 128.6 318.93 134 488.28 1 87.84 1.4 177.74-20.7 263.34-18.6 86.3-66.7 163.1-127.9 225.2-29.2 24.4-55.2 52.9-82.77 79.2-4.14 1.5 3.38 2.8-0.37 4.7-39.55 41-48.3 102.5-37.29 156.3 6.08 19.7 23.4 32.2 35.86 47.6 11.09 16.6 30.47 31.6 28.57 53.7-10.9 18.3-25.62 35.9-44.64 45.8 16.13-11.4 27.97-27.9 37.14-45.1 2.9-21.9-15.51-38.2-27.53-54.4-17.56-20.2-41.38-41-38.73-70.4-4.86-43.8 4.79-90.1 31.03-126.1 25.49-33.1 55.13-63.1 84.53-92.5 33.9-38.9 64.2-81.8 85-129 42.6-99 49.7-208.7 46.6-315.05 0.1-86.25-9.1-171.55-25.1-256.22-29.4-143.08-83.2-286.65-185.99-393.67-0.04-1.65-0.13-4.95-0.17-6.6 0.38-0.19 1.13-0.57 1.51-0.75z" fill="#e4a66a"/>
  <path d="m971.82 368.09c-1.37-8.37-1.09-16.85-0.08-25.23 0.04 1.65 0.13 4.95 0.17 6.6-0.03 6.21-0.15 12.41-0.09 18.63z" fill="#ba6845"/>
  <path d="m671.09 353.2c5.68-0.77 11.37-1.56 17.09-2.19-2.26 0.7-5.41 0.43-6.26 2.99-16.3 35.11-24.97 73.19-31.64 111.3-12.38 55.94-14.88 113.15-21.21 169.87-5.79-23.83-9.76-47.98-13.19-72.26-1.71-18.82-5.58-37.32-7.59-56.1-0.53-4.28-1.85-8.42-2.58-12.66 12.17-47.89 28.43-94.75 56.37-136.04 0.71-4.68 5.59-4.06 9.01-4.91z" fill="#e4a66a"/>
  <path d="m643.98 355.68c8.99-1.21 18-2.67 27.11-2.48-3.42 0.85-8.3 0.23-9.01 4.91-27.94 41.29-44.2 88.15-56.37 136.04-2.9-16.96-12.38-31.59-22.75-44.91 18.62-32.4 35.74-65.83 61.02-93.56z" fill="#de9f6a"/>
  <path d="m626.96 358.11c5.63-1.05 11.3-1.89 17.02-2.43-25.28 27.73-42.4 61.16-61.02 93.56-6.58-5.94-13.26-11.8-20.42-17.02-1.58-7.95 7.39-12.72 10.73-18.96 16.67-19.17 30.5-44.13 53.69-55.15z" fill="#da9a68"/>
  <path d="m596 360.83c10.21-2.28 20.59-2.4 30.96-2.72-23.19 11.02-37.02 35.98-53.69 55.15-3.34 6.24-12.31 11.01-10.73 18.96-8.04-4.89-15.78-10.22-23.78-15.16 17-20.51 37.11-38.7 57.24-56.23z" fill="#d39268"/>
  <path d="m216.97 359.85c6.9-1.78 14.06-0.9 21.01 0.08-7.01 0.04-14.01 0.06-21.01-0.08z" fill="#e9b9b4"/>
  <path d="m176.74 360.8c12.55-2.29 25.6 0.02 38.32-0.71-12.68 1.9-25.56 0.68-38.32 0.71z" fill="#aa7973"/>
  <path d="m215.06 360.09c0.48-0.06 1.43-0.18 1.91-0.24 7 0.14 14 0.12 21.01 0.08 4.05 0.42 8.13 0.94 12.23 0.95 9.53 0.12 19.06 0.12 28.59 0.3 5.75 0.76 11.56 0.73 17.36 0.64 28.7 3.33 57.56 5.33 86.11 9.89-3.03 0.04-6.84-0.52-7.28 3.13-97.56-13.48-197.43-17.33-294.99-1.88-32.53 6.18-62.43 32.66-67.09 66.27-10.01 26.29-6.21 55.36-2.81 82.6 10.3 74.85 35.05 146.61 54.09 219.48-0.04 3.98-2.49 12.72-4.45 4.61-20.37-65.88-40.02-132.17-54.07-199.73 0.17-3.13 0.53-6.35-0.43-9.35-1.32-10.32-3.81-20.48-4.26-30.9 0-13.65 0.06-27.28 0-40.92 2.55-32.14 16.34-65.91 45.41-82.67 12.22-5.2 24.1-11.77 37.43-13.69 3.39 0.22 6.93 0.67 10.26-0.26 15.42-4.81 31.85-4.67 47.75-6.66 8.78 0.3 17.58 0.6 26.32-0.52 2.87-0.1 5.71-0.33 8.59-0.42 12.76-0.03 25.64 1.19 38.32-0.71z" fill="#943c2f"/>
  <path d="m237.98 359.93c4.07 0.34 8.13 0.78 12.23 0.95-4.1-0.01-8.18-0.53-12.23-0.95z" fill="#a9786f"/>
  <path d="m141.83 361.74c8.74-1.06 17.55-0.83 26.32-0.52-8.74 1.12-17.54 0.82-26.32 0.52z" fill="#daa8a1"/>
  <path d="m278.8 361.18c5.79-0.15 11.6-0.17 17.36 0.64-5.8 0.09-11.61 0.12-17.36-0.64z" fill="#dda8a2"/>
  <path d="m565 365.89c10.03-3.27 20.56-4.13 31-5.06-20.13 17.53-40.24 35.72-57.24 56.23-7.09-3.12-14.02-6.57-20.84-10.25 12.46-16.4 31.52-27.29 47.08-40.92z" fill="#d08a65"/>
  <path d="m80 372.96c97.56-15.45 197.43-11.6 294.99 1.88 53.59 6.99 107.11 19.64 155.93 43.24 35.48 18.08 71.74 46.95 75.67 89.57 0.76 7.45 1.23 5.38 1.7-0.84 2.01 18.78 5.88 37.28 7.59 56.1-0.96 6.25-0.88 12.58 0.34 18.79 6.34 32.19 9.11 65.66 23.4 95.66 5.38 9.58 12.8 20.42 24.67 21.64 1.61 0.89 3.25 1.72 4.82 2.7 14.66 14.36 34.81 31.93 38.12 55.15 0.3-0.54 0.88-1.63 1.18-2.17 0.32 1.71 0.73 3.41 1.11 5.12-0.48 3.11-0.5 6.41-1.38 9.49l-0.11-0.93c-0.46-11.3-5.22-21.86-10.83-31.47-11.95-31.09-54.56-33.45-62.94-66.13-13.06-30.46-14.77-64.12-22.22-95.95l-0.1-0.89c-1.85-28.4-4.51-57.49-13.06-84.8-11.34-34.03-44.32-52.47-73.38-69.61-77.74-35.13-163.83-44.19-247.9-51.28-67.34-1.22-135.56-4.29-202.07 8.32-43.44 9.86-62.81 57.67-62.34 98.22 2.32 87.27 35.32 169.46 52.85 254.16 3-2.13 2.65-8.06 3.86-11.8 0.7-3.16 1.84-6.19 2.85-9.26 1.36-10.17 6.3-19.54 7.26-29.72 0.62 3.38 1.49 6.78 2.82 9.98-6.27 17.71-13.24 35.18-18.64 53.18-19.04-72.87-43.79-144.63-54.09-219.48-3.4-27.24-7.2-56.31 2.81-82.6 4.66-33.61 34.56-60.09 67.09-66.27z" fill="#a64e34"/>
  <path d="m476.77 392.02c27.76-12.76 58.73-18.22 88.23-26.13-15.56 13.63-34.62 24.52-47.08 40.92-13.56-5.39-27.12-10.73-41.15-14.79z" fill="#c98064"/>
  <path d="m75.53 376.55c66.51-12.61 134.73-9.54 202.07-8.32 84.07 7.09 170.16 16.15 247.9 51.28 29.06 17.14 62.04 35.58 73.38 69.61 8.55 27.31 11.21 56.4 13.06 84.8-3.83-22.65-5.92-45.51-10.72-67.91l-0.19-0.82c-6.14-27.63-26.24-49.63-49.26-64.97-69.63-42.49-152.02-55.73-231.85-64.14-78.4-9.53-158.14-9.35-236.4 1.39-26.52 3.33-46.75 24.87-56.54 48.57-14.57 45.43-4.49 93.55 5.05 138.94 12.47 45.2 24.22 90.73 33.25 136.79 1.85 4.69-0.25 12.4 4.62 15.36-1.21 3.74-0.86 9.67-3.86 11.8-17.53-84.7-50.53-166.89-52.85-254.16-0.47-40.55 18.9-88.36 62.34-98.22z" fill="#be6f49"/>
  <path d="m83.82 368.66c3.34-0.95 6.86-0.58 10.26-0.26-3.33 0.93-6.87 0.48-10.26 0.26z" fill="#cea6a3"/>
  <path d="m83.52 377.47c78.26-10.74 158-10.92 236.4-1.39 79.83 8.41 162.22 21.65 231.85 64.14 23.02 15.34 43.12 37.34 49.26 64.97-11.16-29.33-34.19-51.62-60.9-67.31-81.47-43.23-174.96-53.99-265.45-62.71-54.52-2.93-109.23-2.89-163.79 0.63-17.58 3.51-37.72 1.84-52.56 13.53-14.27 13.7-26.33 30.81-29.19 50.83-10.3 55.29 9.19 109.66 20.61 163.09 9.94 34.36 15.41 70.26 23 104.62-1.01 3.07-2.15 6.1-2.85 9.26-4.87-2.96-2.77-10.67-4.62-15.36-9.03-46.06-20.78-91.59-33.25-136.79-9.54-45.39-19.62-93.51-5.05-138.94 9.79-23.7 30.02-45.24 56.54-48.57z" fill="#d5905b"/>
  <path d="m850.6 403.08c-1.88-16.36 15.1-21.31 28.42-26.1-0.03 0.46-0.1 1.38-0.13 1.83-0.63 4.72-0.75 9.49-0.69 14.25-8.65 4.63-18.97 8.61-22.16 18.99-10.02 44.62-8.24 90.39-4.83 135.8 4.63 15.6 0.68 32.85 7.48 47.68 0.1 1.96-0.72 3.82-1.05 5.73 8.7 33.36 6.85 68.86 12.29 102.8-1.91 33.85 2.78 67.94 1.45 101.94 2.53 40.17 0.09 80.37 3.4 120.41-1.83 46.77 8.26 93.49 1.93 140.19-2.16 78.4-19 158.5-0.51 236.2 7.74 29.7 21.27 59.7 44.12 81 28.7 17.8 55.53-9.1 74.93-27.5 38.05-43.1 68.05-91.3 84.65-147.4 39.3-117.6 57.4-243.47 39.6-366.74-16.2-129.28-72.1-249.42-134.68-362.82 0.51-0.2 1.54-0.59 2.05-0.79 10.6 11.55 16.43 26.86 24.13 40.39 70.3 128.34 122.6 276.55 121.6 420.71 5.5 0.59-1.2 10.64 0.6 14.54 0.1 57.51-5.9 115.01-19 170.91 4 4.2-9.4 20.4-3.5 20.9-9.2 34.6-18.7 69.5-31 103.7-4.5 12.3-6.4 24.1-15.1 34.4 4 2.9-3.4 6.8-3.3 11.2-6.5 7-8.5 16.9-15.3 23.5 1.7 12.5-16.9 19.5-17.3 31.3-8.6 12.5-21.3 21.7-28.3 35.2-19.07 19.1-40.48 41.8-70.23 40.4-18.21-3.7-27.1-21.5-36.16-35.7-42.64-70.2-31.89-154.3-27.07-231.9-2.68-3 5.61-7.9-0.67-6.7 8.09-59.1 9.13-119.9 2.73-179.6-1.74-89.12-3.29-177.06-5.05-266.18-4.85-20.8-0.62-43.67-7.98-64.19 4.09-18.1-8.02-38.42-4.78-56.8-4.75-6.46-3.06-15.69-2.84-23.3-3.58-21.98-7.66-44.61-6.24-67.68-0.66-30.15-1.97-61.52 8.49-90.57z" fill="#ebb474"/>
  <path d="m878.2 393.06c-0.06-4.76 0.06-9.53 0.69-14.25-0.08 6.69 0.81 13.44-0.87 20.01 0.22-1.91 0.3-3.84 0.18-5.76z" fill="#b96f49"/>
  <path d="m960.01 389.64c2.59 0.13 5.04-0.38 7.68-0.65 18.22 15.25 40.01 34.96 36.81 61.26-6.23 22.28-30.48 30.11-50.98 32.02-20.94-8.48-45.13-17.18-56.57-38.26 14.22 15.8 33.5 26.32 53.65 32.43 18.95 0.23 45.8-8.05 47.25-30.56-2.3-23.78-20.05-42.05-37.84-56.24z" fill="#a64e34"/>
  <path d="m856.04 412.05c3.19-10.38 13.51-14.36 22.16-18.99 0.12 1.92 0.04 3.85-0.18 5.76-0.51 3.27-1.26 6.46-1.14 9.82-2.46 4.32-7.24 6.04-10.85 9.07-11.7 31.9-12.76 68.57-10.42 99.88 4.32 42.52 8.06 84.27 14.32 127.74 5.81 27.51 4.44 56.08 5.96 83.92 1.69 4.25-3.15 14.17 4 11.71-9.45 15.77 3.65 36.76-3.97 53.56 5.16-0.12-3.05 7.82 2.4 10.13-1.4 24.96 0.79 48.04-1.15 73.24-1.31 3.07 4.75-0.05 2.19 3.64-1.75 21.45 3.07 42.66 1.37 64.82 2.49 6.02 3.85 13.79 0.46 19.75 2.39 17.93 3.43 35.7 2.46 53.8 2.85 7-4.31 14.6 0.91 21-7.08 7.2-0.29 18.4-3.86 27.1-2.13 74.2-17.14 151.2 6.37 222.8 6.19 17.4 16.75 36.6 28.81 50.3 8.59 17.8 35.69 18.4 48.25 6 24.49-11.3 40.27-33.8 55.07-54.9 7.5-13.8 22.3-23.4 24.1-40 17-17.3 19.8-40.3 31.1-61.6 1.8-18.7 13.6-35.8 14.3-55.2 12.1-30.1 12.6-63.3 22.4-93.8-4.8-0.3 0.3-6.5 1.1-9 1.5-11.8 2.1-23.8 4.3-35.59-6.3-5.55 4.6-16.51-0.3-24.15 2.8-4.63 5.8-14.7 0.6-16.68-0.8-4.86 4.7-13.31 0.5-13.41 3.9-18.78 1.4-34.2 1.1-53.05-3-36.95-4.7-73.83-15.3-109.66 1.1-8.79-7-15.98-3.2-24.88-4-0.24-2.1-8.22-5.4-12.38-7.2-25.71-15.6-48.37-24-74.9-20-50.89-42.8-98.76-67.6-146.9-7.96-13.7-16.25-25.47-21-39.29 0.94-0.82 1.89-1.63 2.92-2.37 62.58 113.4 118.48 233.54 134.68 362.82 17.8 123.27-0.3 249.14-39.6 366.74-16.6 56.1-46.6 104.3-84.65 147.4-19.4 18.4-46.23 45.3-74.93 27.5-22.85-21.3-36.38-51.3-44.12-81-18.49-77.7-1.65-157.8 0.51-236.2 6.33-46.7-3.76-93.42-1.93-140.19-3.31-40.04-0.87-80.24-3.4-120.41 1.33-34-3.36-68.09-1.45-101.94-5.44-33.94-3.59-69.44-12.29-102.8 0.33-1.91 1.15-3.77 1.05-5.73-6.8-14.83-2.85-32.08-7.48-47.68-3.41-45.41-5.19-91.18 4.83-135.8z" fill="#ebb77c"/>
  <path d="m100.56 403.43c83.81-16.55 169.41-3.95 252.77 9.22 52.58 12.67 107.18 24.54 152.73 55.28 19.15 12.81 38.04 33.62 34.32 58.48 1.39 38.32-7.4 76.17-5.88 114.49 0.34 47.34 0.32 98.71 26.1 140.5 13.96 27.41 40.95 45.04 69.37 54.61-4.8-0.6-9.74-0.9-14.16-3.08-58.06-19.81-86.06-83.33-86.57-141.02-6.35-56.35 6.31-112.08 7.42-168.22-0.35-26.37-22.61-45.61-44.21-57.12-43.88-25.56-93.95-37.89-143.01-49.02-81.24-13.92-166.25-26.18-247.57-7.67-13.67 3.79-27.26 9.62-37.71 19.4-7.58 15.18-6.34 32.95-11.05 48.97 0.76-17.88-0.99-36.8 6.61-53.51 9.14-13.62 26.44-16.41 40.84-21.31z" fill="#d58f5b"/>
  <path d="m101.87 409.88c81.32-18.51 166.33-6.25 247.57 7.67 49.06 11.13 99.13 23.46 143.01 49.02 21.6 11.51 43.86 30.75 44.21 57.12-1.11 56.14-13.77 111.87-7.42 168.22 0.51 57.69 28.51 121.21 86.57 141.02-2.51-0.31-5.03-0.45-7.55-0.53-1.67-0.83-3.31-1.7-4.98-2.52-46.42-17.41-72.99-65.2-78.84-112.45-5.53-47.25-3.44-95.06 4.08-142.02 1.02-20.94 8.15-42.1 2.03-62.88-4.93-12.99-15.23-22.77-25.61-31.5-37.95-27.67-84.04-40.12-128.5-53-74.62-14.49-151.11-27.5-227.23-18.91-15.8-0.83-31.61-1.22-47.34 0.76z" fill="#be6f49"/>
  <path d="m1424.2 403.65c2 6.36 0.4 13.16 0.6 19.71-2-6.35-0.4-13.19-0.6-19.71z" fill="#dba9a0"/>
  <path d="m149.21 409.12c76.12-8.59 152.61 4.42 227.23 18.91 44.46 12.88 90.55 25.33 128.5 53 10.38 8.73 20.68 18.51 25.61 31.5 6.12 20.78-1.01 41.94-2.03 62.88-7.52 46.96-9.61 94.77-4.08 142.02 5.85 47.25 32.42 95.04 78.84 112.45-34.47-6.06-60.45-37.24-74.1-68.07-26.91-73.89-10.55-153.29 0.49-228.6-0.63-33.01-31.3-52.98-57.65-66.22-93.32-39.63-195.7-57.5-296.84-54.78-8.82 1.52-17.72 0.21-25.97-3.09z" fill="#a74e34"/>
  <path d="m101.87 409.88c15.73-1.98 31.54-1.59 47.34-0.76 8.25 3.3 17.15 4.61 25.97 3.09 101.14-2.72 203.52 15.15 296.84 54.78 26.35 13.24 57.02 33.21 57.65 66.22-11.04 75.31-27.4 154.71-0.49 228.6 13.65 30.83 39.63 62.01 74.1 68.07 1.67 0.82 3.31 1.69 4.98 2.52-1.11 0.24-2.22 0.48-3.32 0.73-12.04-3.16-23.78-7.45-34.83-13.19-26.29-15.77-44.21-42.29-53.12-71.21-4.51-12.54-5.1-25.85-7.99-38.72-0.75-10.12 1.45-20.48-0.73-30.45-3.31-45.82 7.8-91.04 15.34-135.95 4.11-10.63 0.63-22.36-4.67-31.87-7.3-10.87-16.99-19.86-27.96-26.91-9.33-6.47-19.69-11.2-29.83-16.21-8.81-4.16-17.94-7.61-27.08-10.96-10.32-3.19-20.14-8.09-30.84-9.96-9.73-3.95-20.1-5.78-30.07-8.97-18.15 1.71-33.74 15.68-50.14 23.3-18.23 8.21-35.38 18.55-52.98 27.98-23.32 11.92-46.05 24.95-68.31 38.76 35.39-37.36 75.86-69.88 118.31-99.03-3.38-1.66-7.33-1.9-11.02-2.53-21.92-3.01-43.57-8.52-65.83-8.38-4.42-0.53-8.85-0.57-13.29-0.61-3.65-0.4-7.31-0.81-10.95-1.2-13.51-1.6-27.41-1.8-40.91-0.12-3.22 0.75-6.53 0.98-9.8 1.42-3.54-0.56-7.13-0.49-10.6 0.39-20.4 0.57-40.18 7.91-58.59 16.3-18.68 7.61-15.11 30.15-19.02 46.13-1.19 5.21-1.63 10.59-0.22 15.82 0.13 5.07-0.5 10.33 0.89 15.3 4.09 36.29 17.62 71.35 39.41 100.72 1.06 1.19 2.24 2.28 3.34 3.45-16.03 20.67-28.81 47.23-40.62 71.7-1.33-3.2-2.2-6.6-2.82-9.98-11.2-47.84-23.96-95.56-27.3-144.83 0.42-9.54 0.29-19.07 0.09-28.59 0.16-8.83 0.27-17.66 0.31-26.48 4.71-16.02 3.47-33.79 11.05-48.97 10.45-9.78 24.04-15.61 37.71-19.4z" fill="#943426"/>
  <path d="m866.03 417.71c3.61-3.03 8.39-4.75 10.85-9.07 1.88 4.83 4.11 9.51 6.01 14.34-10.58 3.42-14.53 14.6-16.46 24.49-17.4 90.99 14.97 181.53 14.07 272.42 3.7 85.61 1.26 171.48 8.51 256.87 2.74 91.14-22.49 183.44-0.36 273.54 6.41 22.4 18.44 42.9 32.8 61.2 9.25 9 23.77 12.3 35.62 6.7 44.73-23.2 70.23-68.8 94.13-111 48.2-109.6 68-232.13 59-351.58-10.7-133.29-67.6-257.28-133.44-371.74 1.7-0.73 3.42-1.44 5.14-2.17 4.75 13.82 13.04 25.59 21 39.29 24.8 48.14 47.6 96.01 67.6 146.9 8.4 26.53 16.8 49.19 24 74.9 3.3 4.16 1.4 12.14 5.4 12.38-3.8 8.9 4.3 16.09 3.2 24.88 10.6 35.83 12.3 72.71 15.3 109.66 0.3 18.85 2.8 34.27-1.1 53.05 4.2 0.1-1.3 8.55-0.5 13.41 5.2 1.98 2.2 12.05-0.6 16.68 4.9 7.64-6 18.6 0.3 24.15-2.2 11.79-2.8 23.79-4.3 35.59-0.8 2.5-5.9 8.7-1.1 9-9.8 30.5-10.3 63.7-22.4 93.8-0.7 19.4-12.5 36.5-14.3 55.2-11.3 21.3-14.1 44.3-31.1 61.6-1.8 16.6-16.6 26.2-24.1 40-14.8 21.1-30.58 43.6-55.07 54.9-12.56 12.4-39.66 11.8-48.25-6-12.06-13.7-22.62-32.9-28.81-50.3-23.51-71.6-8.5-148.6-6.37-222.8 3.57-8.7-3.22-19.9 3.86-27.1-5.22-6.4 1.94-14-0.91-21 0.97-18.1-0.07-35.87-2.46-53.8 3.39-5.96 2.03-13.73-0.46-19.75 1.7-22.16-3.12-43.37-1.37-64.82 2.56-3.69-3.5-0.57-2.19-3.64 1.94-25.2-0.25-48.28 1.15-73.24-5.45-2.31 2.76-10.25-2.4-10.13 7.62-16.8-5.48-37.79 3.97-53.56-7.15 2.46-2.31-7.46-4-11.71-1.52-27.84-0.15-56.41-5.96-83.92-6.26-43.47-10-85.22-14.32-127.74-2.34-31.31-1.28-67.98 10.42-99.88z" fill="#ecb984"/>
  <path d="m178.04 416.9c13.5-1.68 27.4-1.48 40.91 0.12-13.64-0.19-27.28 0.18-40.91-0.12z" fill="#ab6c62"/>
  <path d="m157.64 418.71c3.47-0.88 7.06-0.95 10.6-0.39-3.45 0.96-7.05 0.8-10.6 0.39z" fill="#bb8079"/>
  <path d="m229.9 418.22c4.44 0.04 8.87 0.08 13.29 0.61-4.43-0.04-8.88-0.23-13.29-0.61z" fill="#bd8077"/>
  <path d="m866.43 447.47c1.93-9.89 5.88-21.07 16.46-24.49 1.61 4.02 3.24 8.03 5.07 11.96-6.59 7.39-15.91 15.26-15.08 25.88-2.92 8.77 0.48 19.12-5.31 26.97 5.34 1.86-4.1 7.91 1.92 6.4-4.91 37.79 4.04 78.74 7.32 119.35 5.15 0.79 0.34 6.66 0.95 10 3.89 5.69 3.66 15.98 4.57 24.24-0.08 3.69-3.79 11.66 2.34 11.65 3.19 0.23-0.75 3.27-2.17 3.79 5.32 9.45-2.49 22.89 4.84 33.31-4.41 26.43 3.86 54.13-1.53 80.01 3.35 19.6 4.03 39.38 4.42 59.08-2.86 10.8-0.15 16.95 0.03 28.66-0.54 3.55-4.57 10.34 1.99 10.36-5.01 6.38-1.14 14.45-1.69 21.77 3.99 17.74-2.87 36.4 2.51 53.73 6.07 3.11-5.08 6.16 3.15 7.57-6.76 6.19-1.2 18.99-1.15 24.9-5.63-1.38-1.23 5.68-0.6 8.26-3.49 19.73-1.46 40.93-4.83 61.13 1.76 7.7-3.59 20.4 0.08 23.1-4.57 20.1-3.57 43.6-4.17 62.5 7.17 1.2-2.5 2.2-1.21 6.7-0.07 15.4 2.08 26.6 1.76 41.4 6.12-1.9-0.69 5.3 1.96 8.4 5.02 9 1.43 20.7 8.45 27.9-0.74 3.5 1.88 12.9 6.61 8.2-5.17 8.1 5.61 14 1.9 22.6 3.28-6.8 7.28 4.6 7.59 7.4 8.11 10.6 15.45 21.2 26.88 26 26.69-0.2 47.76-21.2 64.21-39.5 0.7-1.5 1.7-5.2 4.6-9.5 12.1-8.5 15.6-24.5 26.6-34.2 5.2-16.2 18.4-30.2 21.9-46.3 3-1.9 6.8-6.1 3-9.2 6.9-8.5 2.9-24.9 13.6-30.8 0.3-14.5 6-28.5 12-40.4-1.8 0-5.2 1.3-3.8-1.8 9-8.9 2.5-23.9 9.7-33.7 0.5-10.8 0.9-23 8.1-31.6-11 5.1 4.9-11.47-2.6-14.6 2.5-3.81 10.6-25.98 0.9-18.97 8.5-13.92 4.9-30.12 6.7-45.46-4.9-3.92 9.2-18.97 1-21.12 3.3-16.3 0.5-30.51-1.1-45.31 0.9-24.7-4.5-44.93-5.7-69.19-6.9-22.96-12.4-47.56-16.9-72.18-8.7 2.89 0.7-9.86-5.9-13.02-23.5-77.49-61-149.46-100.7-218.82 0.14-4.3-4.62-3.3-7.37-4.5 2.97-0.74 6.03-1.4 9.03-2.15 65.84 114.46 122.74 238.45 133.44 371.74 9 119.45-10.8 241.98-59 351.58-23.9 42.2-49.4 87.8-94.13 111-11.85 5.6-26.37 2.3-35.62-6.7-14.36-18.3-26.39-38.8-32.8-61.2-22.13-90.1 3.1-182.4 0.36-273.54-7.25-85.39-4.81-171.26-8.51-256.87 0.9-90.89-31.47-181.43-14.07-272.42z" fill="#eec08e"/>
  <path d="m309.02 427.21c3.69 0.63 7.64 0.87 11.02 2.53-42.45 29.15-82.92 61.67-118.31 99.03 22.26-13.81 44.99-26.84 68.31-38.76-53.27 54.04-98.71 116.45-128.14 186.89-39.35 91.13-52.28 191.94-46.39 290.55 3.8 52.05 5.96 104.65 19.95 155.15 20.58 76.8 59.5 149.4 116.41 205.5 69.36 71.1 157.84 118.7 239.89 173.1 50.48 32.6 101.58 77.3 111.5 139.7 1.3 23 5.71 49.4-9.25 69.1-13.71 15-26.71 31.5-43.04 43.2-1.07-6.4-1.42-12.9 0.08-19.3-3.65 1.4-7.31 2.9-11.01 4.1 11.86-14.8 27.76-27.2 34.37-45.8 7.6-40.5-0.74-85.6-28.27-117.3-28.08-37.7-68.55-62.9-108.12-86.9-99.77-59.4-206.6-115.2-279.89-208.1-58.18-69.4-89.02-158.4-97.32-247.7-0.31-3.8-0.5-7.6-0.57-11.4-0.46-17.6-3.53-35.01-4.49-52.57 0.35-7.17 0.34-14.35-0.53-21.46-0.26-13.54-0.46-27.08-0.06-40.6 0.76-5.45 0.7-10.94 0.57-16.39 2.52-48.67 9.84-97.17 24.01-143.86 1.96 8.11 4.41-0.63 4.45-4.61 5.4-18 12.37-35.47 18.64-53.18 11.81-24.47 24.59-51.03 40.62-71.7-1.1-1.17-2.28-2.26-3.34-3.45 31.81-49.24 71.31-93 115.72-131.16 23.03-19.99 49.33-35.7 73.19-54.61z" fill="#b76861"/>
  <path d="m872.88 460.82c-0.83-10.62 8.49-18.49 15.08-25.88 2.29 4.29 4.47 8.68 7.23 12.7-22.26 14.31-17.16 44.44-19.69 67.04-1.19 58.46 11.83 118.31 15.82 177.15 1.65 56.68 3.34 111.39 4.04 168.79 2.59 25.96-0.74 52.17 4.13 77.95 0.16 34.48-0.21 69.03-4.81 102.83-3.18 55.7-10.44 113.5 11.9 166 9.19 15.6 16.21 35.5 34.4 42.7 22.07 4.9 38.02-14.4 53.74-26.4 27.18-35.3 54.68-72.7 66.28-116.7 27.7-81.8 41.6-169.1 37.4-255.38-3.4-66.19-21-135.39-46.3-198.66-22.6-58.37-54.67-113.42-84.37-166.93 2.75 1.2 7.51 0.2 7.37 4.5 39.7 69.36 77.2 141.33 100.7 218.82 6.6 3.16-2.8 15.91 5.9 13.02 4.5 24.62 10 49.22 16.9 72.18 1.2 24.26 6.6 44.49 5.7 69.19 1.6 14.8 4.4 29.01 1.1 45.31 8.2 2.15-5.9 17.2-1 21.12-1.8 15.34 1.8 31.54-6.7 45.46 9.7-7.01 1.6 15.16-0.9 18.97 7.5 3.13-8.4 19.7 2.6 14.6-7.2 8.6-7.6 20.8-8.1 31.6-7.2 9.8-0.7 24.8-9.7 33.7-1.4 3.1 2 1.8 3.8 1.8-6 11.9-11.7 25.9-12 40.4-10.7 5.9-6.7 22.3-13.6 30.8 3.8 3.1 0 7.3-3 9.2-3.5 16.1-16.7 30.1-21.9 46.3-11 9.7-14.5 25.7-26.6 34.2-2.9 4.3-3.9 8-4.6 9.5-16.45 18.3-37.52 39.3-64.21 39.5-11.43-4.8-18.77-15.4-26.88-26-0.31-2.8-4.31-14.2-7.59-7.4 3.71-8.6-7.07-14.5-1.9-22.6-4.73 4.7-7.35-4.7-6.61-8.2-7.02-7.2-3.43-18.9-8.45-27.9-2.65-3.1 4.16-10.3-1.96-8.4 0.32-14.8-1.83-26-1.76-41.4-1.29-4.5 8.38-5.5 1.21-6.7 0.6-18.9-0.4-42.4 4.17-62.5-3.67-2.7 1.68-15.4-0.08-23.1 3.37-20.2 1.34-41.4 4.83-61.13-0.63-2.58-5.03-9.64 0.6-8.26-0.05-5.91-5.61-18.71 1.15-24.9-8.23-1.41 2.92-4.46-3.15-7.57-5.38-17.33 1.48-35.99-2.51-53.73 0.55-7.32-3.32-15.39 1.69-21.77-6.56-0.02-2.53-6.81-1.99-10.36-0.18-11.71-2.89-17.86-0.03-28.66-0.39-19.7-1.07-39.48-4.42-59.08 5.39-25.88-2.88-53.58 1.53-80.01-7.33-10.42 0.48-23.86-4.84-33.31 1.42-0.52 5.36-3.56 2.17-3.79-6.13 0.01-2.42-7.96-2.34-11.65-0.91-8.26-0.68-18.55-4.57-24.24-0.61-3.34 4.2-9.21-0.95-10-3.28-40.61-12.23-81.56-7.32-119.35-6.02 1.51 3.42-4.54-1.92-6.4 5.79-7.85 2.39-18.2 5.31-26.97z" fill="#eec393"/>
  <path d="m323.02 462.03c16.4-7.62 31.99-21.59 50.14-23.3-73.31 56.32-132.55 132.07-167.64 217.79-40.44 92.24-54.77 194.43-51.17 294.67 3.77 76.91 7.52 155.61 36.43 228.01 18.24 51.8 47.42 99.3 82.83 141.2 63.55 73.2 147.9 123.4 226.51 178.5 30.8 19.6 58.31 44.5 80.65 73.3 26.33 32.7 33.76 76.7 30.01 117.6-10.3 39.3-56.18 55.6-68.01 94.2-6.11-9.3-10.12-19.8-11.8-30.8 16.33-11.7 29.33-28.2 43.04-43.2 14.96-19.7 10.55-46.1 9.25-69.1-9.92-62.4-61.02-107.1-111.5-139.7-82.05-54.4-170.53-102-239.89-173.1-56.91-56.1-95.83-128.7-116.41-205.5-13.99-50.5-16.15-103.1-19.95-155.15-5.89-98.61 7.04-199.42 46.39-290.55 29.43-70.44 74.87-132.85 128.14-186.89 17.6-9.43 34.75-19.77 52.98-27.98z" fill="#bc6e61"/>
  <path d="m205.52 656.52c35.09-85.72 94.33-161.47 167.64-217.79 9.97 3.19 20.34 5.02 30.07 8.97-16.75 13.27-33.86 30.03-46.54 45.68-75.16 87.14-120.76 198.87-135.14 312.96-12.01 78.8-7.58 157.09-2.01 236.06 3.35 18.2 2.48 37.3 8.44 55.2 2.09 31.9 15.36 61.4 23.54 92 22.9 64.9 62.49 123.6 110.97 171.9 53.16 54.8 118.47 96.1 179.39 142.1 34.18 29.1 71.38 60.2 86.95 104.6 9.53 23.7 12.41 49.6 10.88 75 1.2 24.3-21.91 38.4-34.19 56.3-14.96 15.2-37.37 33.5-33.65 56.5 41.51 28.9 89.28 49.5 139.16 58.1 5.75-2 4.5 4.1 9.22 2.5 34.75 4.6 69.98 9.5 104.98 7.6 9.67 1 19.37-1.1 28.98-2 7.86-0.3 15.67-1.1 23.53-1.4 1.1 0.3 2.22 0.7 3.34 1-10.15 2.2-20.5 3.1-30.78 4.4-5.23 0-10.56-1.1-15.63 0.5-5.77 0.5-11.55 1-17.31 1.5-0.98-1.1-1.83-2.5-3.47-2-40.38 2.6-80.79-3.1-120.48-9.2-53.84-13-116.57-24.5-150.64-73 11.83-38.6 57.71-54.9 68.01-94.2 3.75-40.9-3.68-84.9-30.01-117.6-22.34-28.8-49.85-53.7-80.65-73.3-78.61-55.1-162.96-105.3-226.51-178.5-35.41-41.9-64.59-89.4-82.83-141.2-28.91-72.4-32.66-151.1-36.43-228.01-3.6-100.24 10.73-202.43 51.17-294.67z" fill="#c17762"/>
  <path d="m356.69 493.38c12.68-15.65 29.79-32.41 46.54-45.68 10.7 1.87 20.52 6.77 30.84 9.96-37.79 30.5-60.46 75.19-85.68 115.83-68.64 135.68-86.27 292.61-71.02 442.61 4.18 134.7 52.18 272.6 152.41 366.1 62.17 65.7 145.36 108.7 201.84 180.2 22.85 31 35.73 69.5 34.78 108.2 7.04 39.9-32.5 62.9-53.19 90.6-6.72 9.9-14.5 21.1-11.54 33.6 62.46 50.7 145.48 65.9 223.56 69.4-35 1.9-70.23-3-104.98-7.6-4.72 1.6-3.47-4.5-9.22-2.5-49.88-8.6-97.65-29.2-139.16-58.1-3.72-23 18.69-41.3 33.65-56.5 12.28-17.9 35.39-32 34.19-56.3 1.53-25.4-1.35-51.3-10.88-75-15.57-44.4-52.77-75.5-86.95-104.6-60.92-46-126.23-87.3-179.39-142.1-48.48-48.3-88.07-107-110.97-171.9-8.18-30.6-21.45-60.1-23.54-92-5.96-17.9-5.09-37-8.44-55.2-5.57-78.97-10-157.26 2.01-236.06 14.38-114.09 59.98-225.82 135.14-312.96z" fill="#c67c63"/>
  <path d="m875.5 514.68c2.53-22.6-2.57-52.73 19.69-67.04 3.51 4.75 7.46 9.18 11.72 13.3-21.71 1.96-21.37 30.09-25.03 46.87-4.36 69.47 16.07 137.51 15.78 206.56 2.88 72.56 0.94 144.35 6.77 217.62 1.62 52.39-8.87 104.51-7.36 157.11-2.27 41.5 6.93 84.3 33.57 117.2 6.76 10.2 21.81 11.3 32.21 6.6 21.78-10.4 38.25-29.1 50.65-49.3 22.7-25.4 34.3-58.2 45.4-89.7 22.5-69.2 33.5-142.19 33.1-214.99-1.4-123.38-53.2-239.12-113.69-344.15-6-9.04-9.73-21.89-19.34-27.03 2.78-1.2 5.71-1.62 8.76-1.7 29.7 53.51 61.77 108.56 84.37 166.93 25.3 63.27 42.9 132.47 46.3 198.66 4.2 86.28-9.7 173.58-37.4 255.38-11.6 44-39.1 81.4-66.28 116.7-15.72 12-31.67 31.3-53.74 26.4-18.19-7.2-25.21-27.1-34.4-42.7-22.34-52.5-15.08-110.3-11.9-166 4.6-33.8 4.97-68.35 4.81-102.83-4.87-25.78-1.54-51.99-4.13-77.95-0.7-57.4-2.39-112.11-4.04-168.79-3.99-58.84-17.01-118.69-15.82-177.15z" fill="#f0c79c"/>
  <path d="m1422.1 458.05c0.1-3.38 0.2-6.78 0.8-10.1 0 3.39-0.4 6.72-0.8 10.1z" fill="#ca938a"/>
  <path d="m348.39 573.49c25.22-40.64 47.89-85.33 85.68-115.83 9.14 3.35 18.27 6.8 27.08 10.96-14.96 14.48-22.53 34.82-35.82 50.74-94.58 164.83-104.01 362.77-84.53 547.54 11.57 117.5 56.6 235.1 140.35 321 38.57 41.2 82.69 76.6 124.67 114.3 50.84 41.2 90.42 102 88.27 169.7 6.62 36.8-26.9 61.3-49.24 85-6.89 11.1-18.37 24.4-12.09 38.3 60.53 52 143.67 68.4 221.45 67-9.61 0.9-19.31 3-28.98 2-78.08-3.5-161.1-18.7-223.56-69.4-2.96-12.5 4.82-23.7 11.54-33.6 20.69-27.7 60.23-50.7 53.19-90.6 0.95-38.7-11.93-77.2-34.78-108.2-56.48-71.5-139.67-114.5-201.84-180.2-100.23-93.5-148.23-231.4-152.41-366.1-15.25-150 2.38-306.93 71.02-442.61z" fill="#cb8365"/>
  <path d="m881.88 507.81c3.66-16.78 3.32-44.91 25.03-46.87 15.12 12.63 33.57 20.59 52.06 26.79 9.61 5.14 13.34 17.99 19.34 27.03 60.49 105.03 112.29 220.77 113.69 344.15 0.4 72.8-10.6 145.79-33.1 214.99-11.1 31.5-22.7 64.3-45.4 89.7-12.4 20.2-28.87 38.9-50.65 49.3-10.4 4.7-25.45 3.6-32.21-6.6-26.64-32.9-35.84-75.7-33.57-117.2-1.51-52.6 8.98-104.72 7.36-157.11-5.83-73.27-3.89-145.06-6.77-217.62 0.29-69.05-20.14-137.09-15.78-206.56z" fill="#f0cea6"/>
  <path d="m0 465.16l0.98-0.14c0.06 13.64 0 27.27 0 40.92l-0.98-0.05v-40.73z" fill="#d7b3ad"/>
  <path d="m425.33 519.36c13.29-15.92 20.86-36.26 35.82-50.74 10.14 5.01 20.5 9.74 29.83 16.21-16.31 21.57-28.67 47.83-38.39 73.8-44.68 103.58-58.66 217.71-61.14 329.44-1.73 43.99 1 89.76 5.12 134.23 3.43 103.1 27.15 208.1 81.05 297.1 34.62 61.8 86.92 110.8 137.55 159.4 52.29 46.8 102.64 106.1 105.82 179.2 2.14 21.8 2.9 47.4-14.74 63.3-13.85 23.6-48.47 39.2-45.18 70.4 33.58 36.4 82.68 53.5 129.69 64.6 26.52 0.7 53.1 8.8 79.58 3 9.38-0.8 18.86-1 28.09-3 1.51-0.1 3.03-0.2 4.55-0.4-7.67 4-17.1 1.9-25.24 4.9-7.86 0.3-15.67 1.1-23.53 1.4-77.78 1.4-160.92-15-221.45-67-6.28-13.9 5.2-27.2 12.09-38.3 22.34-23.7 55.86-48.2 49.24-85 2.15-67.7-37.43-128.5-88.27-169.7-41.98-37.7-86.1-73.1-124.67-114.3-83.75-85.9-128.78-203.5-140.35-321-19.48-184.77-10.05-382.71 84.53-547.54z" fill="#d08a65"/>
  <path d="m79.81 496.96c-1.41-5.23-0.97-10.61 0.22-15.82-0.16 5.27-0.2 10.53-0.22 15.82z" fill="#966158"/>
  <path d="m452.59 558.63c9.72-25.97 22.08-52.23 38.39-73.8 10.97 7.05 20.66 16.04 27.96 26.91-22.68 43.4-35.42 91.86-45.47 139.64-25.64 122.09-26.65 248-16.98 371.92 5.26 130.8 36.8 266.6 121.16 370 39.34 54.1 91.46 97.3 130.62 151.5 30.94 44.1 45.91 99.6 40.01 153.3-11.65 33.6-50.83 50.1-57.86 86.3-0.03 12.2 12.24 19.7 20.58 26.6 44.41 35.9 103.25 49.5 159.34 48.3-26.48 5.8-53.06-2.3-79.58-3-47.01-11.1-96.11-28.2-129.69-64.6-3.29-31.2 31.33-46.8 45.18-70.4 17.64-15.9 16.88-41.5 14.74-63.3-3.18-73.1-53.53-132.4-105.82-179.2-50.63-48.6-102.93-97.6-137.55-159.4-53.9-89-77.62-194-81.05-297.1-4.12-44.47-6.85-90.24-5.12-134.23 2.48-111.73 16.46-225.86 61.14-329.44z" fill="#d49368"/>
  <path d="m79.81 496.96c3.15 4.34 0.1 10.35 0.89 15.3-1.39-4.97-0.76-10.23-0.89-15.3z" fill="#d6a09a"/>
  <path d="m52.71 533.32c-2.03-9.39-0.47-19.13 0.09-28.59 0.2 9.52 0.33 19.05-0.09 28.59z" fill="#c47a4d"/>
  <path d="m601.22 506.01c4.8 22.4 6.89 45.26 10.72 67.91l0.1 0.89c1.09 29.8 7.78 59.19 15.1 88.04 5.98 13.8 11.36 31.52 26.88 37.1 17.38 8.48 30.96 22.41 43.18 36.94 5.61 9.61 10.37 20.17 10.83 31.47-8.42-32.74-35.03-57.5-64.71-71.63-15.69-13.41-19.19-34.89-24.29-53.76-8.07-45.27-13.56-91.16-17.81-136.96z" fill="#d48f5b"/>
  <path d="m473.47 651.38c10.05-47.78 22.79-96.24 45.47-139.64 5.3 9.51 8.78 21.24 4.67 31.87-7.54 44.91-18.65 90.13-15.34 135.95 0.96 9.94-2.65 20.94 0.73 30.45 2.89 12.87 3.48 26.18 7.99 38.72-6.34 5.52-1.64 17.59-3.18 25.57-0.86 3.87-4.59 12.75 2.26 10.89-1.35 1.26-2.88 2.34-4.08 3.78 0.42 30.97-4.02 62.89-2.5 94.44 1.77 39.57 1.34 83.65 4.67 120.29 4.64 27.5 0.32 57.7 6.11 85 9.89 97.1 35.62 200 89.02 285 22.29 34.5 43.94 64.2 71.3 94.7 0.96 6.8 8.93-1.9 4.86 6.4 10 11.9 21.8 28.1 31.03 37.5 3.87 0.8 6.29 16.4 13.38 11.7-0.91 1.3-1.92 2.5-2.68 4 24.74 34.4 42.84 74.7 46.7 117.1 2.32 14.7 8.02 43-1.3 60.5-11.8 31.6-49.77 46.5-53.09 81.9 11.89 21.2 33.44 34.9 54 47 15.18 10.1 34.28 11 50.4 18.8 2.99 2.6 6.83-5.2 7.42 0.6 15.65 3.1 33.35 5 49.81 2.9 3.49-0.5 6.97-0.8 10.5-1 1.7 0.2 5.11 0.4 6.81 0.5-9.23 2-18.71 2.2-28.09 3-56.09 1.2-114.93-12.4-159.34-48.3-8.34-6.9-20.61-14.4-20.58-26.6 7.03-36.2 46.21-52.7 57.86-86.3 5.9-53.7-9.07-109.2-40.01-153.3-39.16-54.2-91.28-97.4-130.62-151.5-84.36-103.4-115.9-239.2-121.16-370-9.67-123.92-8.66-249.83 16.98-371.92z" fill="#da9a68"/>
  <path d="m5.24 536.84c0.96 3 0.6 6.22 0.43 9.35-0.78-3.04-0.47-6.28-0.43-9.35z" fill="#eab9b2"/>
  <path d="m616.22 581.7c-1.22-6.21-1.3-12.54-0.34-18.79 3.43 24.28 7.4 48.43 13.19 72.26 6.47 23.16 12.47 51.02 35.22 63.83-11.87-1.22-19.29-12.06-24.67-21.64-14.29-30-17.06-63.47-23.4-95.66z" fill="#973e26"/>
  <path d="m612.04 574.81c7.45 31.83 9.16 65.49 22.22 95.95 8.38 32.68 50.99 35.04 62.94 66.13-12.22-14.53-25.8-28.46-43.18-36.94-15.52-5.58-20.9-23.3-26.88-37.1-7.32-28.85-14.01-58.24-15.1-88.04z" fill="#be6f49"/>
  <path d="m1389 613.88c5.3-11.03 2.6-23.81 7-34.9 62.4 79.61 96.6 179.49 105.3 279.72 0 4.43-0.9 9.23 0.5 13.56 0.1 6.12 0.6 12.21 1.2 18.32v37.82c-0.4 4.8-1 9.64-1.2 14.49-0.4 3.34-0.6 6.81-0.7 10.21-5.4 101.1-23.8 204.8-80.2 290.8-50.5 81.8-129.6 140.8-209.9 191.1-62.5 36.1-128.4 68.7-181 119-29.9 31.2-44.07 78.9-29.5 120.4-3.33 20.7 14.2 37.2 26.4 51.7 17.5 21.8 45.5 41.3 44.9 72.3-14 8.1-28 16.2-42.7 23 6.8-13.4 27.7-14.9 36.7-26.7-6.5-45.5-57-66.2-71.6-108-1.16-22.8-8.12-45.3-3.78-68.3 7.72-52 53.28-85.1 92.38-114.6 107.4-65.5 224.2-126.7 296.4-233.6 76.6-110.6 91.5-249.7 90.4-380.84-1.1-62.04-13.4-123.7-35.2-181.82-11.3-32.81-25.9-64.92-45.4-93.66z" fill="#b76a62"/>
  <path d="m1389 613.88c19.5 28.74 34.1 60.85 45.4 93.66 21.8 58.12 34.1 119.78 35.2 181.82 1.1 131.14-13.8 270.24-90.4 380.84-72.2 106.9-189 168.1-296.4 233.6-39.1 29.5-84.66 62.6-92.38 114.6-4.34 23 2.62 45.5 3.78 68.3 14.6 41.8 65.1 62.5 71.6 108-9 11.8-29.9 13.3-36.7 26.7-28.4 12.7-58.04 21.7-87.84 30.1 0.36-5.3 14.09-5.5 18.68-8.5 35.47-9.4 68.46-27.3 98.96-47.4-5.2-44.2-51.9-65.3-68.53-103.8-1.86-6-3.85-12.3-1.89-18.6-14.87-41.6 0.51-89.2 29.32-121.5 53.6-55.6 125.6-87.2 186.8-133.1 81.6-56.6 154.9-131.8 189.4-226.6 33.1-75 38.2-158.2 44-238.99 3.5-82.35-5.6-165.93-34.4-243.64-8.2-18.78-11.8-39.65-23.6-56.71 3.3-12.87 6.5-25.74 9-38.78z" fill="#bc6f61"/>
  <path d="m1380 652.66c11.8 17.06 15.4 37.93 23.6 56.71 28.8 77.71 37.9 161.29 34.4 243.64-5.8 80.79-10.9 163.99-44 238.99-34.5 94.8-107.8 170-189.4 226.6-61.2 45.9-133.2 77.5-186.8 133.1-28.81 32.3-44.19 79.9-29.32 121.5-1.96 6.3 0.03 12.6 1.89 18.6 16.63 38.5 63.33 59.6 68.53 103.8-30.5 20.1-63.49 38-98.96 47.4 33.04-12.4 65.26-28.1 92.86-50.3-4.4-28-27.1-46.8-43.6-67.9-14.5-14.3-30.23-31.6-27.59-53.7-10.22-35.8-2.26-75.4 18.99-105.5 47.4-64.1 123.3-96.4 184.7-144.3 49-34.2 92.5-76.9 128.1-124.9 31.7-47.6 56.1-100.2 70.4-155.5 18.9-85.6 25.5-174.78 21.6-262.24-3.3-62.21-18.1-123.16-36.6-182.49-0.9-0.96-1.9-1.72-2.9-2.53 5.3-13.46 8.1-27.82 14.1-40.98z" fill="#c17761"/>
  <path d="m508.27 679.56c2.18 9.97-0.02 20.33 0.73 30.45-3.38-9.51 0.23-20.51-0.73-30.45z" fill="#ba6d4a"/>
  <path d="m1347.1 734.95c6.5-13.7 11.5-28.03 18.8-41.31 1 0.81 2 1.57 2.9 2.53 18.5 59.33 33.3 120.28 36.6 182.49 3.9 87.46-2.7 176.64-21.6 262.24-14.3 55.3-38.7 107.9-70.4 155.5-35.6 48-79.1 90.7-128.1 124.9-61.4 47.9-137.3 80.2-184.7 144.3-21.25 30.1-29.21 69.7-18.99 105.5-2.64 22.1 13.09 39.4 27.59 53.7 16.5 21.1 39.2 39.9 43.6 67.9-27.6 22.2-59.82 37.9-92.86 50.3-4.59 3-18.32 3.2-18.68 8.5-19.86 4.3-40.08 7.4-60.18 10.3-1.12-0.3-2.24-0.7-3.34-1 8.14-3 17.57-0.9 25.24-4.9 13.24-3.6 26.97-5.1 39.92-9.9 9.86-1.6 18.98-6.2 28.21-9.9 26.4-10.1 51.29-24.7 72.99-42.9 2-7.9-3.2-15.6-5.1-23.2-14.5-25-38.4-42.7-54.32-66.7-6.27-9.3-12.85-19.8-10.21-31.6-6.23-33.6-6.27-71.2 14-100.2 42.53-67 118.43-100.1 178.23-148.8 37.8-30.2 74.5-62.4 104.2-100.8 34.1-44 57.2-95.4 75.4-147.7 24.6-89.8 27.9-182.96 27.4-275.08-3.1-55.28-10.3-111.06-26.6-164.17z" fill="#c67c63"/>
  <path d="m707.23 756.85c-3.31-23.22-23.46-40.79-38.12-55.15 19.57 11.07 35.86 30.26 39.3 52.98-0.3 0.54-0.88 1.63-1.18 2.17z" fill="#984026"/>
  <path d="m1347.1 734.95c16.3 53.11 23.5 108.89 26.6 164.17 0.5 92.12-2.8 185.28-27.4 275.08-18.2 52.3-41.3 103.7-75.4 147.7-29.7 38.4-66.4 70.6-104.2 100.8-59.8 48.7-135.7 81.8-178.23 148.8-20.27 29-20.23 66.6-14 100.2-2.64 11.8 3.94 22.3 10.21 31.6 15.92 24 39.82 41.7 54.32 66.7 1.9 7.6 7.1 15.3 5.1 23.2-21.7 18.2-46.59 32.8-72.99 42.9 23.47-12 46.09-25.7 65.79-43.5 2.4-14-5.7-28.2-14.8-38.7-15.7-21.8-38.09-38.5-49.95-63.1-12.09-44.1-9.91-95.8 19.28-133.4 41.57-55.5 104.97-88 156.77-132.2 63-49.2 115.8-113.1 147.4-186.6 8.4-27.5 22.1-53.4 25.7-82.2 20-78.4 21.1-159.91 21.2-240.45-2.7-12.9 0.3-26.96-4.5-39.13 7-12.33 16.6-24.23 17.7-38.9 0.2-23.57-16-43.45-28.1-61.62 7.6-13.27 13.1-27.53 19.5-41.35z" fill="#cb8365"/>
  <path d="m513.81 774.3c1.54-7.98-3.16-20.05 3.18-25.57 8.91 28.92 26.83 55.44 53.12 71.21-2.63 66.25 0 132.86 4.99 198.86 4.39 147.8 34.68 299.4 123.46 420.6 31.29 47.6 69.9 92 89.38 146 13.75 35.2 15.97 73.6 16.63 111-7.35 24.9-27.9 42.8-44.45 61.8-5.22 10.2-13.56 22.3-8.18 33.9 28.96 41.1 79.67 63.4 129.18 64.7-16.46 2.1-34.16 0.2-49.81-2.9-0.59-5.8-4.43 2-7.42-0.6-16.12-7.8-35.22-8.7-50.4-18.8-20.56-12.1-42.11-25.8-54-47 3.32-35.4 41.29-50.3 53.09-81.9 9.32-17.5 3.62-45.8 1.3-60.5-3.86-42.4-21.96-82.7-46.7-117.1 0.76-1.5 1.77-2.7 2.68-4-7.09 4.7-9.51-10.9-13.38-11.7-9.23-9.4-21.03-25.6-31.03-37.5 4.07-8.3-3.9 0.4-4.86-6.4-27.36-30.5-49.01-60.2-71.3-94.7-53.4-85-79.13-187.9-89.02-285-5.79-27.3-1.47-57.5-6.11-85-3.33-36.64-2.9-80.72-4.67-120.29-1.52-31.55 2.92-63.47 2.5-94.44 1.2-1.44 2.73-2.52 4.08-3.78-6.85 1.86-3.12-7.02-2.26-10.89z" fill="#de9f6a"/>
  <path d="m709.52 759.8c2.69 6.5-1.94 27.34-1.38 9.49 0.88-3.08 0.9-6.38 1.38-9.49z" fill="#ca8751"/>
  <path d="m570.11 819.94c11.05 5.74 22.79 10.03 34.83 13.19 6.6 2.14 13.45 3.32 20.25 4.67 0.61 1.18 1.61 2.31 1.58 3.74-1.63 62.03 3.91 123.82 8.27 185.56 2.77 91 14.59 182.1 41.76 269.1 18.01 66.4 52.03 126.7 87.95 185.1 43.29 62.3 70.1 137.5 66.48 213.8-1.63 20.8-18.56 34.4-30.04 50.1-10.87 12.6-26.2 28.4-20 46.5 22.72 38.6 66.16 62.4 110.43 64.1-3.53 0.2-7.01 0.5-10.5 1-49.51-1.3-100.22-23.6-129.18-64.7-5.38-11.6 2.96-23.7 8.18-33.9 16.55-19 37.1-36.9 44.45-61.8-0.66-37.4-2.88-75.8-16.63-111-19.48-54-58.09-98.4-89.38-146-88.78-121.2-119.07-272.8-123.46-420.6-4.99-66-7.62-132.61-4.99-198.86z" fill="#e4a66a"/>
  <path d="m608.26 832.4c2.52 0.08 5.04 0.22 7.55 0.53 4.42 2.18 9.36 2.48 14.16 3.08 9.75 1.6 2.31 2.29-4.78 1.79-6.8-1.35-13.65-2.53-20.25-4.67 1.1-0.25 2.21-0.49 3.32-0.73z" fill="#a85832"/>
  <path d="m1222.6 850.15c5 0.19 6.4 11.6 11.3 14.66 2.9 3.59 5.6 7.23 8.4 10.86-1.2-0.17-2.6-0.46-2.5 1.28-6-8.75-12.2-17.39-17.2-26.8z" fill="#a55532"/>
  <path d="m1501.3 858.7c1 4.41 0.5 9.04 0.5 13.56-1.4-4.33-0.5-9.13-0.5-13.56z" fill="#c69a9a"/>
  <path d="m1305.8 903.56c13.6-5.18 23.6-15.43 32.2-26.74 4.8 12.17 1.8 26.23 4.5 39.13-0.1 80.54-1.2 162.05-21.2 240.45-3.6 28.8-17.3 54.7-25.7 82.2-31.6 73.5-84.4 137.4-147.4 186.6-51.8 44.2-115.2 76.7-156.77 132.2-29.19 37.6-31.37 89.3-19.28 133.4 11.86 24.6 34.25 41.3 49.95 63.1 9.1 10.5 17.2 24.7 14.8 38.7-19.7 17.8-42.32 31.5-65.79 43.5-9.23 3.7-18.35 8.3-28.21 9.9 2.79-2.1 5.89-3.8 9.23-4.8 2.71-0.9 5.37-1.8 7.83-3.3 27.15-9.3 51.14-27.9 70.74-47.9-3.8-41.9-47.64-63.5-64.66-99.3-7.21-20-6.19-43.9-6.65-65.9 4.8-55.7 44.91-98.8 87.81-130.6 36.1-30 74.2-57.3 108-90 95.5-85.8 143.9-213.9 150.2-340.2 3.6-52.1 7.3-104.5 3.4-156.69 0.2-1.96-1.8-2.75-3-3.75z" fill="#d08a65"/>
  <path d="m1243 881.13c9.6 9.62 19.9 19.2 33.2 23.43 5 31.19 0.3 66.74 2.1 99.24-3.6 88.2-9.9 179-46.9 260.6-24.8 65.7-71.6 120.3-122.4 167.6-41.4 38.2-89.8 69.2-125.09 113.9-25.49 32.8-34.23 76.1-29.35 116.9-1.77 51.1 58.04 72.6 68.74 119 5.3 7.9-4.9 13.3-10.2 17.4-9.5 12.3-23.01 21.8-37.06 28.9 13.92-10.4 26.86-22.5 37.56-36.5 7.9-5.6 0.7-15.3 0.3-22.7-5.9-1-2.4-10.3-8.4-11.6-13.31-24.9-47.41-46.5-55.07-75.7-2.15-28.1-7.17-57.4 2.22-84.9 7.02-33.1 30.97-62 54.65-86.4 2.2-4.8 12.1-6.3 8.1-12.7 7.2 0.1 12.1-5.7 17-10.2 17.2-17.3 35.8-33 55-48 18.5-21.3 36.6-42.5 57-62 1.9-2.6 0.6-6.5 3.3-8.7 52.3-63.3 75.7-145 89.4-222.3-5.7-1.4 3.3-7.2 0.6-12 6.6-51.7 10.5-102.1 7.7-154.56 2.9-32.88-1.3-65.84-2.4-98.71z" fill="#d99a68"/>
  <path d="m35.16 906.17c-0.03-5.48 0.06-10.96 0.57-16.39 0.13 5.45 0.19 10.94-0.57 16.39z" fill="#d9aba9"/>
  <path d="m1276.2 904.56c9.2 4.45 20.3 2.78 29.6-1 1.2 1 3.2 1.79 3 3.75 3.9 52.19 0.2 104.59-3.4 156.69-6.3 126.3-54.7 254.4-150.2 340.2-33.8 32.7-71.9 60-108 90-42.9 31.8-83.01 74.9-87.81 130.6 0.46 22-0.56 45.9 6.65 65.9 17.02 35.8 60.86 57.4 64.66 99.3-19.6 20-43.59 38.6-70.74 47.9 5.03-3.8 10.87-6.3 16.08-9.8 14.05-7.1 27.56-16.6 37.06-28.9 5.3-4.1 15.5-9.5 10.2-17.4-10.7-46.4-70.51-67.9-68.74-119-4.88-40.8 3.86-84.1 29.35-116.9 35.29-44.7 83.69-75.7 125.09-113.9 50.8-47.3 97.6-101.9 122.4-167.6 37-81.6 43.3-172.4 46.9-260.6-1.8-32.5 2.9-68.05-2.1-99.24z" fill="#d49368"/>
  <path d="m1501.1 953.1c0.1-3.4 0.3-6.87 0.7-10.21 0.2 3.43-0.4 6.76-0.7 10.21z" fill="#c29c95"/>
  <path d="m35.22 946.77c0.87 7.11 0.88 14.29 0.53 21.46-0.8-7.14-0.87-14.32-0.53-21.46z" fill="#d8aba7"/>
  <path d="m40.24 1020.8c0.07 3.8 0.26 7.6 0.57 11.4-0.19-3.9-0.38-7.6-0.57-11.4z" fill="#d9b8b3"/>
  <path d="m520.04 1738c3.7-1.2 7.36-2.7 11.01-4.1-1.5 6.4-1.15 12.9-0.08 19.3 1.68 11 5.69 21.5 11.8 30.8 34.07 48.5 96.8 60 150.64 73 2.49 0.7 4.99 1.5 7.15 2.9-18.6-0.5-37.11-1.7-55.58-3.8-1.69-0.3-3.37-0.6-5.03-0.9-20.88-6.4-42.44-12.8-64.15-16-27.94-8.7-56.58-17.4-81.08-33.9-16.56-8.7-10.21-23.7-3.56-36.1 7.18-12.4 16.23-24 28.88-31.2z" fill="#943427"/>
  <path d="m494.72 1805.3c-20.68-3.1-13.66-25.2-3.56-36.1-6.65 12.4-13 27.4 3.56 36.1z" fill="#b77770"/>
  <path d="m575.8 1839.2c21.71 3.2 43.27 9.6 64.15 16-21.81-3.4-43.27-8.9-64.15-16z" fill="#b6756f"/>
  <path d="m644.98 1856.1c18.47 2.1 36.98 3.3 55.58 3.8-2.16-1.4-4.66-2.2-7.15-2.9 39.69 6.1 80.1 11.8 120.48 9.2 1.64-0.5 2.49 0.9 3.47 2h-0.93c-4.26 0-8.48 0.1-12.67 0.6-4.27-0.1-8.54 0.2-12.77 0.2-9.02-0.1-18.02-0.1-27.02 0-4.91-0.1-9.85-0.2-14.72-0.2-3.84-0.1-7.66-0.3-11.46-0.6-10.95-0.7-21.79-2.4-32.69-3.4-3.43-0.5-6.78-0.6-10.2-0.7-16.77-1.7-33.54-4-49.92-8z" fill="#b76f65"/>
  <path d="m694.9 1864.1c3.42 0.1 6.77 0.2 10.2 0.7-3.41 0.1-6.86-0.4-10.2-0.7z" fill="#cf9d96"/>
  <path d="m834.67 1866.7c5.07-1.6 10.4-0.5 15.63-0.5-5.01 1.9-10.47 0.4-15.63 0.5z" fill="#d9aba5"/>
  <path d="m737.79 1868.2c3.8 0.3 7.62 0.5 11.46 0.6-3.84-0.2-7.66-0.4-11.46-0.6z" fill="#e1b4b2"/>
  <path d="m803.76 1868.8c4.19-0.5 8.41-0.6 12.67-0.6-4.22 0.5-8.48 0.5-12.67 0.6z" fill="#e4b7b4"/>
  <path d="m763.97 1869c9-0.1 18-0.1 27.02 0l-0.03 1h-26.89l-0.1-1z" fill="#c09895"/>
 </g>
</svg>
