<?xml version="1.0" encoding="UTF-8"?>
<svg width="1401pt" height="1401pt" version="1.1" viewBox="0 0 1401 1401" xmlns="http://www.w3.org/2000/svg">
 <defs>
  <filter id="a" color-interpolation-filters="sRGB">
   <feColorMatrix values="1 0 0 0 0 0 1 0 0 0 0 0 1 0 0 0 0 0 1000 -500 "/>
  </filter>
 </defs>
 <g filter="url(#a)">
  <path d="m638.45 0h18c3.79 0.41 7.59 0.81 11.4 1.18 4.4 0.54 8.88 0.62 13.34 0.64 9.88 0.31 19.76 0.9 29.65 1.34 4.74 0.56 9.56 0.83 14.35 0.66 9.9-0.09 19.75 0.99 29.64 1.34 4.74 0.52 9.57 0.83 14.38 0.69 33.72-1.61 66.11 8.87 99.15 13.79 15.53 1.98 35.89 17.12 30.65 34.13-14.03 11.56-30.07 21.86-48.63 23.51-10.5 17.98-6.87 39.72-9.5 59.58-0.27 2.4-0.52 4.79-0.74 7.19-18.05-4.03-31.12 10.71-38.3 26.13-2.92 3.04-6.41-0.04-6.97-3.06 1.33 1 2.68 1.98 4.14 2.8 7.28-10.39 15.24-20.62 22.58-30.78-6.52-6.17-10.75-15.53-18.37-20.15-7.41 10.56-14.9 21.1-21.91 31.92 1.93 2.3 4 4.52 5.96 6.83-6.71-3.28-10.51-12.82-19.74-8.1-0.8 6.72-6.65 11.3-10.62 16.26 2.41-5.59 6.23-10.4 8.99-15.81-8.5-9.44-15.66-20.25-24.81-29.02-6.27 11.07-15.36 20.52-21.14 31.78 6.37 7.95 14.67 14.39 20.02 23.17-7.46-1.69-11.45-20.53-18.04-10.04 4.15 7.47 12.83 11.97 15.79 20.1-2.54 11.27-16.4 23.97-28.2 16.54-6.54-6.82-20-17.02-8.55-26.56 5.23-4.74-3.28-4.91-6.76-5.2 2.28-7.98 9.59-13.28 12.71-20.75-6.52-8.07-12.36-17.04-19.89-24.21-6.65 8.05-13.3 16.11-20.65 23.53-3.26 3.19 2.4 5.53 3.56 8.46-13.53-5.99-22.02 0.78-30.72 9.29 3.81-5.09 8.54-9.59 11.68-15.16-7.01-8.03-12.56-17.9-18.89-25.85-5.76 11.14-33.09 25.72-14.03 37.79-5.1-1.34-10.5-5.48-9.65-11.34 2.32-5.76 9.48-9.16 10.45-15.52-6.71-3.74-9.86 4.1-14.89 6.8-4.34-0.79-5.72-5.5-8.76-8.06-7.58 5.18 7.46 17.92-6.09 21.21 12.33-10.03-7.95-20.87-11.44-30.75-7.02 3.97-13.86 12.99-20.5 18.74 5.82 8.67 12.79 17.51 19.88 24.77 4.32-3.52 7.81-8.77 12.06-12.76-2.89 8.05-10.74 18.04-18.6 10.46-2.39-8.12-15.18-14.93-15.46-25.91-7.21-0.19-13.63 1.72-18.06 7.63-0.47-6.29-0.83-12.59-1.19-18.89 0.37-3.57 0.53-7.16-0.47-10.64-0.69-7.46-1.13-14.93-1.55-22.4 0.05-3.24 0.3-6.48-0.42-9.66-0.27-25.92-46.31-14.67-41.71-43.02-3.68-12.88 7.18-18.62 16.52-23.53 42.31-12.55 86.41-17.62 130.35-21.09m-98.26 27.34c-2.9 0.26-8.87-2.27-10.07 0.66-10.02 3.06-33.99 9.62-25.25 23.04 29.03 19.46 66.73 17.51 100.13 23.98 54.46 1.64 115.58 1.63 169.99 0 37.74-7.96 81.43 0.02 112.75-26.6 2.82-6.82-5.2-6.96-8.02-11.28-30.75-13.52-64.81-16.3-97.8-20.14-4.58-3.12-15.66 0.06-22.16-0.73-3.54-0.42-7.18-0.32-10.7-0.23-1.64-2.72-7.68 0.18-10.34-0.73-7.2-0.68-14.42-1.2-21.64-1.29-1.82-3.35-9.14 0.43-12.34-0.77-4.24-0.31-8.5-0.26-12.72-0.22-1.99-3.23-9.61 0.21-13.18-0.76-3.04-1.37-6.74-1.72-11.1-1.06-42.65 2.13-86.4 3.2-127.55 16.13m5.84 71.65c-2.89 2.67-1.17 14.08-0.06 17.02 0.64 6.03 1.85 12.92 5.04 17.99 6.97-3.62 10.62-11.66 16.95-16.24-4.82-13.53-15.17-24.86-21.22-38.04-2.43 5.69 0.13 13.09-0.71 19.27m17.11-16.83c-0.15 9.91 11.48 15 15.23 23.52 7.23-2.83 14.03-10.78 16.6-18.64-10.11-3.79-21.15-4.37-31.83-4.88m265.44 0.07c-6.94 7.73-13.15 16.75-18.56 25.76 6.1 5.7 10.54 17.23 20.53 14.89 2.42-11.04 0.89-22.43 1.66-33.62-1.52-1.92 3.95-11.2-3.63-7.03m-21.4 1c-15.31-1.57-15.38 10.18-4.08 15.81 0.91-4.17 11.09-14.06 4.08-15.81m-186.88 3.81c-5.89 2.73 8.48 8.06 8.63 13.1 6.31 14.77 13.02-6.17 18.41-10.58 3.63-2.78-7.76-3.01-10.55-2.4-2.92-0.16-5.91-0.2-8.78-0.16-0.53-1.81-7.72-1.67-7.71 0.04m119.11-0.72c-5.16 1.81 0.53 13.29 5.34 13.54 2.6-3.49 4.43-7.56 8.2-10.15-2.02-3.95-9.49-2.62-13.54-3.39m-77.91 1.3c-3.21 11.65-17.73 16.78-21.06 28.25 4.21 9.99 10.95 19.59 18.56 27.23 8.85-8.54 19.9-18.43 20.62-31.48-6-7.83-12.72-18.06-18.12-24m15.58 0.18c0.34 0.69 0.69 4.87 1.51 2.84 4.9 4.56 4.9 16.26 12.72 14.99 3.89-4.67 6.37-10.36 10.25-15.07 0.17-0.13 0.52-0.4 0.69-0.53 2.82-6.85-21.62-2.17-25.17-2.23m92.96-0.55c-7.37 5.7-12.54 13.99-19.86 19.93 6.79 11.17 14.05 23.06 21.93 32.82 11.35-5.75 14.26-21.5 21.74-31.13-5.91-8.05-12.04-20.9-23.81-21.62m-50.79 1.16c-7.96 9.02-18.64 17.08-23.14 28.48 5.04 8.4 11.42 16.2 16.25 24.85 1.38 2.64 4.07 0.43 4.95-1.4 6.75-10.45 12.21-21.67 18.34-32.48-4.98-6.58-10.55-14.81-16.4-19.45m-112.08 4.77c-7.63 8.19-14.78 17.46-21.88 25.68 6.3 7.05 10.61 16.73 18.57 21.89 8.11-8.13 17.68-15.82 20.12-27.63-5.5-6.65-9.92-14.6-16.81-19.94m105.2 69.09c-3.22 8.51-10.29 14.7-14.29 22.69 5.87 7.31 11.5 19.04 22.39 17.71 5.52-4.61 15.15-9.11 14.9-17.11-7.34-7.72-13.4-19.36-23-23.29z" fill="#060302"/>
  <path d="m667.85 1.18c4.45 0.08 8.88 0.18 13.34 0.64-4.46-0.02-8.94-0.1-13.34-0.64z" fill="#5e5d4a"/>
  <path d="m710.84 3.16c4.79-0.12 9.56 0.14 14.35 0.66-4.79 0.17-9.61-0.1-14.35-0.66z" fill="#484836"/>
  <path d="m754.83 5.16c4.8-0.14 9.58 0.13 14.38 0.69-4.81 0.14-9.64-0.17-14.38-0.69z" fill="#373625"/>
  <path d="m540.19 27.34c41.15-12.93 84.9-14 127.55-16.13 3.69 0.38 7.39 0.73 11.1 1.06 4.36 0.34 8.78 0.79 13.18 0.76 4.22-0.04 8.48-0.09 12.72 0.22 4.08 0.34 8.21 0.69 12.34 0.77 7.22 0.09 14.44 0.61 21.64 1.29 3.4 0.33 6.89 0.82 10.34 0.73 3.52-0.09 7.16-0.19 10.7 0.23 7.34 0.88 14.76 0.9 22.16 0.73 32.99 3.84 67.05 6.62 97.8 20.14 2.82 4.32 10.84 4.46 8.02 11.28-31.32 26.62-75.01 18.64-112.75 26.6-56.67-0.04-113.33-0.03-169.99 0-33.4-6.47-71.1-4.52-100.13-23.98-8.74-13.42 15.23-19.98 25.25-23.04 3.35 0.13 6.82 0.38 10.07-0.66m6.14 8.5c-13.3 8.03 1.01 25 13.71 22.14 3.21 1.18 6.93 1.44 11.17 0.76 3.9 0.19 7.82 0.26 11.75 0.22 2.02 3.25 9.61-0.18 13.25 0.81 1.33 3.39 9.66 0.01 13.02 1 3.57 0.32 7.1 0.3 10.71 0.19 1.65 2.71 7.59-0.15 10.32 0.73 6.56 0.63 13.12 1.68 19.75 1.28 2.73 3 10.85-0.11 15.23 0.78 6.22 0.51 12.48 0.27 18.74 0.23 6.82 2.88 22.06 0.96 29.02 0.04 3.89 0.16 7.77 0.04 11.66-0.37 4.22 0.2 10.79 1.81 13.39-0.66 8.55 0.03 17.05-1.07 25.6-1.37 4.21 0.27 10.84 1.83 13.41-0.66 19.3 2.06 39.98-3.65 57.05-10.12 3.53-0.95-0.76-12.06-3.8-5.98-14.49 4.98-30 5.84-45 8.49-20.07-0.9-40.22-0.12-60.31-0.32-16.72 0.64-37.29-1.58-51.59 1.21-12.55-0.44-25.12-0.43-37.66 0.08-6.55-0.62-13.08-1.69-19.68-1.28-1.67-2.71-7.65 0.16-10.31-0.75-15.1-1.77-30.35-2.4-45.37-4.55-2.09-3.36-3.04-7.24-4.43-10.9 0.35-3.95-9.22-1.85-9.63-1z" fill="#c7c096"/>
  <path d="m667.74 11.21c4.36-0.66 8.06-0.31 11.1 1.06-3.71-0.33-7.41-0.68-11.1-1.06z" fill="#565138"/>
  <path d="m678.84 12.27c3.57 0.97 11.19-2.47 13.18 0.76-4.4 0.03-8.82-0.42-13.18-0.76z" fill="#97937b"/>
  <path d="m704.74 13.25c3.2 1.2 10.52-2.58 12.34 0.77-4.13-0.08-8.26-0.43-12.34-0.77z" fill="#5f5d46"/>
  <path d="m738.72 15.31c2.66 0.91 8.7-1.99 10.34 0.73-3.45 0.09-6.94-0.4-10.34-0.73z" fill="#706c52"/>
  <path d="m759.76 16.27c6.5 0.79 17.58-2.39 22.16 0.73-7.4 0.17-14.82 0.15-22.16-0.73z" fill="#383525"/>
  <path d="m530.12 28c1.2-2.93 7.17-0.4 10.07-0.66-3.25 1.04-6.72 0.79-10.07 0.66z" fill="#504c34"/>
  <path d="m546.33 35.84c0.41-0.85 9.98-2.95 9.63 1-3.24-0.23-6.41-0.83-9.63-1z" fill="#3f3a28"/>
  <path d="m560.04 57.98c-12.7 2.86-27.01-14.11-13.71-22.14 3.22 0.17 6.39 0.77 9.63 1 1.39 3.66 2.34 7.54 4.43 10.9 15.02 2.15 30.27 2.78 45.37 4.55 3.38 0.42 6.87 0.81 10.31 0.75 6.6-0.41 13.13 0.66 19.68 1.28 12.49 0.74 25.22 1.7 37.66-0.08 17.19-0.54 34.39-0.1 51.6-0.21 20.06-0.76 40.35 1.25 60.3-0.68 15-2.65 30.51-3.51 45-8.49 3.86-0.37 4.58 2.17 3.8 5.98-17.07 6.47-37.75 12.18-57.05 10.12-4.5-0.08-9.01-0.25-13.41 0.66-8.55 0.3-17.05 1.4-25.6 1.37-4.48-0.04-9.02-0.41-13.39 0.66-3.89 0.41-7.77 0.53-11.66 0.37-9.69-0.05-19.36-0.12-29.02-0.04-6.26 0.04-12.52 0.28-18.74-0.23-5.09-0.43-10.14-0.99-15.23-0.78-6.63 0.4-13.19-0.65-19.75-1.28-3.47-0.37-6.86-0.81-10.32-0.73-3.61 0.11-7.14 0.13-10.71-0.19-4.36-0.4-8.68-0.72-13.02-1-4.44-0.3-8.82-0.82-13.25-0.81-3.93 0.04-7.85-0.03-11.75-0.22-3.74-0.25-7.46-0.51-11.17-0.76z" fill="#040302"/>
  <path d="m830.31 44.86c3.04-6.08 7.33 5.03 3.8 5.98 0.78-3.81 0.06-6.35-3.8-5.98z" fill="#35311a"/>
  <path d="m605.76 52.29c2.66 0.91 8.64-1.96 10.31 0.75-3.44 0.06-6.93-0.33-10.31-0.75z" fill="#6f6b54"/>
  <path d="m673.41 54.24c14.3-2.79 34.87-0.57 51.59-1.21l0.01 1c-17.21 0.11-34.41-0.33-51.6 0.21z" fill="#a5a188"/>
  <path d="m725 53.03c20.09 0.2 40.24-0.58 60.31 0.32-19.95 1.93-40.24-0.08-60.3 0.68l-0.01-1z" fill="#292518"/>
  <path d="m635.75 54.32c12.54-0.51 25.11-0.52 37.66-0.08-12.44 1.78-25.17 0.82-37.66 0.08z" fill="#605b45"/>
  <path d="m560.04 57.98c3.71 0.25 7.43 0.51 11.17 0.76-4.24 0.68-7.96 0.42-11.17-0.76z" fill="#88846f"/>
  <path d="m582.96 58.96c4.43-0.01 8.81 0.51 13.25 0.81-3.64-0.99-11.23 2.44-13.25-0.81z" fill="#544f37"/>
  <path d="m596.21 59.77c4.34 0.28 8.66 0.6 13.02 1-3.36-0.99-11.69 2.39-13.02-1z" fill="#96927b"/>
  <path d="m619.94 60.96c3.46-0.08 6.85 0.36 10.32 0.73-2.73-0.88-8.67 1.98-10.32-0.73z" fill="#676349"/>
  <path d="m763.65 61.62c4.4-0.91 8.91-0.74 13.41-0.66-2.57 2.49-9.2 0.93-13.41 0.66z" fill="#65634b"/>
  <path d="m650.01 62.97c5.09-0.21 10.14 0.35 15.23 0.78-4.38-0.89-12.5 2.22-15.23-0.78z" fill="#6e6a50"/>
  <path d="m724.66 63.65c4.37-1.07 8.91-0.7 13.39-0.66-2.6 2.47-9.17 0.86-13.39 0.66z" fill="#6f6b4f"/>
  <path d="m683.98 63.98c9.66-0.08 19.33-0.01 29.02 0.04-6.96 0.92-22.2 2.84-29.02-0.04z" fill="#3c3927"/>
  <path d="m605 75.02c56.66-0.03 113.32-0.04 169.99 0-54.41 1.63-115.53 1.64-169.99 0z" fill="#74715d"/>
  <path d="m546.03 98.99c0.84-6.18-1.72-13.58 0.71-19.27 6.05 13.18 16.4 24.51 21.22 38.04-6.33 4.58-9.98 12.62-16.95 16.24-3.19-5.07-4.4-11.96-5.04-17.99 0.03-5.68 0.1-11.35 0.06-17.02z" fill="#a10707"/>
  <path d="m563.14 82.16c10.68 0.51 21.72 1.09 31.83 4.88-2.57 7.86-9.37 15.81-16.6 18.64-3.75-8.52-15.38-13.61-15.23-23.52z" fill="#f4c60c"/>
  <path d="m828.58 82.23c7.58-4.17 2.11 5.11 3.63 7.03-0.77 11.19 0.76 22.58-1.66 33.62-9.99 2.34-14.43-9.19-20.53-14.89 5.41-9.01 11.62-18.03 18.56-25.76z" fill="#740202"/>
  <path d="m807.18 83.23c7.01 1.75-3.17 11.64-4.08 15.81-11.3-5.63-11.23-17.38 4.08-15.81z" fill="#d0aa10"/>
  <path d="m620.3 87.04c-0.01-1.71 7.18-1.85 7.71-0.04-2.59 0.03-5.16 0.05-7.71 0.04z" fill="#7d6511"/>
  <path d="m739.41 86.32c4.05 0.77 11.52-0.56 13.54 3.39-3.77 2.59-5.6 6.66-8.2 10.15-4.81-0.25-10.5-11.73-5.34-13.54z" fill="#cea912"/>
  <path d="m628.93 100.14c-0.15-5.04-14.52-10.37-8.63-13.1 2.55 0.01 5.12-0.01 7.71-0.04 2.87-0.04 5.86 0 8.78 0.16 3.19 1.21 8.24-0.8 10.55 2.4-5.39 4.41-12.1 25.35-18.41 10.58z" fill="#f3c50f"/>
  <path d="m636.79 87.16c2.79-0.61 14.18-0.38 10.55 2.4-2.31-3.2-7.36-1.19-10.55-2.4z" fill="#4e3903"/>
  <path d="m661.5 87.62c5.4 5.94 12.12 16.17 18.12 24-0.72 13.05-11.77 22.94-20.62 31.48-7.61-7.64-14.35-17.24-18.56-27.23 3.33-11.47 17.85-16.6 21.06-28.25z" fill="#8e0404"/>
  <path d="m677.08 87.8c3.55 0.06 27.99-4.62 25.17 2.23-6.14-4.54-17-1.01-25.17-2.23z" fill="#4c3602"/>
  <path d="m770.04 87.25c11.77 0.72 17.9 13.57 23.81 21.62-7.48 9.63-10.39 25.38-21.74 31.13-7.88-9.76-15.14-21.65-21.93-32.82 7.32-5.94 12.49-14.23 19.86-19.93z" fill="#770202"/>
  <path d="m533.29 87.64c0.72 3.18 0.47 6.42 0.42 9.66-0.75-3.18-0.62-6.43-0.42-9.66z" fill="#5c5c40"/>
  <path d="m677.08 87.8c8.17 1.22 19.03-2.31 25.17 2.23-0.17 0.13-0.52 0.4-0.69 0.53-6.28-1.74-17.45-4.19-22.97 0.08-0.82 2.03-1.17-2.15-1.51-2.84z" fill="#e4c037"/>
  <path d="m719.25 88.41c5.85 4.64 11.42 12.87 16.4 19.45-6.13 10.81-11.59 22.03-18.34 32.48-0.88 1.83-3.57 4.04-4.95 1.4-4.83-8.65-11.21-16.45-16.25-24.85 4.5-11.4 15.18-19.46 23.14-28.48z" fill="#8d0404"/>
  <path d="m678.59 90.64c5.52-4.27 16.69-1.82 22.97-0.08-3.88 4.71-6.36 10.4-10.25 15.07-7.82 1.27-7.82-10.43-12.72-14.99z" fill="#f5c70c"/>
  <path d="m607.17 93.18c6.89 5.34 11.31 13.29 16.81 19.94-2.44 11.81-12.01 19.5-20.12 27.63-7.96-5.16-12.27-14.84-18.57-21.89 7.1-8.22 14.25-17.49 21.88-25.68z" fill="#a50606"/>
  <path d="m545.97 116.01c-1.11-2.94-2.83-14.35 0.06-17.02 0.04 5.67-0.03 11.34-0.06 17.02z" fill="#490406"/>
  <path d="m803.22 118.99c7.62 4.62 11.85 13.98 18.37 20.15-7.34 10.16-15.3 20.39-22.58 30.78-1.46-0.82-2.81-1.8-4.14-2.8-2.44-3.22-4.82-6.47-7.6-9.38-1.96-2.31-4.03-4.53-5.96-6.83 7.01-10.82 14.5-21.36 21.91-31.92z" fill="#daaf07"/>
  <path d="m535.26 119.7c1 3.48 0.84 7.07 0.47 10.64-0.94-3.47-0.87-7.08-0.47-10.64z" fill="#48492d"/>
  <path d="m741.09 121.07c9.15 8.77 16.31 19.58 24.81 29.02-2.76 5.41-6.58 10.22-8.99 15.81-4.9 2.78-10.83 17.3-16.94 10.12-5.35-8.78-13.65-15.22-20.02-23.17 5.78-11.26 14.87-20.71 21.14-31.78z" fill="#dbb006"/>
  <path d="m557.1 145.04c6.64-5.75 13.48-14.77 20.5-18.74 3.49 9.88 23.77 20.72 11.44 30.75-4.25 3.99-7.74 9.24-12.06 12.76-7.09-7.26-14.06-16.1-19.88-24.77z" fill="#f8c809"/>
  <path d="m617.98 163.96c-19.06-12.07 8.27-26.65 14.03-37.79 6.33 7.95 11.88 17.82 18.89 25.85-3.14 5.57-7.87 10.07-11.68 15.16-5.94 14.05-16.06 4.9-21.24-3.22z" fill="#f8c808"/>
  <path d="m666.38 149.43c7.35-7.42 14-15.48 20.65-23.53 7.53 7.17 13.37 16.14 19.89 24.21-3.12 7.47-10.43 12.77-12.71 20.75-2 2.04-4.15 3.92-6.41 5.67-0.96-1.14-1.94-2.25-2.93-3.36-1.32-2.01-3.03-3.71-5.07-4.98-1.41-1.25-2.81-2.51-4.2-3.78-0.84-1.74-2.15-3.16-3.8-4.16-0.63-0.79-1.25-1.57-1.86-2.36-1.16-2.93-6.82-5.27-3.56-8.46z" fill="#f7c707"/>
  <path d="m595.13 135.84c3.04 2.56 4.42 7.27 8.76 8.06 5.03-2.7 8.18-10.54 14.89-6.8-0.97 6.36-8.13 9.76-10.45 15.52-0.85 5.86 4.55 10 9.65 11.34 5.18 8.12 15.3 17.27 21.24 3.22 8.7-8.51 17.19-15.28 30.72-9.29 0.61 0.79 1.23 1.57 1.86 2.36 0.88 1.72 2.15 3.14 3.8 4.16 1.39 1.27 2.79 2.53 4.2 3.78 0.88 2.41 2.64 4.14 5.07 4.98 0.99 1.11 1.97 2.22 2.93 3.36 3.44 4.75 5.06-3.19 6.41-5.67 3.48 0.29 11.99 0.46 6.76 5.2-11.45 9.54 2.01 19.74 8.55 26.56 11.8 7.43 25.66-5.27 28.2-16.54-2.96-8.13-11.64-12.63-15.79-20.1 6.59-10.49 10.58 8.35 18.04 10.04 6.11 7.18 12.04-7.34 16.94-10.12 3.97-4.96 9.82-9.54 10.62-16.26 9.23-4.72 13.03 4.82 19.74 8.1 2.78 2.91 5.16 6.16 7.6 9.38 0.56 3.02 4.05 6.1 6.97 3.06 7.18-15.42 20.25-30.16 38.3-26.13l-0.06 0.91-0.09 0.92c-0.41 3.08-0.76 6.19-0.89 9.3-0.15 2.87-0.16 5.72-0.22 8.6-0.31 3.11-0.55 6.24-0.76 9.37-0.46 5.88-1.16 11.75-1.26 17.67-0.31 3.09-0.54 6.21-0.73 9.31-0.47 5.9-1.17 11.77-1.27 17.69-0.31 3.08-0.53 6.2-0.73 9.3-2.24 19.12-1.95 39.69 4.11 57.56 19.27 4.82 37.43 14.56 57.56 15.56 27.66 1.43 51.54 16.84 77.01 25.94 26.58 12.52 55.09 21.16 79.99 37 32.6 16.58 58.3 43.22 88.3 63.69 28.1 24.08 54 50.72 81.5 75.53 16.6 22.03 30.7 45.88 46.6 68.39 16.3 48.89 36.3 96.96 43.4 148.38 20.5 8.68 50.2 4.96 60.8 28.47 15.2 16.42 20.8 38.1 27.6 58.8v6.28c-0.9 6.68-1.8 13.39-2.1 20.14-0.4 3.04-0.5 6.21-0.8 9.3-1.5 17.73-10.7 33.52-15.5 50.44-3.1 16.51-20.2 22.36-30.4 33.55-7.3 9.06-20.6 6.26-30.1 11.89-20.2 12.29-53.3 11.26-67.7-7.4-34 43.33-66.5 87.96-100.1 131.66-81.2 96.3-166.14 189.5-246.4 286.6-9.06 8.1-22.07 9.5-30.69 18.3-32.61 16.4-69.49 20.7-105 27-17.98-0.8-35.7 1.5-52.94 6.8h-32.65c-16.82-1.9-33.78-0.8-50.67-1-32.27 1.2-63.51-8.2-95.52-10.3-19.26-2.6-32.72-17.7-49.93-25.1-69.68-68.7-141.95-135.1-205.1-210-36.27-45.8-71.49-92.4-107.84-138.1-23.15-26.11-35.93-59.44-55.43-87.86-8.12-0.57-12.95 11.34-21.07 13.73-10.78-0.2-21.66-1.21-32.37 0.42-26.74-1.46-45.78-26.06-54.74-49.67-13.21-19.85-8.57-44.63-13.95-66.83v-15.55c5.95-27.24 24.97-57.15 56.16-56.39 16.89-7.26 6.76-31.42 10.68-45.47 7.16-29.04 10.75-59.58 26.14-85.91 14.36-36.32 35.14-69.46 58.14-100.85 25.97-28.1 47.93-60.34 80.03-81.96 17.39-17.87 41.03-26.75 61.05-40.96 49.13-41.27 114.52-51.18 170.61-79.39 22.25-12.8 48.45-14.21 71.78-24.44 2.3-18.03 3.79-36.14 5.57-54.22 0.24-3.79 0.48-7.57 0.7-11.35 0.25-5.15 0.05-10.31-0.14-15.45-0.12-2.88 0.04-5.74-0.45-8.58-1.76-13.45-1.43-27.07-2.5-40.58-0.2-3.81-0.4-7.61-0.59-11.41-0.1-1.52-0.19-3.04-0.26-4.55 4.43-5.91 10.85-7.82 18.06-7.63 0.28 10.98 13.07 17.79 15.46 25.91 7.86 7.58 15.71-2.41 18.6-10.46 13.55-3.29-1.49-16.03 6.09-21.21m232.13 12.29c-6.82 10.72-19.37 17.76-21.19 31.62 2.84 7.11 12.43 7.92 18.58 10.13 6.52-9.44 2.87-23.25 5.44-34.09 1.66-2.48 0.72-7.97-2.83-7.66m-279.34 7.17c1.07 10.16 0.87 21.01 3.38 30.65 21.52 0.66 5.84-25.21-3.38-30.65m110.75 3.08c-10 7.05-15.85 17.64-22.49 26.6 5.19 9.91 16.11 19.65 28.15 17.4 5.61-5.09 13.32-9.94 15.5-17.28-4.05-10.57-14.31-18.24-21.16-26.72m-59 3.06c-7.34 4.5-13.62 12.44-16.43 20.27 6.88 5.8 15.17 10.24 22.7 15.29 4.85-6.41 21.32-12.06 10.14-20.06-5.92-4.48-7.67-16.92-16.41-15.5m174.73 0.74c-6.97 7.59-13.45 15.65-20.14 23.49-0.84 8.29 11.21 8.63 15.9 13.2 9.46-2.27 17.2-11.66 19.77-20.6-4.89-5.06-8.9-14.1-15.53-16.09m-202.23 25.19c-12.23 5.62 13.77 4.89 0 0m229.06-0.23c-10.33 12.47 8.53 3.82 0 0m-171.82 5.11c-12.57 10.28 13.55 7.02 0 0m58.14 3.94c-14.37 9.92 22.03 2.71 0 0m-137.27 8.65c-0.77 15.45-0.2 30.98-0.06 46.45-2.19 12.87 10.22 20.76 15.79 30.77 5.55-17.19 10.16-34.83 14.98-52.21 2.59-4.61 0.32-14.55 0.75-21.01 1.81-10.03-14.83-2.16-20.02-5.49-2.69 0.74-12.83-4.55-11.44 1.49m264.2-2.42c-18.01 4.52-36.62 8.16-55.2 8.65 0.13 30.1 5.67 63.99 29.57 83.87 2.31-0.78 3.28-3.69 4.44-5.7 10.29-27.94 25.23-57.89 21.19-86.82m-215.49 7c0.73 18.61 2.88 37.17 3.6 55.82 4.68 10.84 10.57 21.22 15.27 32.08 5.9 3.45 9.93-3.68 13.13-7.44 20.52-20.92 25.47-50.53 34.51-76.92-17.79-1.14-35.98-3.51-53.48-3.29-4.3 7.74-7.06-2.96-13.03-0.25m124.61 2.16c-14.42 1.36-28.91 1.76-43.37 1.19 4.4 31.91 4.03 71.25 33.77 91.1 8.23-8.8 16.48-19.8 18.51-32.37 4.43-20 14.51-39.29 11.37-60.36-6.77-0.42-13.57-0.37-20.28 0.44m-54.54 31.19c-5.85 24.79-22.94 44.59-34.9 66.27 16.96 1.45 33.86 3.87 50.91 3.98 2.32 2.54 20.75 2.21 17.42-1.75-4.52-8.63-13.12-14.56-17.69-23.14-5.4-15.04-8.42-31.18-15.74-45.36m-80.99 10.57c-1.52 15.54-11.2 29.46-14.86 44.4 11.51 3.03 23.39 4.38 34.98 7.09-8.07-16.36-16.77-35.05-20.12-51.49m233.13 0.46c-4.98 15.01-11.43 29.76-15.03 45.19 7.21-1.81 13.07-7.41 19.89-10.41-2.2-11.48-2.72-23.5-4.86-34.78m-70.73 2.55c-4.24 5.34-3.74 12.76-6.2 18.9-5.24 13.18-16.98 22.89-18.46 37.67 15.59-2.05 34.59-1.35 49.07-8.92-12.45-13-15.94-34.14-24.41-47.65m-200.36 28.93c-1.48 13.94 10.58 1.94 0 0m308.61 33.19c3.16 5.35 1.98-7.83 5.33-3.45 2.87 17.09-25.6 15.9-33 27.79 12.22 8.55 25.67 14.57 39.99 18.52 2.34 2.77 5.93-2.3 3.88-5.36 2.87-7.26 7.31-13.85 9.67-21.36 3.06-11.03 19.12-10.18 24.41-18.52-19.92-2.43-39.5-6.4-58.86-12.08-7.7 3.51 6.76 9.98 8.58 14.46m-91.54 2.77c-3.35 0.51-10.82-1.89-11.83 0.98-4.13-0.37-8.25-0.43-12.35-0.17-2.12 0.5-9.72-2.01-8.68 1.12-2.76 0.46-8.2-2.29-9.42 0.84-2.85 0.03-5.83-0.31-8.57 0.3-2.77 0.23-8.13-2.38-9.45 0.7-2.83 0.05-5.79-0.39-8.52 0.24-3.2-0.29-6.5-0.12-9.65 0-2.54-0.21-5.07-0.29-7.58-0.22-1.74-2.48-6.74-0.17-9.38-0.78-3.53-0.4-7.14-0.3-10.65-0.22-1.7-2.43-6.69-0.24-9.28-0.73-34.72-5.5-69.35-12.22-104.26-16.52-3.89 7.05-12.09 20.7 1.88 22.92 28.39 8.1 57.51 13.81 86.56 18.3 1 2.55 6.55 0.1 8.97 0.99 8.7 3.14 23.51 0.05 34 0.75 4.71 0.7 9.49 0.09 14.26 0.09 6.1 3.16 22.11 1.08 28.74 0.19 17.95-1.55 35.87-3.85 53.69-6.22 12.23-8.94 29.22-2.65 41.1-12.12 7.69-4.73 15.54-9.2 23.17-14.03-0.71-4.67-5.23-8.96-9.01-11.34-21.6 3.39-41.86 12.82-63.74 14.93m-368.34 40.61c-20.44-0.84-38.05 14.38-57.63 19.35-48.76 28.05-94.85 61.08-138.54 96.49-20.59 25.67-39.11 52.88-58.64 79.34-15.23 21.57-36.42 44.84-34.98 72.92-3.14 2.46 0.08 10.18-0.82 14.26-3.45 0.88 0.18 9.24-0.99 12.08-5.82 18.62 10.5 32.33 15.66 48.82 4.45 17.42 22.79 24.69 34.83 36.23 38.57 12.7 78.08-2.99 117.08-5.28 18.11-7.57 36.71-14.29 55.09-21.27 6.65 1.39 13.77 0.48 20.26 1.79-27.9 13.49-58.65 21.62-87.72 33-37.86 1.7-76.81 14.6-113.22 0.17-13.36-14.71-31.17-26.6-37.68-46.26-8.98-14.08-16.51-29.33-14.03-46.42 1.5-6.04-4.91-3.25-8.06-2.59-7.89 40.78-28.2 92.08 3.28 128.81 9.46 7.92 20.08 14.37 29.33 22.58 14.05 8.55 32.17 6.04 46.44 14.63 25.99 6.74 52.9 2.97 78.97-2.15 32.22-1.43 60.41-17.71 91.1-25.74 13.8-3.48 24.13-21.5 39.68-12.61-19.22 9.58-36.38 23.89-57.65 28.61-27.21 7.55-52.79 21.88-81.33 23.79-2.55 0.01-6.94-1.72-8.33 0.66-10.58 1.17-21.45 0.27-31.77 3.24-4.37-0.28-8.75-0.27-13.12-0.01-40.2-5.58-82.66-19.88-106.26-55.37-3.67-6.62-2.2 15.2-0.87 15.85 10.13 30.9 14.97 64.58 33.61 91.73 22.82 10.88 48.79 13 73.5 16.49 1.62 2.57 11.53 1.39 12.88 0.02 17.56-2.13 34.89-6.09 52.56-7.58 33.8-2.88 65.63-15.07 98.11-23.82 40.73-20.75 80.49-44.27 117.59-70.61 2.45 0.69 10.63 0.07 6.14 3.28-28.93 20.37-58.49 40-86.9 61.1-11.53 9.67-30.05 7.64-40.14 17.92-41.38 17.73-85.66 25.94-130.18 30.81 18.05-0.78 36.11 13.27 55.38 9.41 23.27 8.2 48.55 7.31 72.73 11.36-2.55 0.86-0.52 3.48 1.31 3.49 15.39 0.6 30.99 0.83 45.76-4.06 23-11.76 47.84-19.95 68.27-36.1 4.58-2.94 10.97-1.35 15.72 0.83-22.55 13.43-45.51 26.15-68.42 38.98 5.95 6.37 17.1 2.5 25.08 3.96 1.81 3.34 9.08-0.46 12.32 0.73 8.23 0.64 16.46 1.34 24.73 1.26 2.02 3.24 9.64-0.27 13.27 0.74 8.21 0.66 16.43 1.29 24.69 1.28 1.8 3.32 9.07-0.48 12.31 0.73 4.69 0.49 9.37 1.58 14.14 1.03 20.4-17.06 44.09-31.27 60.65-52.79 3.42-0.15 5.55-2.55 4.94-5.95 1.65-1.39 3.64-2.42 5-4.12 2.57 2.29 9.62-1.2 9.75 2.66-15.15 24.66-41.16 39.83-58.83 62.3 13.67 7.06 31.34-1.35 45.98 3.52 23.09 5.54 35.43-17 50.52-28.96 13.23-8.38 7.22-40.27 28.84-29.53-8.1 22.25-24.86 39.1-39.17 57.36 63.42-1.09 128.79 0.99 191-1.04-11.61-2.15-23.05-5.09-34.52-7.91 3.27-3.31 6.22-6.93 9.68-10.06 23.85 6.76 48.37 11.45 72.1 18.86 42.16-2.95 84.2-4.68 126.48-6.05 3 0.95 8.7-1.23 8.2-5.05-14-2.87-27.98-5.19-41.9-8.03 0.11-4.23 5.45-5.86 8.15-8.38 29.55 6.02 59.95 7.58 89.75 12.36 26.6-5.7 53.8-10.01 80.2-16.05-15.6-4.54-33.3-5.48-49.6-8.81 3.6-3.86 8.2-10.08 14.1-6.77 20.4 2.78 40.8 3.18 61.6 4.62 5.8 4.26 11.4-1.41 16.6-3.8 2.2 3.58 6.5 8.52 11.1 5.86 22.6-7.57 48.3-10.72 66.2-28.8 11.2-15.45 14.4-34.82 20.2-52.71 2-4.2-4.4-6.68-7.3-4.43-13.4 6.06-26.8 9.41-41.6 9.54 0.1-4.92 7.5-6.58 8.2-10.47 12.6-3.79 27.5-8.3 41.5-7.72 2-11.68 6.2-23.51 7.8-35.43 1.8-19.5 1.6-46.62 0-65.73-1.3-6.27-4.9-11.91-6-18.28-11.9 10.4-21.9 23.76-36.9 30.13-19.1 9.44-36.6 24.22-58.9 24.31-5.2-1.78 4.4-6.17 5.8-8.7 16.6-4.04 31.8-13.58 47.3-21.39 14.5-14.82 35.6-24.02 44.6-43.63-8.7-45.51-29.7-87.62-49.3-129.41-6.1-0.86-3.6 7.32-3.9 10.93-3.7 23.51 4.8 49.36-8.8 70.71-4.1 17.83-17.4 30.65-29.1 43-19.9 5.84-40.1 10.11-59.8 16.14 3.7-5.26 9.1-9.02 13.2-13.98 14.5-4.78 32.2-3.8 43.9-15 24.3-16.24 27.7-48.28 29.9-75.08 2.6-1.69 1.4-11.55 0-12.97 0-3.34-0.1-6.75 0-10.06 1.9-0.17 1.8-9.43 0-8.97-2.4-10.67-1.5-26.19-12.8-31.56-1-4.55 4.2-10.13-1.5-13.13-25.6-27.03-55.5-50.15-84.4-73.61-22-6.11-43.1-15.5-65.7-19.33 0-5.84 8.2-10.75 13.6-10.73 6 0.55 12.2 2.44 18 1.81-27-21.31-56.5-46.44-92.1-48.41-2.6-3.1-10.23 0.09-14.28-0.8-1.15-2.64-6.54-0.37-8.86-1.04-20.64 10.25-47.2 19.04-51.95 44.84 1.87 15.19 7.39 29.79 8.9 45.04-6.63-0.44-13.3-0.01-19.9 0.34-21.19-16.4-47.77-24.71-70.78-38.63-22.61-14.12-48.83-19.97-73.37-29.63-13.18-4.24-25.75-11.9-40.11-10.59-52-9.02-104.68-12.68-157.06-18.74-4.43-0.46-6.76-8.87-11.13-4.01-17.6-0.87-35.05-8.78-45.54-23.13-1.21-6.47 5.02-10.29 6.68-15.87-44.99 12.42-90.24 28.69-129.86 53.04m490.01-12.68c-0.57 6.58 0.5 18.96 0.42 27.76-2.95 1.57-5.98 3.08-9.23 3.89-22.07-10.96-43.59-23.52-67.3-30.81-19.87 3.77-41.97 7.08-60.52 11.95 20.42 7.28 44.24 14.31 65.95 20.86 33.83 14.97 66.02 33.56 100.04 48.07 4.58-1.15 0.44-10.8 1.48-14.61 0.82-7.14-0.94-14.31-0.02-21.47 7.43-7.97 11.66-18.32 18.53-26.63 15.75-9 30.85-21.83 49.89-22.06-18.46-8.57-39.87-14.59-59.18-22.65-15.13 4.28-32.16 11.09-40.06 25.7m429.15 385.79c-1.6 0.11-5.1-1.12-3.7 1.79-0.1 10.06-1.4 24.31 0.6 31.84 6.4 4.42 17 0.59 22.5 7.17 6.2 6.52 12.8 12.72 19 19.22 0.4 4.77-2.2 12.57 0.6 16.03-4.4 27.25-12.4 57.18-32.3 77.69-13.7 5.93-28.2 1.61-42-0.36-9.4 9.88-16.8 21.52-20.6 34.42 8.5 9.53 20.6 15.69 33.6 16.09 18.7-7.68 37.6-15.13 55.4-24.7 24.6-17.49 29.8-48.79 35.9-76.09 2.7-4.02 1.2-15.37 0-19.05v-8.06c2.6-0.09 1.3-10.76 0-10.91-5.7-21.4-18.6-40.9-31.4-58.9-9.1-2.36-18.2-5.34-27.6-6.19-3.4-1.89-6.7-1.88-10 0.01m-1268.2 32.68c-15.41 7.08-30.27 16.39-34.78 33.71-3.19 2.21 0.12 13.23-0.81 17.9-3.13 3.94-0.38 15.5-1.12 21.74-0.39 5.44 0.03 10.87 0.12 16.35-1.82-0.12-2.02 7.21-0.22 7.47 3.42 19.68 15.49 35.56 26.73 51.48 4.84 10.72 16.51 15.67 27.06 18.88 8.45-0.18 16.91-0.12 25.36-0.24 8.62-3.25 16.3-11.7 20.49-20.02-3.67-9.17-7.86-18.24-12.67-26.88-1.12-6.93-13.97-1.62-19.93-4.2-18.09-5.33-34.08-22.87-32.99-42.83-7.48-16.15 4.32-35.07 19.78-41.36-0.7-5.79-0.61-12.12-1.81-17.59-0.66-2.49 2.13-8.4-1.02-8.94-0.31-6.27-9.22-8.49-14.19-5.47m1262.2 16.8c0 31.38-17.2 59-22.9 89.13 9.5 5.94 25 5.19 34.1-1.47 7.4-21.98 19.6-43.21 20.4-66.6-1.6-15.81-16.6-23.78-31.6-21.06m-1252.6 44.21c-0.44 5.83-0.4 11.71-0.12 17.58-0.37 16.33 16.15 25.36 30.92 25.46-4.59-19.01-13.37-36.96-19.36-55.62-6-3.39-12.75 6.92-11.44 12.58m63.81 76.24c2.92 6.6 8.63 11.58 12.3 17.78 26.49 7.36 54.3 10.18 79.62 21.32 44.51 5.7 88.73 14.02 132.96 20.99 4.17 1.79 15.73 1.84 20.05 0 20.35-0.71 38.31 11.44 60.03 9.02 0.74 2.62 6.71 0.12 9.03 0.99 17.24 1.41 34.41 4.39 51.77 4.04 9.41 3.19 24.38-0.22 35.4 0.81 2.07 3.37 13.05 0.17 17.64 0.99 6.67 0.53 13.37 0.08 20.07 0.18 2.89 2.75 11.17 0.3 15.77 0.77 3.38 1.31 7.2 1.64 11.44 1 3.53 0.33 7.02 0.17 10.59 0.25 3.38 1.13 7.15 1.37 11.32 0.71 3.02 1.33 6.71 1.68 11.08 1.04 3.58 0.35 7.12 0.23 10.75 0.21 64.02 1.78 135.04 1.61 199.02 0.01 4.1-0.5 10.75 1.52 13-0.98 2.92-0.01 5.76-0.15 8.73-0.33 4.21 0.71 8.01 0.49 11.42-0.66 3.53-0.04 6.99-0.06 10.54-0.37 4.07 0.13 11.32 1.7 13.14-0.87 3.11-0.27 8.4 1.91 10.3-0.77 2.85-0.15 5.65 0.1 8.53-0.32 2.52-0.26 8.66 2.24 9.12-0.96 2.76-0.26 7.89 2.22 9.3-0.74 2.52 0.05 5.05-0.05 7.59-0.3 2.51-0.27 8.64 2.24 9.11-0.96 2.76-0.26 7.89 2.22 9.31-0.75 2.87-0.01 5.69 0.17 8.6-0.32 2.73-0.18 8.04 2.29 9.35-0.7 44.76-4.14 88.76-13.68 133.46-18.51 17.9-2.49 36.4-4.07 53.7-9.44 16.7-0.71 34.6-6.54 48.5-14.2 2.9-0.23 6.5-0.76 8.4-3.15 6.1-1.78 18.3-1.7 17.3-10.15 7.6-2.6 21.7 0.02 19.5-12.64-28.3 13.96-61.9 16.23-90.9 26.1-60.6 16.58-123.7 18.34-185.72 26.36-4.25-0.78-8.05-0.57-11.42 0.61-3.16 0.06-6.43 0.14-9.53 0.41-3.36 0.34-11.07-2.16-11.93 0.58-5.34 0.55-14.05-1.53-17.37 1.04-7.39-0.05-14.78-0.22-22.13 0.34-6.94-0.33-16.54-1.6-22 0.84-117.92-0.31-235.89-0.19-353.83-0.06-1.82-5.6-8.54-4.23-12.98-4.09-2.92-2.9-10.76-0.13-15.14-0.97-3.47-3.4-13.74 0.18-19.16-0.77-6.66-0.68-13.39-0.35-20.05-0.07-2.22-2.85-11.54-0.47-15.99-1.07-2.46-1.41-6.05-1.76-10.78-1.06-3.69-0.32-7.43-0.06-11.1 0.12-1.06-2.68-6.7-0.28-9.06-0.94-3.68-0.51-7.39-1.11-11.09-1.21-0.16-2.27-5.46-0.74-7.66-0.93-10.04-0.6-21.03-4.86-30.05 1.94-3.76 2.72-5.85-2.84-6.68-5.67-49.89-5.99-99.39-15.36-149.26-21.37-27.93-7.85-55.99-15.22-83.91-23.12m17.67 33.37c6.69 18.59 19.22 36.5 32.88 49.62 5.08-12.64 3.35-27.3 5.32-40.71-12.83-2.31-25.62-5.23-38.2-8.91m1085.7 2.2c-18.3 5.71-36.5 11.77-54.9 17.14-2 16.04 0.4 32.9-0.9 49.2 25.1-14.98 44.8-42.07 55.8-66.34m-1032.6 10.76c2.53 30.94 24.08 54.98 43.22 77.68 20.07-15.1 24.57-41.17 26.78-64.48-23.4-4.02-46.72-8.47-70-13.2m943.84 11.2c-16.6 3.46-33.3 6.56-49.7 10.98-1.8 15.43 0.8 32.7 8.9 45.5 19.5-15.9 41.4-30.24 53.8-52.97 6.9-7.86-9.1-2.86-13-3.51m-851.67 4.75c2.41 10.9 6.46 21.88 10.36 32.41 15.73 15.62 29.98 34.32 51.52 42.32 13.93-18.2 24.97-38.4 25.97-61.7-29.37-3.81-58.36-10.3-87.85-13.03m768.77 8.29c-20.9 4.33-42.3 7.2-63.25 11.22-2.35 20.02 11.05 37.22 18.55 55.12 21.8-8.7 34.1-29.9 49.1-46.71 3-8.33 14.2-26.7-4.4-19.63m-656.74 7.58c1.39 19.26 16.6 32.76 28.02 46.86 11.19 6.4 19.33 23 33.57 17.9 17.12-17.1 39.77-30.6 47.12-54.83-36.09-4.85-72.82-4.29-108.71-9.93m-217.91 19.96c4.35 7.1 8.73 14.3 14.38 20.5 49.04 58 96.81 117.1 145.77 175.2 57.44 55.7 111.96 114.8 168.61 171.2 9.85-4.8 18.87 6.4 28.29 8 27.23 3.2 54.21 8.6 81.64 10 2.63 1.1 5.44 0.9 8.29 1.1 8.1 2.7 22.12 0.3 32.17 0.7 8.88 0.6 17.79 0.3 26.69 0.3 2.34 3.1 10.24-0.2 14.28 0.8 30.23-2.9 60.57-7.8 90.69-12.8 16.22-2.5 32.49-5 48.56-8.5 16.95-3.2 29.42-19.5 47.67-16.7 95.7-106.7 189.41-215.7 282.71-324.7-13.5-3.6-12.6-18.8-14.3-29.8 0.1-2.67 1.6-6.76-0.6-8.55 1.4-10.45-8.6 1.15-8.2 5.96-17.9 13.89-33 32.89-54.6 41.09-12-12.6-14.1-29.4-17.5-45.47-2.7 1.77-2.3 10.37-7 12.37-19 19.1-32.9 44.5-58.7 55.1-15.32-13.2-21.54-33.6-27.07-52.8-0.9-8.87-10.1 3.6-8.58 8.1-6.77 10.3-18.02 17.7-23.26 29-12.84 8.9-18.25 28.3-35.84 29.6-9.03-8.3-18.41-16.4-26.26-25.8-5.83-12.9-9.99-26.5-15.27-39.6-4.81-1.2-3.42 7.3-4.56 9.6-10.54 13.4-18.64 28.6-29.71 41.6-11.19 9.4-23.25 17.8-34.45 27.2-22.72-13.8-29.6-42.1-41.9-63.6-15.99 24.2-31.99 48.8-55.09 66.9-27.15-18.5-41.79-48.6-62.16-73.4 0.4-1.3-0.07-3-1.74-2.5-9.72 16.7-14.93 36.8-30.89 49.1-7.4 6-15.12 23.9-26.25 13.8-17.97-9.2-32.5-23.3-48.2-35.8-9.42-9.9-11.67-26.8-21.47-35-15.92 25.9-36.35 46.8-62.21 62.7-14.63-9.8-28.1-21.4-42.79-31.2-10.97-11.6-15.46-29.9-26.23-40.59-3.16 24.29-22.94 41.09-32.32 62.69-20.77-8.6-37.39-26-56.35-38.2-7.66-10.6-12.73-23.15-20.6-33.79-7.97 21.89-13.16 47.89-34.84 60.19-23.22-14-37.33-39-51.2-61.84-5.38 2.98-6.06 12.5-9.61 17.84m781.37-14.6c-26.08 2.32-52.12 5.06-78.27 6.69 5.32 21.91 11.53 46.81 30.44 60.51 10.22 2 13.08-10.3 20.04-14.9 16.65-13.9 28.55-32.2 35.14-52.78-2.47 0.07-4.92 0.23-7.35 0.48m-433.47 4.35c3.54 7.55 6.82 15.25 10.37 22.85 4.71 17.9 24.21 25.3 35.01 39.1 7.88-4.8 8.58 12.1 17.9 8 24.19-11.6 30.34-39.6 43.71-60.5 6.32-8.52-7.33-4.64-12.03-5.17-3.63-3.4-13.8 0.19-19.3-0.76-14.59-0.08-29.13-1.85-43.72-1.24-3.16-3.49-13.2 0.25-18.26-0.73-4.57-0.49-9.13-1.02-13.68-1.55m246.95 4.49c2.02 24.96 9.23 51.96 29.01 68.56 28.65-13 44.43-41.6 56.88-69.02-10.65 0.23-21.3 0.22-31.95 0.24-5.41-3.34-17.79 0.15-25.22-0.73-9.54-0.47-19.48-2.32-28.72 0.95m-118.91-0.24c2.26 31.4 30.57 51.1 48.99 73.8 5.19-2 11.44-3.2 13.92-8.8 12.44-21.3 32.81-39.5 35.9-64.9-32.93-0.27-65.88-0.03-98.81-0.1z" fill="#040302"/>
  <path d="m840.14 144.05c0.22-2.4 0.47-4.79 0.74-7.19-0.34 2.7-0.61 5.39-0.8 8.1l0.06-0.91z" fill="#6f7052"/>
  <path d="m839.1 155.18c0.13-3.11 0.48-6.22 0.89-9.3-0.24 3.11-0.69 6.19-0.89 9.3z" fill="#161708"/>
  <path d="m827.26 148.13c3.55-0.31 4.49 5.18 2.83 7.66-2.57 10.84 1.08 24.65-5.44 34.09-6.15-2.21-15.74-3.02-18.58-10.13 1.82-13.86 14.37-20.9 21.19-31.62m0.23 7.22c-8.27 4.13-14.29 10.92-17.81 19.41-5.52 7.74 8.86 12.41 14.59 11.75 3.5-9.47 2.82-22.19 3.22-31.16z" fill="#100101"/>
  <path d="m537.18 153.78c0.19 3.8 0.39 7.6 0.59 11.41-0.22-3.81-0.42-7.61-0.59-11.41z" fill="#34341e"/>
  <path d="m547.92 155.3c9.22 5.44 24.9 31.31 3.38 30.65-2.51-9.64-2.31-20.49-3.38-30.65z" fill="#9c0909"/>
  <path d="m827.49 155.35c-0.4 8.97 0.28 21.69-3.22 31.16-5.73 0.66-20.11-4.01-14.59-11.75 3.52-8.49 9.54-15.28 17.81-19.41z" fill="#730303"/>
  <path d="m658.67 158.38c6.85 8.48 17.11 16.15 21.16 26.72-2.18 7.34-9.89 12.19-15.5 17.28-12.04 2.25-22.96-7.49-28.15-17.4 6.64-8.96 12.49-19.55 22.49-26.6m-0.08 2.87c-8.15 6.99-12.81 17.11-20.47 24.64 7.34 6.14 13.65 15.62 24.46 14.89 5.13-5.22 11.24-9.64 15.38-15.75-6.01-8.28-13-15.79-19.37-23.78z" fill="#150001"/>
  <path d="m671.8 160.25c1.65 1 2.96 2.42 3.8 4.16-1.65-1.02-2.92-2.44-3.8-4.16z" fill="#1b1000"/>
  <path d="m599.67 161.44c8.74-1.42 10.49 11.02 16.41 15.5 11.18 8-5.29 13.65-10.14 20.06-7.53-5.05-15.82-9.49-22.7-15.29 2.81-7.83 9.09-15.77 16.43-20.27z" fill="#a30707"/>
  <path d="m658.59 161.25c6.37 7.99 13.36 15.5 19.37 23.78-4.14 6.11-10.25 10.53-15.38 15.75-10.81 0.73-17.12-8.75-24.46-14.89 7.66-7.53 12.32-17.65 20.47-24.64z" fill="#8d0405"/>
  <path d="m712.37 162.27c9.6 3.93 15.66 15.57 23 23.29 0.25 8-9.38 12.5-14.9 17.11-10.89 1.33-16.52-10.4-22.39-17.71 4-7.99 11.07-14.18 14.29-22.69z" fill="#8d0405"/>
  <path d="m774.4 162.18c6.63 1.99 10.64 11.03 15.53 16.09-2.57 8.94-10.31 18.33-19.77 20.6-4.69-4.57-16.74-4.91-15.9-13.2 6.69-7.84 13.17-15.9 20.14-23.49z" fill="#750202"/>
  <path d="m838.12 173.15c0.21-3.13 0.45-6.26 0.76-9.37-0.08 3.14-0.54 6.24-0.76 9.37z" fill="#5f5f44"/>
  <path d="m679.8 168.19c2.04 1.27 3.75 2.97 5.07 4.98-2.43-0.84-4.19-2.57-5.07-4.98z" fill="#1b1000"/>
  <path d="m687.8 176.53c2.26-1.75 4.41-3.63 6.41-5.67-1.35 2.48-2.97 10.42-6.41 5.67z" fill="#1d1201"/>
  <path d="m572.17 187.37c13.77 4.89-12.23 5.62 0 0z" fill="#e2bf32"/>
  <path d="m801.23 187.14c8.53 3.82-10.33 12.47 0 0z" fill="#957d28"/>
  <path d="m836.13 200.13c0.19-3.1 0.42-6.22 0.73-9.31-0.11 3.11-0.52 6.2-0.73 9.31z" fill="#4c4c32"/>
  <path d="m629.41 192.25c13.55 7.02-12.57 10.28 0 0z" fill="#e6be21"/>
  <path d="m687.55 196.19c22.03 2.71-14.37 9.92 0 0z" fill="#e4be24"/>
  <path d="m550.28 204.84c-1.39-6.04 8.75-0.75 11.44-1.49 5.19 3.33 21.83-4.54 20.02 5.49-0.87 6.97-0.86 14-0.75 21.01-4.82 17.38-9.43 35.02-14.98 52.21-5.57-10.01-17.98-17.9-15.79-30.77 1.17-15.42 1.45-31.05 0.06-46.45z" fill="#049634"/>
  <path d="m814.48 202.42c4.04 28.93-10.9 58.88-21.19 86.82-1.16 2.01-2.13 4.92-4.44 5.7-23.9-19.88-29.44-53.77-29.57-83.87 18.58-0.49 37.19-4.13 55.2-8.65z" fill="#026434"/>
  <path d="m550.28 204.84c1.39 15.4 1.11 31.03-0.06 46.45-0.14-15.47-0.71-31 0.06-46.45z" fill="#00400c"/>
  <path d="m540.27 205.77c0.49 2.84 0.33 5.7 0.45 8.58-0.24-2.85-0.51-5.72-0.45-8.58z" fill="#666452"/>
  <path d="m580.99 229.85c-0.11-7.01-0.12-14.04 0.75-21.01-0.43 6.46 1.84 16.4-0.75 21.01z" fill="#00410c"/>
  <path d="m598.99 209.42c5.97-2.71 8.73 7.99 13.03 0.25 17.5-0.22 35.69 2.15 53.48 3.29-9.04 26.39-13.99 56-34.51 76.92-3.2 3.76-7.23 10.89-13.13 7.44-4.7-10.86-10.59-21.24-15.27-32.08-0.72-18.65-2.87-37.21-3.6-55.82z" fill="#039734"/>
  <path d="m723.6 211.58c6.71-0.81 13.51-0.86 20.28-0.44 3.14 21.07-6.94 40.36-11.37 60.36-2.03 12.57-10.28 23.57-18.51 32.37-29.74-19.85-29.37-59.19-33.77-91.1 14.46 0.57 28.95 0.17 43.37-1.19z" fill="#016434"/>
  <path d="m834.13 227.12c0.2-3.1 0.42-6.22 0.73-9.3-0.12 3.11-0.51 6.19-0.73 9.3z" fill="#3c3c22"/>
  <path d="m540.16 241.15c0.23-3.79 0.47-7.57 0.7-11.35-0.22 3.78-0.46 7.56-0.7 11.35z" fill="#63634e"/>
  <path d="m669.06 242.77c7.32 14.18 10.34 30.32 15.74 45.36 4.57 8.58 13.17 14.51 17.69 23.14-4.47 3.75-11.9 0.75-17.42 1.75-17.05-0.11-33.95-2.53-50.91-3.98 11.96-21.68 29.05-41.48 34.9-66.27z" fill="#910202"/>
  <path d="m588.07 253.34c3.35 16.44 12.05 35.13 20.12 51.49-11.59-2.71-23.47-4.06-34.98-7.09 3.66-14.94 13.34-28.86 14.86-44.4z" fill="#9c0303"/>
  <path d="m821.2 253.8c2.14 11.28 2.66 23.3 4.86 34.78-6.82 3-12.68 8.6-19.89 10.41 3.6-15.43 10.05-30.18 15.03-45.19z" fill="#7e0303"/>
  <path d="m750.47 256.35c8.47 13.51 11.96 34.65 24.41 47.65-14.48 7.57-33.48 6.87-49.07 8.92 1.48-14.78 13.22-24.49 18.46-37.67 2.46-6.14 1.96-13.56 6.2-18.9z" fill="#840202"/>
  <path d="m550.11 285.28c10.58 1.94-1.48 13.94 0 0z" fill="#630b0c"/>
  <path d="m858.72 318.47c-1.82-4.48-16.28-10.95-8.58-14.46 19.36 5.68 38.94 9.65 58.86 12.08-5.29 8.34-21.35 7.49-24.41 18.52-2.36 7.51-6.8 14.1-9.67 21.36-0.62 2.51-0.81 5.43-3.88 5.36-14.32-3.95-27.77-9.97-39.99-18.52 7.4-11.89 35.87-10.7 33-27.79-3.35-4.38-2.17 8.8-5.33 3.45z" fill="#9d966c"/>
  <path d="m767.18 321.24c21.88-2.11 42.14-11.54 63.74-14.93 3.78 2.38 8.3 6.67 9.01 11.34-7.63 4.83-15.48 9.3-23.17 14.03-11.88 9.47-28.87 3.18-41.1 12.12-17.82 2.37-35.74 4.67-53.69 6.22-9.59-0.04-19.17 0.06-28.74-0.19-4.68-0.37-9.31-0.79-13.98-1.03-14.37-1.54-28.84-0.59-43.25-0.8-29.05-4.49-58.17-10.2-86.56-18.3-13.97-2.22-5.77-15.87-1.88-22.92 34.91 4.3 69.54 11.02 104.26 16.52 3.02 0.48 6.19 0.72 9.28 0.73 3.51-0.08 7.12-0.18 10.65 0.22 3.07 0.31 6.25 0.76 9.38 0.78 2.51-0.07 5.04 0.01 7.58 0.22 3.16 0.53 6.58 1.48 9.65 0 2.73-0.63 5.69-0.19 8.52-0.24 3.12 0.18 6.39 0.25 9.45-0.7 2.74-0.61 5.72-0.27 8.57-0.3 3.1 0.09 6.45 0.42 9.42-0.84 2.84-0.12 5.82-0.08 8.73-0.13 4.4 0.02 8.89 0.13 13.25-0.67 3.61-0.39 7.24-0.76 10.88-1.13z" fill="#fbca05"/>
  <path d="m398.84 361.85c39.62-24.35 84.87-40.62 129.86-53.04-1.66 5.58-7.89 9.4-6.68 15.87 10.49 14.35 27.94 22.26 45.54 23.13 4.37-4.86 6.7 3.55 11.13 4.01 52.38 6.06 105.06 9.72 157.06 18.74 14.36-1.31 26.93 6.35 40.11 10.59 24.54 9.66 50.76 15.51 73.37 29.63 23.01 13.92 49.59 22.23 70.78 38.63 6.26 0.34 14.66 2.11 19.9-0.34-1.51-15.25-7.03-29.85-8.9-45.04 4.75-25.8 31.31-34.59 51.95-44.84 2.87 0.39 5.92 0.74 8.86 1.04 4.7 0.38 9.48 0.93 14.28 0.8 35.6 1.97 65.1 27.1 92.1 48.41-5.8 0.63-12-1.26-18-1.81-32.2-6.76-69.1-10.66-98.15 7.42-6.41 11.49-22.78 21.3-18.82 35.79-0.15 5.77-0.45 11.58 0.4 17.34 3.1 13.52 7.19 27.99 18.61 36.63-36.89-18.1-74.46-34.99-109.45-56.62-44.31-14.9-86.37-35.48-129.41-53.57-63.67-21.64-130.02-33.08-196.46-41.83-3.99-0.79-8.12-1.35-12.04-0.15-86.56 5.3-172.14 32.8-242.99 83.26-20.82 10.83-32.71 32.04-51.6 45.38-28.4 25.85-52.05 56.84-66.3 92.7-21.11 36.1-14 83.55 9.97 116.1 12.64 5.9 24.19 17.43 38.71 16.84 3.13-0.11 6.3-0.05 9.45-0.07 3.86 0.02 7.72-0.03 11.59-0.14 2.76-0.03 5.61 0.34 8.31-0.48 11.01-3.72 22.7-4.9 33.76-8.25 23.07-17.94 51.26-30.51 66.12-57.08 25.43-27.27 33.03-63.81 35.26-99.87 0.65-3.39 0.68-6.77 0.11-10.14 2.08-23.97-7.22-45.84-19.23-65.93 16.57-19.28 39.36-31.1 61.75-42.22 30.97-5.89 61.34-16.3 92.93-17.98 4.16-0.26 8.41 0.17 12.56-0.48 3.48-0.18 7.03-0.28 10.53-0.51 8.45 0.23 16.92 0.28 25.38 0.03 2.83 0.07 5.76 0.15 8.64 0.31 3.08 0.24 6.25 0.63 9.38 0.76 5.9 0.09 11.75 0.79 17.63 1.27 2.77 0.2 5.63 0.58 8.46 0.67 22.42-1.45 40.67 14.5 62.15 18.77 18.2 2.36 30.4 17.5 46.8 24.18 15.07 6.27 30.12 12.63 45.25 18.72 40.44 28.82 80.61 58.25 123.29 83.72 31 15.23 61.74 31.06 92.69 46.3 39.02 11.4 79.12 19.58 118.22 30.86 23.2-0.84 46.7-9.39 65-23.7 7.2-13.41 24.7-24.15 19-41.35 0-6.14 1.1-12.42-0.3-18.46-11.7-41.3-45.9-74.61-88.4-82.59-11.5 3.44-26.1 3.1-31.2 15.96-1.4 9.81-1.2 19.82-0.1 29.67 5.4 12.12 19.5 17.94 25.2 29.01-11.1 12.21-24.8 1.5-38.6 1.88-18.6-4.71-35.3-15.47-52.3-24.14-0.2-19.49-25.67-26.78-26.51-45.99-4.82-14.99-1.38-34.37 12.11-43.96 8.23-11.73 24.1-7 36.2-9.96 3.1 0.15 6.4 0.37 9.4-0.52 11.2-2.36 22.7-0.27 33.4 3.15 22.6 3.83 43.7 13.22 65.7 19.33 28.9 23.46 58.8 46.58 84.4 73.61 5.7 3 0.5 8.58 1.5 13.13 11.3 5.37 10.4 20.89 12.8 31.56-0.1 2.94-0.1 5.98 0 8.97-0.1 3.31 0 6.72 0 10.06-0.1 4.3-0.1 8.64 0 12.97-2.2 26.8-5.6 58.84-29.9 75.08-11.7 11.2-29.4 10.22-43.9 15-9.1 1.3-18.1 3.71-27.2 5.06-3.5 0.03-6.7 0.13-10.1 0.08-6-0.21-11.9-0.89-17.7-1.33-3.3-0.34-6.3-0.66-9.4-0.76-3-0.19-5.7-0.08-8.6-0.2-3.2-0.25-6.1-0.67-9.2-0.95-3.4-0.58-6.7-0.87-10.1-0.78-31.9-9.04-63-22.12-94.62-32.45-27.45-15.71-57.04-28-81.42-48.6-42.6-31.36-90.12-54.88-135.86-81.14-32.92-19.92-69.4-32.64-104.87-47.15-23.93-5.53-47.9-11.33-72.02-16.08-15.05-1.53-30.22-0.69-45.31-0.59-16.87-0.24-33.74-0.37-50.6-0.03-4.09 1.05-8.95-1.42-12.17 0.98-2.8-0.71-5.57 0.65-8.37 0.54-2.86 0.03-5.62 0.43-8.43 0.63-2.87 0-5.65-0.04-8.46 0.4-8.54 3.26-28.96-0.9-26.55 13.73 30.89 17.28 25.48 56.64 31.48 86.59-3.88 17.8-9.23 35.36-13.44 53.12-18.94 29.57-39.95 58.39-67.92 80.21-10.17 11.18-21.51 21.35-36.44 25.44-18.38 6.98-36.98 13.7-55.09 21.27-39 2.29-78.51 17.98-117.08 5.28-12.04-11.54-30.38-18.81-34.83-36.23-5.16-16.49-21.48-30.2-15.66-48.82 0.35-4.05 0.72-8.06 0.99-12.08 0.33-4.77 0.94-9.49 0.82-14.26-1.44-28.08 19.75-51.35 34.98-72.92 19.53-26.46 38.05-53.67 58.64-79.34 43.69-35.41 89.78-68.44 138.54-96.49 19.58-4.97 37.19-20.19 57.63-19.35z" fill="#c7c196"/>
  <path d="m702.49 311.27c3.33 3.96-15.1 4.29-17.42 1.75 5.52-1 12.95 2 17.42-1.75z" fill="#4e0808"/>
  <path d="m755.35 322.22c1.01-2.87 8.48-0.47 11.83-0.98-3.64 0.37-7.27 0.74-10.88 1.13l-0.95-0.15z" fill="#a98b0c"/>
  <path d="m734.32 323.17c-1.04-3.13 6.56-0.62 8.68-1.12l0.05 0.99c-2.91 0.05-5.89 0.01-8.73 0.13z" fill="#6e5b04"/>
  <path d="m743 322.05c4.1-0.26 8.22-0.2 12.35 0.17l0.95 0.15c-4.36 0.8-8.85 0.69-13.25 0.67l-0.05-0.99z" fill="#eaca42"/>
  <path d="m651.82 323.3c2.59 0.49 7.58-1.7 9.28 0.73-3.09-0.01-6.26-0.25-9.28-0.73z" fill="#bc9b14"/>
  <path d="m724.9 324.01c1.22-3.13 6.66-0.38 9.42-0.84-2.97 1.26-6.32 0.93-9.42 0.84z" fill="#c0a017"/>
  <path d="m888.85 349.17c7.9-14.61 24.93-21.42 40.06-25.7 19.31 8.06 40.72 14.08 59.18 22.65-19.04 0.23-34.14 13.06-49.89 22.06-6.87 8.31-11.1 18.66-18.53 26.63-3.49 6.38-0.42 14.53 0.02 21.47-1.04 3.81 3.1 13.46-1.48 14.61-34.02-14.51-66.21-33.1-100.04-48.07-21.71-6.55-45.53-13.58-65.95-20.86 18.55-4.87 40.65-8.18 60.52-11.95 23.71 7.29 45.23 19.85 67.3 30.81 3.25-0.81 6.28-2.32 9.23-3.89 1.55-8.88 1.33-18.67-0.42-27.76z" fill="#950201"/>
  <path d="m671.75 324.25c2.64 0.61 7.64-1.7 9.38 0.78-3.13-0.02-6.31-0.47-9.38-0.78z" fill="#77600d"/>
  <path d="m706.88 325.01c1.32-3.08 6.68-0.47 9.45-0.7-3.06 0.95-6.33 0.88-9.45 0.7z" fill="#7f690f"/>
  <path d="m688.71 325.25c3.15-0.12 6.45-0.29 9.65 0-3.07 1.48-6.49 0.53-9.65 0z" fill="#533800"/>
  <path d="m636 348c14.41 0.21 28.88-0.74 43.25 0.8-11.43 0.3-22.86 0.11-34.28 0.19-2.42-0.89-7.97 1.56-8.97-0.99z" fill="#ebc323"/>
  <path d="m644.97 348.99c11.42-0.08 22.85 0.11 34.28-0.19l-0.28 0.94c-10.49-0.7-25.3 2.39-34-0.75z" fill="#715d07"/>
  <path d="m679.25 348.8c4.67 0.24 9.3 0.66 13.98 1.03-4.77 0-9.55 0.61-14.26-0.09l0.28-0.94z" fill="#e9c73f"/>
  <path d="m889.27 376.93c0.08-8.8-0.99-21.18-0.42-27.76 1.75 9.09 1.97 18.88 0.42 27.76z" fill="#5d0908"/>
  <path d="m693.23 349.83c9.57 0.25 19.15 0.15 28.74 0.19-6.63 0.89-22.64 2.97-28.74-0.19z" fill="#b2940f"/>
  <path d="m534.88 352.64c3.92-1.2 8.05-0.64 12.04 0.15-4.03-0.08-8.04-0.13-12.04-0.15z" fill="#858062"/>
  <path d="m291.89 435.9c70.85-50.46 156.43-77.96 242.99-83.26 4 0.02 8.01 0.07 12.04 0.15 66.44 8.75 132.79 20.19 196.46 41.83 43.04 18.09 85.1 38.67 129.41 53.57 34.99 21.63 72.56 38.52 109.45 56.62-11.42-8.64-15.51-23.11-18.61-36.63 0.15-5.78 0.76-11.64-0.4-17.34-3.96-14.49 12.41-24.3 18.82-35.79 29.05-18.08 65.95-14.18 98.15-7.42-5.4-0.02-13.6 4.89-13.6 10.73-10.7-3.42-22.2-5.51-33.4-3.15-3.2-0.18-6.3-0.24-9.4 0.52-12.1 2.96-27.97-1.77-36.2 9.96-13.49 9.59-16.93 28.97-12.11 43.96 0.84 19.21 26.31 26.5 26.51 45.99 17 8.67 33.7 19.43 52.3 24.14 13.8-0.38 27.5 10.33 38.6-1.88-5.7-11.07-19.8-16.89-25.2-29.01 0.3-9.9 0.3-19.79 0.1-29.67 5.1-12.86 19.7-12.52 31.2-15.96 42.5 7.98 76.7 41.29 88.4 82.59-0.2 6.12-1 12.39 0.3 18.46 5.7 17.2-11.8 27.94-19 41.35-18.3 14.31-41.8 22.86-65 23.7-39.1-11.28-79.2-19.46-118.22-30.86-30.95-15.24-61.69-31.07-92.69-46.3-42.68-25.47-82.85-54.9-123.29-83.72-15.13-6.09-30.18-12.45-45.25-18.72-16.4-6.68-28.6-21.82-46.8-24.18-21.48-4.27-39.73-20.22-62.15-18.77-2.88-0.2-5.64-0.34-8.46-0.67-5.88-0.48-11.73-1.18-17.63-1.27-3.17-0.29-6.24-0.63-9.38-0.76-2.88-0.16-5.81-0.24-8.64-0.31-8.44-1.19-16.95-1.14-25.38-0.03-3.5 0.23-7.05 0.33-10.53 0.51-4.2 0.1-8.42-0.24-12.56 0.48-31.59 1.68-61.96 12.09-92.93 17.98-22.39 11.12-45.18 22.94-61.75 42.22 12.01 20.09 21.31 41.96 19.23 65.93-0.02 3.34 0.02 6.77-0.11 10.14-2.23 36.06-9.83 72.6-35.26 99.87-14.86 26.57-43.05 39.14-66.12 57.08-11.06 3.35-22.75 4.53-33.76 8.25-2.8-0.07-5.54 0.34-8.31 0.48-3.87 0.11-7.73 0.16-11.59 0.14-3.16-0.54-6.53-1.8-9.45 0.07-14.52 0.59-26.07-10.94-38.71-16.84-23.97-32.55-31.08-80-9.97-116.1 14.25-35.86 37.9-66.85 66.3-92.7 18.89-13.34 30.78-34.55 51.6-45.38m223.33-68.89c-9.8 2.83-19.79 4.82-29.88 6.33-2.81 1.03-8.55-1.09-10.39 1.71-38.1 3.14-73.5 18.35-108.17 33.72-32.22 17.42-66.98 31.08-91.98 59.03-36.44 24.67-60.76 62.01-82.64 99.36-7.5 14.69-9.38 31.43-15.74 46.6 0.97 18.86 0.14 39.69 7.99 56.97 6.16 15.79 22.45 21.59 36.67 28.11 18.86-4.53 38.42-6.09 57.58-8.73 11.86-8.37 26.8-13.54 37.04-23.27 19.6-22.99 41.6-45.47 51.11-75.04 4.51-26.2 10.52-53.02 4.91-79.54-0.58-3.27 0.97-9.34-1.88-11.03-3.56-10.18-9.03-19.98-13.59-29.6-10.35-1.8-21.03-4.15-31.59-4.17-23.11 10.44-39 30.66-50.72 52.36 4.24-0.85 7.23-4.27 11.01-6.12 9.69 0.42 19.44-0.04 29.09 1.26 20.06 7.75 14.47 35.4 7.46 50.87-14.02 12.62-27.4 34.04-49.05 28.83-6.31-9.3-24.37-11.65-21.77-25.33 0.75-4.29 0.52-8.09-0.68-11.4-3.76-22.53 5.83-45.34 22-60.94 9.94-18.3 28.16-28.97 44.54-40.48 13.17-0.43 27.73 3.07 40.25-1.35 21.36-23.65 53.46-31.78 80.77-46.58 23.66-8.17 48.96-10.72 73.19-16.89 9.88 0.4 22.13 1.33 30.21-0.67 3.89 0.13 7.78 0 11.66-0.41 5.85 0.58 11.74 0.41 17.62 0.09 33.63 3.44 67.65 5.77 99.09 18.98 36.08 16.01 72.67 30.9 108.46 47.53 32.68 24.6 67.43 46.31 100.18 70.83 27.38 18.48 58.31 30.83 87.13 46.87 28.49 10.87 57.8 19.59 86.7 29.37 9.9 4.12 24.7-3.11 28.7 10.82 25.1 0.66 53.7 2.63 73.7-15.92 21.2-10.35 25-37.17 16.9-57.31-17.1 20.78-46.2 3.77-68.3 7.23-6.1 8.55-19.3 7-28.1 11.69-14.7-2.1-29-7.18-42.8-12.65-47.23-25.25-95.48-48.76-140.93-77.12-61.7-28.18-124.32-55.1-188.99-75.98-25.99-11.13-54.75-12.13-82.09-17.94-17.77-1.76-34.94-8.06-52.85-8.08-2.11-3.25-9.56 0.29-13.16-0.73-6.52-1.43-13.24-1.41-19.86-1.27-3.7-2.76-15.5-1.14-18.8-0.01m563.78 115.35c-1.7-0.04-1.8 7.28 0 7.41 1.5 6.68-0.3 14.51 2.5 20.69 14.3 9.18 28.1 22.05 44.5 26.52 1.7 2.65 7.4-0.16 10.2 0.72 7.9 2.67 16.8 2.95 23-3.78 4.4-0.01 1.6-10.36 0.9-11.73-4.5-15.53-20.5-24.35-30.9-35.78-16.4-1.41-36.8-17.3-50.2-4.05m-796.01 48.69c-6.81 6.13-21.59 9.13-19 20.65-2.17 1.95-0.58 5.76-0.69 8.44-1.44 6.73-3.42 16.38 5.07 18.97 3.18 1.58 16.06 1.69 19.36-0.09 19.04-7.22 25.73-29 28.2-47.58-8.1-9.97-24.12-9.04-32.94-0.39z" fill="#070302"/>
  <path d="m871.04 361.33c3.07 0.07 3.26-2.85 3.88-5.36 2.05 3.06-1.54 8.13-3.88 5.36z" fill="#4f4e3a"/>
  <path d="m982.96 359.19c2.32 0.67 7.71-1.6 8.86 1.04-2.94-0.3-5.99-0.65-8.86-1.04z" fill="#3e3b28"/>
  <path d="m991.82 360.23c4.05 0.89 11.68-2.3 14.28 0.8-4.8 0.13-9.58-0.42-14.28-0.8z" fill="#847f69"/>
  <path d="m515.22 367.01c3.3-1.13 15.1-2.75 18.8 0.01-6.28 0.07-12.54-0.07-18.8-0.01z" fill="#630f0e"/>
  <path d="m485.34 373.34c10.09-1.51 20.08-3.5 29.88-6.33 6.26-0.06 12.52 0.08 18.8 0.01 6.62-0.14 13.34-0.16 19.86 1.27 4.34 0.52 8.76 0.79 13.16 0.73 17.91 0.02 35.08 6.32 52.85 8.08 27.34 5.81 56.1 6.81 82.09 17.94 64.67 20.88 127.29 47.8 188.99 75.98 45.45 28.36 93.7 51.87 140.93 77.12 13.8 5.47 28.1 10.55 42.8 12.65 8.8-4.69 22-3.14 28.1-11.69 22.1-3.46 51.2 13.55 68.3-7.23 8.1 20.14 4.3 46.96-16.9 57.31-20 18.55-48.6 16.58-73.7 15.92-4-13.93-18.8-6.7-28.7-10.82-28.9-9.78-58.21-18.5-86.7-29.37-28.82-16.04-59.75-28.39-87.13-46.87-32.75-24.52-67.5-46.23-100.18-70.83-35.79-16.63-72.38-31.52-108.46-47.53-31.44-13.21-65.46-15.54-99.09-18.98-5.85-0.75-11.81-1.3-17.62-0.09-3.88 0.41-7.77 0.54-11.66 0.41-10.03 0.64-20.34-1.5-30.21 0.67-24.23 6.17-49.53 8.72-73.19 16.89-27.31 14.8-59.41 22.93-80.77 46.58-12.52 4.42-27.08 0.92-40.25 1.35-16.38 11.51-34.6 22.18-44.54 40.48-16.17 15.6-25.76 38.41-22 60.94 0.21 3.79 0.43 7.59 0.68 11.4-2.6 13.68 15.46 16.03 21.77 25.33 21.65 5.21 35.03-16.21 49.05-28.83 4.82 7.09-10.73 8.3-10.37 16.25-0.02 4.36-3.82 2.82-6.2 3.9-3.2 11.39-16.2 7.43-24.73 13.47-7.05 4.31-9.35-6.85-15.69-3.61 1-8.59-10.97-11.27-15.97-15.18-0.3-13.44-2.67-26.83-2.18-40.27 0.44-7.47 7.84-16.28 1.96-22.99-2.31-6.09 5.89 5.22 5.51-0.6-0.58-4.84 6.5-5.5 2.51-9.65 5.75 1.61 9.32-6.04 10.38-10.86 7.5-3.64 10.23-14.82 16.53-19.65 9.97-5.59 17.32-14.88 27.89-19.98-21.18-8.52-31.72 17.02-48.62 24.75-6.32 6.85-16.35 10.57-20.24 19.16 1.36 5.16-4.31 7.48-8.25 8.84-7.45 10.63-13.78 21.61-22.33 31.37-5.85 4.5 3.71 8.32-4.59 9.3-16.12 18.88-20.74 45.9-28.77 68.78 5.83 17.65-2.51 39.68 11.43 54.36 3.98 4.97 7.76 11.7 13.88 13.39 4.2-3.92 1.92 2.74 5.93 3.78 14.62 10.41 31.87-1.69 47.55-0.23 7.87-3.66 26.31 0.93 27.78-9.52 3.33 1.78 8.47-0.61 7.59-4.76 7.44 0.28 14.17-8.82 23.2-9.04-10.24 9.73-25.18 14.9-37.04 23.27-19.16 2.64-38.72 4.2-57.58 8.73-14.22-6.52-30.51-12.32-36.67-28.11-7.85-17.28-7.02-38.11-7.99-56.97 6.36-15.17 8.24-31.91 15.74-46.6 21.88-37.35 46.2-74.69 82.64-99.36 25-27.95 59.76-41.61 91.98-59.03 34.67-15.37 70.07-30.58 108.17-33.72 3.54-0.02 6.96-0.93 10.39-1.71z" fill="#960201"/>
  <path d="m553.88 368.29c3.6 1.02 11.05-2.52 13.16 0.73-4.4 0.06-8.82-0.21-13.16-0.73z" fill="#4f0808"/>
  <path d="m474.95 375.05c1.84-2.8 7.58-0.68 10.39-1.71-3.43 0.78-6.85 1.69-10.39 1.71z" fill="#500405"/>
  <path d="m552.62 390.61c5.81-1.21 11.77-0.66 17.62 0.09-5.88 0.32-11.77 0.49-17.62-0.09z" fill="#4d0000"/>
  <path d="m510.75 391.69c9.87-2.17 20.18-0.03 30.21-0.67-8.08 2-20.33 1.07-30.21 0.67z" fill="#550807"/>
  <path d="m919.69 416.28c-0.44-6.94-3.51-15.09-0.02-21.47-0.92 7.16 0.84 14.33 0.02 21.47z" fill="#4b0303"/>
  <path d="m545.81 403.77c8.43-1.11 16.94-1.16 25.38 0.03-8.46 0.25-16.93 0.2-25.38-0.03z" fill="#9e997c"/>
  <path d="m522.72 404.76c4.14-0.72 8.36-0.38 12.56-0.48-4.15 0.65-8.4 0.22-12.56 0.48z" fill="#676451"/>
  <path d="m579.83 404.11c3.14 0.13 6.21 0.47 9.38 0.76-3.13-0.13-6.3-0.52-9.38-0.76z" fill="#686551"/>
  <path d="m606.84 406.14c2.82 0.33 5.58 0.47 8.46 0.67-2.83-0.09-5.69-0.47-8.46-0.67z" fill="#76745b"/>
  <path d="m1023.8 415.73c3.1-0.76 6.2-0.7 9.4-0.52-3 0.89-6.3 0.67-9.4 0.52z" fill="#827f61"/>
  <path d="m920.01 449.41c6.6-0.35 13.27-0.78 19.9-0.34-5.24 2.45-13.64 0.68-19.9 0.34z" fill="#918d71"/>
  <path d="m963.23 450.84c1.16 5.7 0.55 11.56 0.4 17.34-0.85-5.76-0.55-11.57-0.4-17.34z" fill="#58563c"/>
  <path d="m468.03 454.13c3.22-2.4 8.08 0.07 12.17-0.98-4.07 0.3-8.14 0.41-12.17 0.98z" fill="#949178"/>
  <path d="m480.2 453.15c16.86-0.34 33.73-0.21 50.6 0.03 15.05 1.55 30.21 0.79 45.31 0.59 24.12 4.75 48.09 10.55 72.02 16.08 35.47 14.51 71.95 27.23 104.87 47.15 45.74 26.26 93.26 49.78 135.86 81.14 24.38 20.6 53.97 32.89 81.42 48.6 31.62 10.33 62.72 23.41 94.62 32.45 3.3 0.47 6.7 0.65 10.1 0.78 2.9 0.67 6.1 0.64 9.2 0.95 2.9 0.12 5.6 0.01 8.6 0.2 3 0.2 6.2 0.58 9.4 0.76 5.8 0.44 11.7 1.12 17.7 1.33 3.3 0.85 6.7 0.82 10.1-0.08 9.1-1.35 18.1-3.76 27.2-5.06-4.1 4.96-9.5 8.72-13.2 13.98 19.7-6.03 39.9-10.3 59.8-16.14 11.7-12.35 25-25.17 29.1-43 13.6-21.35 5.1-47.2 8.8-70.71 0.3-3.61-2.2-11.79 3.9-10.93 19.6 41.79 40.6 83.9 49.3 129.41-9 19.61-30.1 28.81-44.6 43.63-15.5 7.81-30.7 17.35-47.3 21.39-1.4 2.53-11 6.92-5.8 8.7-16.4 2.73-32.8 5.75-49.1 8.92-5.4-0.13-10.7-0.19-16.1-0.22-28.9-2.8-57.6-7.8-86.6-9.29-39.3-10.1-77.6-23.99-115.21-39.02-24.54-15.58-49.88-33.93-74.08-46.86-58.83-41.8-124.03-73.46-186.21-109.83-27.57-11.83-56.86-19.4-84.21-31.82-26.48-6.9-54.06-7.97-80.86-13.23-2.87 21.73-2.99 44.22-10.75 65.04-12.2 35.12-17.67 73.18-38.05 104.96-8.84 18.13-17.44 36.65-31.73 51.25-15.03 15.53-25 37.35-46.05 45.7-15.55-8.89-25.88 9.13-39.68 12.61-30.69 8.03-58.88 24.31-91.1 25.74-26.07 5.12-52.98 8.89-78.97 2.15-14.27-8.59-32.39-6.08-46.44-14.63-9.25-8.21-19.87-14.66-29.33-22.58-31.48-36.73-11.17-88.03-3.28-128.81 3.15-0.66 9.56-3.45 8.06 2.59-2.48 17.09 5.05 32.34 14.03 46.42 6.51 19.66 24.32 31.55 37.68 46.26 36.41 14.43 75.36 1.53 113.22-0.17 29.07-11.38 59.82-19.51 87.72-33-6.49-1.31-13.61-0.4-20.26-1.79 14.93-4.09 26.27-14.26 36.44-25.44 27.97-21.82 48.98-50.64 67.92-80.21 4.21-17.76 9.56-35.32 13.44-53.12-6-29.95-0.59-69.31-31.48-86.59-2.41-14.63 18.01-10.47 26.55-13.73 2.79-0.15 5.65-0.15 8.46-0.4 2.81-0.2 5.57-0.6 8.43-0.63 2.77-0.07 5.67 0.36 8.37-0.54 4.03-0.57 8.1-0.68 12.17-0.98m-39.06 16.07c7.27 23.38 18.66 46.11 17.24 71.48 0.29 3.78-2.16 9.88 0.61 12.39 3.82 19.04-7.27 36.28-11.67 54.25-2.61 17.42-18 28.15-26.39 42.58-15.85 27.31-44.16 43.12-66.15 64.84-4.54 4.85-10.44 8.43-16.86 10.15-25.91 8.39-50.94 19.5-77.12 26.95-37.36 1.55-75.86 14.53-112 0.36-19.41-17.45-37.4-36.48-46.49-61.49-9.15-9.82-5.84-23.33-7.4-35.42-5.16 0.01-4.74 9.01-6.42 13.17-5.13 30.49-17.73 62.32-6.59 92.62 8.32 21.89 28.94 33.17 46.86 46.23 22.38 1.71 41.57 15.47 64.22 13.69 5.93 1.75 19.08 1.73 24.97 0 34.75-4.19 69.04-10.64 101.35-24.75 26.13-4.9 45.55-23.83 68.79-35.13 30.15-28.11 52.03-63.63 69.12-100.98 13.49-51.72 35.13-101.98 35.51-156.22 11.23-2.62 23.1 0.15 34.54-1.25 18.24 1.7 35.48 9.23 54.01 8.74 11.07 4.52 20.71 14.2 33.69 11.64 27.23 11.33 54.89 22.5 82.05 33.71 6.32-3.14 3.45 5.73 8.27 6.98 58.97 30.15 115.09 65.39 170.71 101.24 73.55 51.78 162.51 79.03 251.51 86.47 28.3-3.77 56.6-7.59 85-10.94 21.9-8.87 42.6-20.71 59.6-37.48 11-7.61 27.1-21.04 17.3-35.52-8.8-39.92-27.7-76.14-44.7-112.94-2 11.6-1.5 23.69-1.7 35.46-2.6 6.33-0.4 17.87-0.6 26.1-8.3 23.88-19 48.31-40.2 63.17-20.8 4.75-41.4 10.25-61.9 16.11-4.2-0.31-8.3-0.35-12.5-0.13-11.9-1.43-23.9-1.81-35.8-2.26-2.3-3.15-10.4 0.1-14.3-0.71-60.2-5.06-114.71-34.48-167.88-61.13-43.38-34.17-90.29-63.93-138.85-89.74-6.21 1.78-9.84-4.38-14.13-7.45-26.33-12.85-52.47-26.1-78.72-39.12-33.13-12.17-67.95-21.43-102.12-29.9-9.07-3.25-24.38 0.14-35.24-0.73-4.91-0.53-9.88-0.32-14.79-0.24-3.55-3.37-13.82 0.19-19.29-0.71-21.93-0.8-44.1 1.14-65.54 5.91z" fill="#080202"/>
  <path d="m530.8 453.18c15.09-0.1 30.26-0.94 45.31 0.59-15.1 0.2-30.26 0.96-45.31-0.59z" fill="#959178"/>
  <path d="m459.66 454.67c2.8 0.11 5.57-1.25 8.37-0.54-2.7 0.9-5.6 0.47-8.37 0.54z" fill="#504d35"/>
  <path d="m262.52 481.41c16.9-7.73 27.44-33.27 48.62-24.75-10.57 5.1-17.92 14.39-27.89 19.98-6.3 4.83-9.03 16.01-16.53 19.65-1.06 4.82-4.63 12.47-10.38 10.86 3.99 4.15-3.09 4.81-2.51 9.65 0.38 5.82-7.82-5.49-5.51 0.6 5.88 6.71-1.52 15.52-1.96 22.99-0.49 13.44 1.88 26.83 2.18 40.27 5 3.91 16.97 6.59 15.97 15.18 6.34-3.24 8.64 7.92 15.69 3.61 8.53-6.04 21.53-2.08 24.73-13.47 2.38-1.08 6.18 0.46 6.2-3.9-0.36-7.95 15.19-9.16 10.37-16.25 7.01-15.47 12.6-43.12-7.46-50.87-8.23-4.28-20.01-2.05-29.09-1.26-3.78 1.85-6.77 5.27-11.01 6.12 11.72-21.7 27.61-41.92 50.72-52.36 10.56 0.02 21.24 2.37 31.59 4.17 4.56 9.62 10.03 19.42 13.59 29.6 0.29 3.73 1.17 7.35 1.88 11.03 5.61 26.52-0.4 53.34-4.91 79.54-9.51 29.57-31.51 52.05-51.11 75.04-9.03 0.22-15.76 9.32-23.2 9.04 0.88 4.15-4.26 6.54-7.59 4.76-1.47 10.45-19.91 5.86-27.78 9.52-15.68-1.46-32.93 10.64-47.55 0.23-4.01-1.04-1.73-7.7-5.93-3.78-6.12-1.69-9.9-8.42-13.88-13.39-13.94-14.68-5.6-36.71-11.43-54.36 8.03-22.88 12.65-49.9 28.77-68.78 8.3-0.98-1.26-4.8 4.59-9.3 8.55-9.76 14.88-20.74 22.33-31.37 3.94-1.36 9.61-3.68 8.25-8.84 3.89-8.59 13.92-12.31 20.24-19.16z" fill="#980100"/>
  <path d="m442.77 455.7c2.81-0.44 5.59-0.4 8.46-0.4-2.81 0.25-5.67 0.25-8.46 0.4z" fill="#85826c"/>
  <path d="m441.14 469.22c21.44-4.77 43.61-6.71 65.54-5.91 6.4 0.51 12.85 0.96 19.29 0.71 4.91-0.08 9.88-0.29 14.79 0.24 11.7 1.3 23.49 0.7 35.24 0.73 34.17 8.47 68.99 17.73 102.12 29.9 26.25 13.02 52.39 26.27 78.72 39.12 4.29 3.07 7.92 9.23 14.13 7.45 48.56 25.81 95.47 55.57 138.85 89.74 53.17 26.65 107.68 56.07 167.88 61.13 4.7 0.27 9.5 0.76 14.3 0.71 11.9 0.45 23.9 0.83 35.8 2.26 4.1 0.38 8.4 1.32 12.5 0.13 20.5-5.86 41.1-11.36 61.9-16.11 21.2-14.86 31.9-39.29 40.2-63.17 0.9-8.67 0.7-17.41 0.6-26.1 0.2-11.77-0.3-23.86 1.7-35.46 17 36.8 35.9 73.02 44.7 112.94 9.8 14.48-6.3 27.91-17.3 35.52-17 16.77-37.7 28.61-59.6 37.48-28.4 3.35-56.7 7.17-85 10.94-89-7.44-177.96-34.69-251.51-86.47-55.62-35.85-111.74-71.09-170.71-101.24-4.82-1.25-1.95-10.12-8.27-6.98-27.16-11.21-54.82-22.38-82.05-33.71-12.98 2.56-22.62-7.12-33.69-11.64-18.53 0.49-35.77-7.04-54.01-8.74-10.27 1.03-26.95-4.7-34.54 1.25-0.38 54.24-22.02 104.5-35.51 156.22-17.09 37.35-38.97 72.87-69.12 100.98-23.24 11.3-42.66 30.23-68.79 35.13-32.31 14.11-66.6 20.56-101.35 24.75-8.33-0.02-16.65-0.14-24.97 0-22.65 1.78-41.84-11.98-64.22-13.69-17.92-13.06-38.54-24.34-46.86-46.23-11.14-30.3 1.46-62.13 6.59-92.62 1.68-4.16 1.26-13.16 6.42-13.17 1.56 12.09-1.75 25.6 7.4 35.42 9.09 25.01 27.08 44.04 46.49 61.49 36.14 14.17 74.64 1.19 112-0.36 26.18-7.45 51.21-18.56 77.12-26.95 6.42-1.72 12.32-5.3 16.86-10.15 21.99-21.72 50.3-37.53 66.15-64.84 8.39-14.43 23.78-25.16 26.39-42.58 4.4-17.97 15.49-35.21 11.67-54.25-0.16-4.15 0.02-8.31-0.61-12.39 1.42-25.37-9.97-48.1-17.24-71.48z" fill="#8d0302"/>
  <path d="m506.68 463.31c5.47 0.9 15.74-2.66 19.29 0.71-6.44 0.25-12.89-0.2-19.29-0.71z" fill="#580202"/>
  <path d="m540.76 464.26c10.86 0.87 26.17-2.52 35.24 0.73-11.75-0.03-23.54 0.57-35.24-0.73z" fill="#390202"/>
  <path d="m1079 482.36c13.4-13.25 33.8 2.64 50.2 4.05 10.4 11.43 26.4 20.25 30.9 35.78-0.2 3.9-0.6 7.81-0.9 11.73-6.2 6.73-15.1 6.45-23 3.78-3.5-0.52-6.8-0.72-10.2-0.72-16.4-4.47-30.2-17.34-44.5-26.52-2.8-6.18-1-14.01-2.5-20.69v-7.41z" fill="#fbca05"/>
  <path d="m1067.7 508.89c-1.1-9.85-1.3-19.86 0.1-29.67 0.2 9.88 0.2 19.77-0.1 29.67z" fill="#979377"/>
  <path d="m1079 489.77c-1.8-0.13-1.7-7.45 0-7.41v7.41z" fill="#624a00"/>
  <path d="m369.84 501.23c2.85 1.69 1.3 7.76 1.88 11.03-0.71-3.68-1.59-7.3-1.88-11.03z" fill="#530503"/>
  <path d="m492.72 503.94c7.59-5.95 24.27-0.22 34.54-1.25-11.44 1.4-23.31-1.37-34.54 1.25z" fill="#400"/>
  <path d="m284.95 513.7c9.08-0.79 20.86-3.02 29.09 1.26-9.65-1.3-19.4-0.84-29.09-1.26z" fill="#690c0c"/>
  <path d="m504.83 513.05c26.8 5.26 54.38 6.33 80.86 13.23 27.35 12.42 56.64 19.99 84.21 31.82 62.18 36.37 127.38 68.03 186.21 109.83 24.2 12.93 49.54 31.28 74.08 46.86 37.61 15.03 75.91 28.92 115.21 39.02 29 1.49 57.7 6.49 86.6 9.29 5.3 1 10.8 1.35 16.1 0.22 16.3-3.17 32.7-6.19 49.1-8.92 22.3-0.09 39.8-14.87 58.9-24.31 15-6.37 25-19.73 36.9-30.13 1.1 6.37 4.7 12.01 6 18.28v65.73c-1.6 11.92-5.8 23.75-7.8 35.43-14-0.58-28.9 3.93-41.5 7.72-3.5-0.37-7.1 0.74-10.5 1.16-5.5-0.08-10.9-0.26-16.4-0.12-11.5-0.3-23.1 0-34.6-0.31-16.7-1.88-33.5-0.38-50.2-0.86l-1 0.01c-13.9-2.13-28.2-0.7-42.2-0.72-35.4-6.39-70.3-16.04-105.43-23.61-44.07-21.32-88.71-41.66-132.47-63.56-56.19-36.57-112.47-73.07-169.19-108.82-46.45-25.38-96.06-50.46-150.19-50.24-3.68 5.48-8.33 12.51-4.85 19.24 10.33 35.6 6.49 72.68 0.24 108.51-9.42 15.62-19.27 31.11-27.81 47.3-9.46 18.31-26.37 31.15-37.93 47.9-37.1 26.34-76.86 49.86-117.59 70.61-32.48 8.75-64.31 20.94-98.11 23.82-17.67 1.49-35 5.45-52.56 7.58-4.3-0.07-8.59 0.01-12.88-0.02-24.71-3.49-50.68-5.61-73.5-16.49-18.64-27.15-23.48-60.83-33.61-91.73-0.01-5.31 0.23-10.61 0.87-15.85 23.6 35.49 66.06 49.79 106.26 55.37 4.31 0.52 8.92 1.67 13.12 0.01 10.32-2.97 21.19-2.07 31.77-3.24 2.76-0.2 5.57-0.24 8.33-0.66 28.54-1.91 54.12-16.24 81.33-23.79 21.27-4.72 38.43-19.03 57.65-28.61 21.05-8.35 31.02-30.17 46.05-45.7 14.29-14.6 22.89-33.12 31.73-51.25 20.38-31.78 25.85-69.84 38.05-104.96 7.76-20.82 7.88-43.31 10.75-65.04z" fill="#b4ac86"/>
  <path d="m1160.1 522.19c0.7 1.37 3.5 11.72-0.9 11.73 0.3-3.92 0.7-7.83 0.9-11.73z" fill="#897317"/>
  <path d="m282.99 531.05c8.82-8.65 24.84-9.58 32.94 0.39-2.47 18.58-9.16 40.36-28.2 47.58-6.46-0.01-12.91-0.11-19.36 0.09-8.49-2.59-6.51-12.24-5.07-18.97 0.29-2.85 0.7-5.61 0.69-8.44-2.59-11.52 12.19-14.52 19-20.65z" fill="#fbca05"/>
  <path d="m387.27 530.89c0.57 3.37 0.54 6.75-0.11 10.14 0.13-3.37 0.09-6.8 0.11-10.14z" fill="#6f6c55"/>
  <path d="m1126 536.98c3.4 0 6.7 0.2 10.2 0.72-2.8-0.88-8.5 1.93-10.2-0.72z" fill="#8b7414"/>
  <path d="m458.38 540.7c0.63 4.08 0.45 8.24 0.61 12.39-2.77-2.51-0.32-8.61-0.61-12.39z" fill="#4a0101"/>
  <path d="m1187.4 545.85c1.4 6.04 0.3 12.32 0.3 18.46-1.3-6.07-0.5-12.34-0.3-18.46z" fill="#6e6b57"/>
  <path d="m263.3 560.14c0.11-2.68-1.48-6.49 0.69-8.44 0.01 2.83-0.4 5.59-0.69 8.44z" fill="#b19429"/>
  <path d="m1231 555.99c1.8-0.46 1.9 8.8 0 8.97-0.1-2.99-0.1-6.03 0-8.97z" fill="#76745b"/>
  <path d="m250 557.93c1.2 3.31 1.43 7.11 0.68 11.4-0.25-3.81-0.47-7.61-0.68-11.4z" fill="#4b0504"/>
  <path d="m1231 575.02c1.4 1.42 2.6 11.28 0 12.97-0.1-4.33-0.1-8.67 0-12.97z" fill="#76755a"/>
  <path d="m268.37 579.11c6.45-0.2 12.9-0.1 19.36-0.09-3.3 1.78-16.18 1.67-19.36 0.09z" fill="#bea234"/>
  <path d="m537.52 580.05c54.13-0.22 103.74 24.86 150.19 50.24 56.72 35.75 113 72.25 169.19 108.82 43.76 21.9 88.4 42.24 132.47 63.56 35.13 7.57 70.03 17.22 105.43 23.61 14 1.48 28.2 0.36 42.2 0.72l1-0.01c16.6 2.14 33.4 0.68 50.2 0.86 11.5 0.31 23.1 0.01 34.6 0.31 5.5 0.73 11 1.4 16.4 0.12 3.4-0.42 7-1.53 10.5-1.16-0.7 3.89-8.1 5.55-8.2 10.47 14.8-0.13 28.2-3.48 41.6-9.54 2.9-2.25 9.3 0.23 7.3 4.43-5.8 17.89-9 37.26-20.2 52.71-17.9 18.08-43.6 21.23-66.2 28.8-4.6 2.66-8.9-2.28-11.1-5.86-5.2 2.39-10.8 8.06-16.6 3.8-20.8-1.44-41.2-1.84-61.6-4.62-5.9-3.31-10.5 2.91-14.1 6.77-37.8-2.56-73.2-17.85-110.1-25.58-32.83-6.19-61.72-23.79-93.34-33.64-35.73-14.46-69.03-34.19-104.25-49.74-54.93-35.43-106.87-75.56-163.07-108.96-5.42 7.01-4.9 19.79-8 28.62-7.69 22.96-20.25 43.9-29.96 66-21.95 25.05-43.89 50.19-66.09 75.01-16.01 12.83-33.12 24.39-50.53 35.25-4.75-2.18-11.14-3.77-15.72-0.83-20.43 16.15-45.27 24.34-68.27 36.1-14.77 4.89-30.37 4.66-45.76 4.06-1.83-0.01-3.86-2.63-1.31-3.49 35.59 8.54 67.25-13.07 97.72-27.95 24.24-15.5 47.22-32.95 71.38-48.6 16.99-16.34 31.76-34.89 48.46-51.56 19.78-15.18 25.08-41.03 37.35-61.63 12.76-18.16 9.98-42.27 18.29-61.83 23.27-5.92 42.13 13.51 60.47 24.81 33.14 28.21 73.09 46.61 106.84 74.1 7.55 9.64 21.82 4.91 28.21 15.99 41.35 22.78 85.72 39.92 128.99 58.86 28.64 15.24 61.29 19.55 91.49 30.53 50.2 11.65 102.2 19.52 153.4 19.2 7.8-9.14 10.9 7.74 18.6 2.61 22.5-9.2 49.5-10.98 65.8-31.28 8.1-15.62 12.5-33.04 16.7-49.95-11.4 0.93-21.2 8.12-32.6 9.2-24.3 0.12-49.7-1.93-73.3 0.72-10.5-0.08-20.9-0.55-31.2 0.66-52.7 5.02-103-13.64-153.97-23.57-35.96-14.85-71.56-30.72-106.83-47.18-28.36-16.28-57.27-31.57-86.23-46.76-47.42-37.23-100.78-66.58-150.95-100.15-15.3-5.86-31.12-10.49-45.73-18.13-16.85-10.77-37.73-6.92-56.12-12.99-1.05 18.03 2.78 37.32 0.85 55.82-1.28 9.08-0.85 18.24-0.56 27.38 0.28 35.72-21.95 63.65-39.3 92.75-33.81 45.64-85.35 71.69-129.93 105.24-11.62 4.88-24.01 7.58-35.76 12.13 10.09-10.28 28.61-8.25 40.14-17.92 28.41-21.1 57.97-40.73 86.9-61.1 4.49-3.21-3.69-2.59-6.14-3.28 11.56-16.75 28.47-29.59 37.93-47.9 8.54-16.19 18.39-31.68 27.81-47.3 6.25-35.83 10.09-72.91-0.24-108.51-3.48-6.73 1.17-13.76 4.85-19.24z" fill="#070202"/>
  <path d="m1242.4 616.15c0.2-8.23-2-19.77 0.6-26.1 0.1 8.69 0.3 17.43-0.6 26.1z" fill="#4f0101"/>
  <path d="m550.97 591.98c18.39 6.07 39.27 2.22 56.12 12.99 14.61 7.64 30.43 12.27 45.73 18.13 50.17 33.57 103.53 62.92 150.95 100.15 28.96 15.19 57.87 30.48 86.23 46.76 35.27 16.46 70.87 32.33 106.83 47.18 50.97 9.93 101.27 28.59 153.97 23.57 10.3 0.1 20.8 1 31.2-0.66 24.4-0.74 48.9 0.92 73.3-0.72 11.4-1.08 21.2-8.27 32.6-9.2-4.2 16.91-8.6 34.33-16.7 49.95-16.3 20.3-43.3 22.08-65.8 31.28-7.7 5.13-10.8-11.75-18.6-2.61-51.2 0.32-103.2-7.55-153.4-19.2-30.2-10.98-62.85-15.29-91.49-30.53-43.27-18.94-87.64-36.08-128.99-58.86-6.39-11.08-20.66-6.35-28.21-15.99-33.75-27.49-73.7-45.89-106.84-74.1-18.34-11.3-37.2-30.73-60.47-24.81-8.31 19.56-5.53 43.67-18.29 61.83-12.27 20.6-17.57 46.45-37.35 61.63-16.7 16.67-31.47 35.22-48.46 51.56-24.16 15.65-47.14 33.1-71.38 48.6-30.47 14.88-62.13 36.49-97.72 27.95-24.18-4.05-49.46-3.16-72.73-11.36-19.27 3.86-37.33-10.19-55.38-9.41 44.52-4.87 88.8-13.08 130.18-30.81 11.75-4.55 24.14-7.25 35.76-12.13 44.58-33.55 96.12-59.6 129.93-105.24 17.35-29.1 39.58-57.03 39.3-92.75 1.08-9.1 0.79-18.26 0.56-27.38 1.93-18.5-1.9-37.79-0.85-55.82z" fill="#800101"/>
  <path d="m108.23 644.21c0.9-4.08-2.32-11.8 0.82-14.26 0.12 4.77-0.49 9.49-0.82 14.26z" fill="#757158"/>
  <path d="m107.24 656.29c1.17-2.84-2.46-11.2 0.99-12.08-0.27 4.02-0.64 8.03-0.99 12.08z" fill="#302e1c"/>
  <path d="m551.26 675.18c-0.29-9.14-0.72-18.3 0.56-27.38 0.23 9.12 0.52 18.28-0.56 27.38z" fill="#4b0807"/>
  <path d="m1064.9 679.19c3.4-0.09 6.7 0.2 10.1 0.78-3.4-0.13-6.8-0.31-10.1-0.78z" fill="#7e7b64"/>
  <path d="m1075 679.97c3.1 0.28 6 0.7 9.2 0.95-3.1-0.31-6.3-0.28-9.2-0.95z" fill="#3a3722"/>
  <path d="m1092.8 681.12c3.1 0.1 6.1 0.42 9.4 0.76-3.2-0.18-6.4-0.56-9.4-0.76z" fill="#696551"/>
  <path d="m1119.9 683.21c3.4 0.05 6.6-0.05 10.1-0.08-3.4 0.9-6.8 0.93-10.1 0.08z" fill="#5c5b48"/>
  <path d="m1077.7 692.33c3.9 0.81 12-2.44 14.3 0.71-4.8 0.05-9.6-0.44-14.3-0.71z" fill="#460506"/>
  <path d="m1127.8 695.3c4.2-0.22 8.3-0.18 12.5 0.13-4.1 1.19-8.4 0.25-12.5-0.13z" fill="#4b0101"/>
  <path d="m621.84 724.78c3.1-8.83 2.58-21.61 8-28.62 56.2 33.4 108.14 73.53 163.07 108.96 35.22 15.55 68.52 35.28 104.25 49.74 31.62 9.85 60.51 27.45 93.34 33.64 36.9 7.73 72.3 23.02 110.1 25.58 16.3 3.33 34 4.27 49.6 8.81-26.4 6.04-53.6 10.35-80.2 16.05-29.8-4.78-60.2-6.34-89.75-12.36-19.44-5.82-40.41-4.86-59.36-12.47-70.31-26.59-143.65-46.8-208.76-85.24-18.02-13.34-33.94-29.4-52.15-42.4-5.81 1.07-14.52 0.13-14.04 8.59-4.74 34.25-25.85 62.24-41.97 91.83-1.36 1.7-3.35 2.73-5 4.12-1.95 1.71-3.42 3.86-4.94 5.95-16.56 21.52-40.25 35.73-60.65 52.79-4.77 0.55-9.45-0.54-14.14-1.03-4.11-0.47-8.21-0.71-12.31-0.73-8.26 0.01-16.48-0.62-24.69-1.28-4.43-0.4-8.84-0.77-13.27-0.74-8.27 0.08-16.5-0.62-24.73-1.26-4.11-0.39-8.21-0.67-12.32-0.73-7.98-1.46-19.13 2.41-25.08-3.96 22.91-12.83 45.87-25.55 68.42-38.98 17.41-10.86 34.52-22.42 50.53-35.25 22.2-24.82 44.14-49.96 66.09-75.01 9.71-22.1 22.27-43.04 29.96-66z" fill="#9f986c"/>
  <path d="m222.67 706.92c2.92-1.87 6.29-0.61 9.45-0.07-3.15 0.02-6.32-0.04-9.45 0.07z" fill="#625f50"/>
  <path d="m243.71 706.71c2.77-0.14 5.51-0.55 8.31-0.48-2.7 0.82-5.55 0.45-8.31 0.48z" fill="#65634e"/>
  <path d="m1299 718.24c1.6 19.11 1.8 46.23 0 65.73v-65.73z" fill="#504c37"/>
  <path d="m1318 734.96c3.3-1.89 6.6-1.9 10-0.01-3.4-0.02-6.6 0.17-10 0.01z" fill="#dfc244"/>
  <path d="m1314.3 736.75c-1.4-2.91 2.1-1.68 3.7-1.79 3.4 0.16 6.6-0.03 10-0.01 9.4 0.85 18.5 3.83 27.6 6.19 12.8 18 25.7 37.5 31.4 58.9-0.1 3.59 0 7.29 0 10.91v8.06c-0.1 6.33-0.1 12.69 0 19.05-6.1 27.3-11.3 58.6-35.9 76.09-17.8 9.57-36.7 17.02-55.4 24.7-13-0.4-25.1-6.56-33.6-16.09 3.8-12.9 11.2-24.54 20.6-34.42 13.8 1.97 28.3 6.29 42 0.36 19.9-20.51 27.9-50.44 32.3-77.69 0.1-5.36 0.2-10.75-0.6-16.03-6.2-6.5-12.8-12.7-19-19.22-5.5-6.58-16.1-2.75-22.5-7.17-0.1-10.61 0.8-21.29-0.6-31.84z" fill="#fcca04"/>
  <path d="m1314.3 736.75c1.4 10.55 0.5 21.23 0.6 31.84-2-7.53-0.7-21.78-0.6-31.84z" fill="#cba71c"/>
  <path d="m1132 763.1c5.4 0.03 10.7 0.09 16.1 0.22-5.3 1.13-10.8 0.78-16.1-0.22z" fill="#686349"/>
  <path d="m49.79 767.64c4.97-3.02 13.88-0.8 14.19 5.47 0.4 2.82-1.06 6.52 1.02 8.94 1.2 5.47 1.11 11.8 1.81 17.59-15.46 6.29-27.26 25.21-19.78 41.36-1.09 19.96 14.9 37.5 32.99 42.83 5.25 5.2 15.22-1.53 19.93 4.2 4.81 8.64 9 17.71 12.67 26.88-4.19 8.32-11.87 16.77-20.49 20.02l-0.44-0.83c-6.7-1.28-16.66-2.82-23.67-0.28-0.31 0.33-0.94 1.01-1.25 1.35-10.55-3.21-22.22-8.16-27.06-18.88-11.24-15.92-23.31-31.8-26.73-51.48 0.05-2.51 0.13-5 0.22-7.47 0.47-5.46 0.97-10.92 0.87-16.37-0.04-7.26-0.08-14.49 0.13-21.72 0.58-5.97 0.87-11.93 0.81-17.9 4.51-17.32 19.37-26.63 34.78-33.71z" fill="#fccb04"/>
  <path d="m63.98 773.11c3.15 0.54 0.36 6.45 1.02 8.94-2.08-2.42-0.62-6.12-1.02-8.94z" fill="#c5a735"/>
  <path d="m78.92 796.77c-1.33-0.65-2.8-22.47 0.87-15.85-0.64 5.24-0.88 10.54-0.87 15.85z" fill="#75715a"/>
  <path d="m645.94 795.06c-0.48-8.46 8.23-7.52 14.04-8.59 18.21 13 34.13 29.06 52.15 42.4 65.11 38.44 138.45 58.65 208.76 85.24 18.95 7.61 39.92 6.65 59.36 12.47-2.7 2.52-8.04 4.15-8.15 8.38 13.92 2.84 27.9 5.16 41.9 8.03 0.5 3.82-5.2 6-8.2 5.05-42.28 1.37-84.32 3.1-126.48 6.05-23.73-7.41-48.25-12.1-72.1-18.86-3.46 3.13-6.41 6.75-9.68 10.06-39.45-14.98-80.48-27.45-117.31-48.41-21.62-10.74-15.61 21.15-28.84 29.53-15.09 11.96-27.43 34.5-50.52 28.96-14.64-4.87-32.31 3.54-45.98-3.52 17.67-22.47 43.68-37.64 58.83-62.3-0.13-3.86-7.18-0.37-9.75-2.66 16.12-29.59 37.23-57.58 41.97-91.83m10.22 9.4c-1.25 14.49-9.95 27.08-15.24 40.49-15.47 43.03-48.37 75.69-82.41 104.54-1.45 5.51 20.48 1.33 26.68 2.24 9.66 0.81 19.36 2.42 29.07 2.03 15.44-7.46 26.77-21.37 39.49-33.07 6.64-12.85 10.62-27.04 17.02-40.07 1.39-3.72 6.76-0.97 9.02 0.43 22.7 14.81 48.46 23.6 73.41 33.75 38.63 19.06 82.44 22.85 123.11 35.99 42.49-0.21 84.94-3.89 127.49-4.8 3.2 3.62 11.6-5.04 1.8-2.59-27.93-4.53-55.44-11.16-83.36-15.48-60.09-26.05-127.52-35.28-181.96-74.2-33.41-5.06-55.27-35.06-84.12-49.26z" fill="#070202"/>
  <path d="m1356.4 794.98c0.8 5.28 0.7 10.67 0.6 16.03-2.8-3.46-0.2-11.26-0.6-16.03z" fill="#987801"/>
  <path d="m1387 800.04c1.3 0.15 2.6 10.82 0 10.91 0-3.62-0.1-7.32 0-10.91z" fill="#b99816"/>
  <path d="m14.2 819.25c0.93-4.67-2.38-15.69 0.81-17.9 0.06 5.97-0.23 11.93-0.81 17.9z" fill="#a9880a"/>
  <path d="m656.16 804.46c28.85 14.2 50.71 44.2 84.12 49.26 54.44 38.92 121.87 48.15 181.96 74.2 27.92 4.32 55.43 10.95 83.36 15.48 9.8-2.45 1.4 6.21-1.8 2.59-42.55 0.91-85 4.59-127.49 4.8-40.67-13.14-84.48-16.93-123.11-35.99-24.95-10.15-50.71-18.94-73.41-33.75-2.26-1.4-7.63-4.15-9.02-0.43-6.4 13.03-10.38 27.22-17.02 40.07-12.72 11.7-24.05 25.61-39.49 33.07-9.71 0.39-19.41-1.22-29.07-2.03-8.41-2.62-19.35 2.07-26.68-2.24 34.04-28.85 66.94-61.51 82.41-104.54 5.29-13.41 13.99-26 15.24-40.49z" fill="#730303"/>
  <path d="m13.08 840.99c0.74-6.24-2.01-17.8 1.12-21.74-0.21 7.23-0.17 14.46-0.13 21.72l-0.99 0.02z" fill="#554100"/>
  <path d="m1387 819.01c1.2 3.68 2.7 15.03 0 19.05-0.1-6.36-0.1-12.72 0-19.05z" fill="#b89813"/>
  <path d="m192.98 821.02c8.32-0.14 16.64-0.02 24.97 0-5.89 1.73-19.04 1.75-24.97 0z" fill="#4c0809"/>
  <path d="m1094.8 826.28c14 0.02 28.3-1.41 42.2 0.72-14-0.36-28.2 0.76-42.2-0.72z" fill="#8e886c"/>
  <path d="m1138 826.99c16.7 0.48 33.5-1.02 50.2 0.86-16.8-0.18-33.6 1.28-50.2-0.86z" fill="#4e4b3b"/>
  <path d="m1222.8 828.16c5.5-0.14 10.9 0.04 16.4 0.12-5.4 1.28-10.9 0.61-16.4-0.12z" fill="#7e7961"/>
  <path d="m59.35 828.65c1.25 5.8 0.66 11.73-0.12 17.58-0.28-5.87-0.32-11.75 0.12-17.58z" fill="#3f3e2b"/>
  <path d="m230.94 833.06c1.39-2.38 5.78-0.65 8.33-0.66-2.76 0.42-5.57 0.46-8.33 0.66z" fill="#4f4a39"/>
  <path d="m1398.1 842.16c0.3-3.09 0.4-6.26 0.8-9.3-0.2 3.12-0.6 6.14-0.8 9.3z" fill="#5b5b5b"/>
  <path d="m186.05 836.29c4.37-0.26 8.75-0.27 13.12 0.01-4.2 1.66-8.81 0.51-13.12-0.01z" fill="#6f6a57"/>
  <path d="m1182 840.1c23.6-2.65 49-0.6 73.3-0.72-24.4 1.64-48.9-0.02-73.3 0.72z" fill="#3f0000"/>
  <path d="m1150.8 840.76c10.3-1.21 20.7-0.74 31.2-0.66-10.4 1.66-20.9 0.76-31.2 0.66z" fill="#4f0a09"/>
  <path d="m13.08 840.99l0.99-0.02c0.1 5.45-0.4 10.91-0.87 16.37-0.09-5.48-0.51-10.91-0.12-16.35z" fill="#dfc144"/>
  <path d="m12.98 864.81c-1.8-0.26-1.6-7.59 0.22-7.47-0.09 2.47-0.17 4.96-0.22 7.47z" fill="#8f7403"/>
  <path d="m80.02 883.83c5.96 2.58 18.81-2.73 19.93 4.2-4.71-5.73-14.68 1-19.93-4.2z" fill="#dfba2c"/>
  <path d="m594.03 896.96c1.52-2.09 2.99-4.24 4.94-5.95 0.61 3.4-1.52 5.8-4.94 5.95z" fill="#100c06"/>
  <path d="m680.23 896.88c36.83 20.96 77.86 33.43 117.31 48.41 11.47 2.82 22.91 5.76 34.52 7.91-62.21 2.03-127.58-0.05-191 1.04 14.31-18.26 31.07-35.11 39.17-57.36z" fill="#989064"/>
  <path d="m123.16 904.89c27.92 7.9 55.98 15.27 83.91 23.12 49.87 6.01 99.37 15.38 149.26 21.37 0.83 2.83 2.92 8.39 6.68 5.67 9.02-6.8 20.01-2.54 30.05-1.94l-0.26 0.93c-9.31-2.7-16.89 2.25-21.85 9.67 14.23-3.71 23.35 8.05 37.56 6.75 8.66 3.31 21.61-1.77 28.53 3.58-3.01-0.11-5.94-0.06-8.92-0.04-21.72 2.42-39.68-9.73-60.03-9.02-6.7-0.07-13.37 0.01-20.05 0-44.23-6.97-88.45-15.29-132.96-20.99-25.32-11.14-53.13-13.96-79.62-21.32-3.67-6.2-9.38-11.18-12.3-17.78z" fill="#f6c70a"/>
  <path d="m186.03 904.99c4.29 0.03 8.58-0.05 12.88 0.02-1.35 1.37-11.26 2.55-12.88-0.02z" fill="#595646"/>
  <path d="m1160 933.98c29-9.87 62.6-12.14 90.9-26.1 2.2 12.66-11.9 10.04-19.5 12.64 1 8.45-11.2 8.37-17.3 10.15-18.3-2.18-36.4-0.9-54.1 3.31z" fill="#f1c410"/>
  <path d="m1160 933.98c17.7-4.21 35.8-5.49 54.1-3.31-3 0.37-6.1 1.03-8.4 3.15-16 5.42-31.7 11.79-48.5 14.2-17.3 5.37-35.8 6.95-53.7 9.44-44.7 4.83-88.7 14.37-133.46 18.51-3.21-0.19-6.29-0.12-9.35 0.7-2.91 0.49-5.73 0.31-8.6 0.32-3.19-0.17-6.32-0.32-9.31 0.75-3.13 0.02-6.13 0.15-9.11 0.96-2.54 0.25-5.07 0.35-7.59 0.3-3.18-0.16-6.3-0.32-9.3 0.74-3.13 0.02-6.13 0.16-9.12 0.96-2.88 0.42-5.68 0.17-8.53 0.32-3.78 0.14-7.53 0.37-11.26 0.67-4.09 0.29-8.15 0.44-12.18 0.97-3.55 0.31-7.01 0.33-10.54 0.37-3.83 0.11-7.63 0.33-11.42 0.66-2.97 0.18-5.81 0.32-8.73 0.33-88.93-1.26-178.01 2.91-266.78-3.11l-0.97-0.07c-11.62-1.55-23.35-0.58-35.02-0.94-15.65-2.27-31.72-2.48-47.42-1.17-1.97 0.11-3.93 0.22-5.89 0.3-17.36 0.35-34.53-2.63-51.77-4.04l-0.11-0.95c-6.92-5.35-19.87-0.27-28.53-3.58-14.21 1.3-23.33-10.46-37.56-6.75 4.96-7.42 12.54-12.37 21.85-9.67 2.63-0.03 5.27-0.03 7.92 0 3.7 0.1 7.41 0.7 11.09 1.21 2.66 0.3 5.39 0.78 8.1 0.99 4.03 0.3 8.08 0.7 12.14 0.81 3.21 0 6.48 0.07 9.71 0.11 5.32 0.49 10.65 0.93 16.01 1.09 13.37 1.01 26.78 1.85 40.2 1.79 5.02-0.04 10.08 0.08 15.12-0.03 4.44-0.14 11.16-1.51 12.98 4.09 0.24 0.39 0.72 1.18 0.96 1.57 117.42 0.25 235.07 1.15 352.38-0.45l0.98-0.19c7.32 0.06 14.7 0.27 21.99-0.84 12.36-1.33 25.73 1.54 37.64-0.91 0.34-0.33 1.03-1 1.38-1.34 3.95-0.06 7.94-0.28 11.93-0.58 3.1-0.27 6.37-0.35 9.53-0.41 3.79-0.13 7.6-0.33 11.42-0.61 62.02-8.02 125.12-9.78 185.72-26.36z" fill="#fccb04"/>
  <path d="m1205.7 933.82c2.3-2.12 5.4-2.78 8.4-3.15-1.9 2.39-5.5 2.92-8.4 3.15z" fill="#dbb825"/>
  <path d="m68.02 933.82c7.01-2.54 16.97-1 23.67 0.28-7.9-0.05-15.78-0.24-23.67-0.28z" fill="#edca32"/>
  <path d="m66.77 935.17c0.31-0.34 0.94-1.02 1.25-1.35 7.89 0.04 15.77 0.23 23.67 0.28l0.44 0.83c-8.45 0.12-16.91 0.06-25.36 0.24z" fill="#584200"/>
  <path d="m1157.2 948.02c16.8-2.41 32.5-8.78 48.5-14.2-13.9 7.66-31.8 13.49-48.5 14.2z" fill="#d1ad21"/>
  <path d="m140.83 938.26c12.58 3.68 25.37 6.6 38.2 8.91-1.97 13.41-0.24 28.07-5.32 40.71-13.66-13.12-26.19-31.03-32.88-49.62z" fill="#059334"/>
  <path d="m1226.5 940.46c-11 24.27-30.7 51.36-55.8 66.34 1.3-16.3-1.1-33.16 0.9-49.2 18.4-5.37 36.6-11.43 54.9-17.14z" fill="#035f21"/>
  <path d="m68.69 942.79c10.71-1.63 21.59-0.62 32.37-0.42-10.64 1.77-21.62 0.12-32.37 0.42z" fill="#64624d"/>
  <path d="m431.92 943.98c4.11 0.06 8.21 0.34 12.32 0.73-3.24-1.19-10.51 2.61-12.32-0.73z" fill="#555139"/>
  <path d="m468.97 945.97c4.43-0.03 8.84 0.34 13.27 0.74-3.63-1.01-11.25 2.5-13.27-0.74z" fill="#474329"/>
  <path d="m506.93 947.99c4.1 0.02 8.2 0.26 12.31 0.73-3.24-1.21-10.51 2.59-12.31-0.73z" fill="#3d3a25"/>
  <path d="m585.19 951.73c-6.2-0.91-28.13 3.27-26.68-2.24 7.33 4.31 18.27-0.38 26.68 2.24z" fill="#380505"/>
  <path d="m193.86 951.22c23.28 4.73 46.6 9.18 70 13.2-2.21 23.31-6.71 49.38-26.78 64.48-19.14-22.7-40.69-46.74-43.22-77.68z" fill="#039634"/>
  <path d="m393.06 953.11c2.2 0.19 7.5-1.34 7.66 0.93-2.65-0.03-5.29-0.03-7.92 0l0.26-0.93z" fill="#866900"/>
  <path d="m411.81 955.25c2.36 0.66 8-1.74 9.06 0.94l-0.96 0.05c-2.71-0.21-5.44-0.69-8.1-0.99z" fill="#9b7a05"/>
  <path d="m419.91 956.24l0.96-0.05c3.67-0.18 7.41-0.44 11.1-0.12l0.08 0.98c-4.06-0.11-8.11-0.51-12.14-0.81z" fill="#e0c041"/>
  <path d="m431.97 956.07c4.73-0.7 8.32-0.35 10.78 1.06l-0.99 0.03c-3.23-0.04-6.5-0.11-9.71-0.11l-0.08-0.98z" fill="#524000"/>
  <path d="m441.76 957.16l0.99-0.03c4.45 0.6 13.77-1.78 15.99 1.07l-0.97 0.05c-5.36-0.16-10.69-0.6-16.01-1.09z" fill="#a7870a"/>
  <path d="m457.77 958.25l0.97-0.05c6.66-0.28 13.39-0.61 20.05 0.07 6.35 0.69 12.76 0.85 19.16 0.77l0.02 1c-13.42 0.06-26.83-0.78-40.2-1.79z" fill="#eec937"/>
  <path d="m478.79 958.27c5.42 0.95 15.69-2.63 19.16 0.77-6.4 0.08-12.81-0.08-19.16-0.77z" fill="#635001"/>
  <path d="m497.95 959.04c4.38 0.84 12.22-1.93 15.14 0.97-5.04 0.11-10.1-0.01-15.12 0.03l-0.02-1z" fill="#ba9913"/>
  <path d="m962.86 960.95c3.37-1.18 7.17-1.39 11.42-0.61-3.82 0.28-7.63 0.48-11.42 0.61z" fill="#705c08"/>
  <path d="m941.4 961.94c0.86-2.74 8.57-0.24 11.93-0.58-3.99 0.3-7.98 0.52-11.93 0.58z" fill="#482d00"/>
  <path d="m924.03 962.98c3.32-2.57 12.03-0.49 17.37-1.04-0.35 0.34-1.04 1.01-1.38 1.34-5.37-0.11-10.66-0.18-15.99-0.3z" fill="#856d11"/>
  <path d="m1137.7 962.42c3.9 0.65 19.9-4.35 13 3.51-12.4 22.73-34.3 37.07-53.8 52.97-8.1-12.8-10.7-30.07-8.9-45.5 16.4-4.42 33.1-7.52 49.7-10.98z" fill="#035e21"/>
  <path d="m879.9 964.16c5.46-2.44 15.06-1.17 22-0.84l0.48 0.87c-7.5-0.14-15-0.29-22.48-0.03z" fill="#503800"/>
  <path d="m901.9 963.32c7.35-0.56 14.74-0.39 22.13-0.34 5.33 0.12 10.62 0.19 15.99 0.3-11.91 2.45-25.28-0.42-37.64 0.91l-0.48-0.87z" fill="#e7c026"/>
  <path d="m526.07 964.1c117.94-0.13 235.91-0.25 353.83 0.06l0.49 0.87-0.98 0.19c-117.45-0.07-234.96-0.96-352.38 0.45-0.24-0.39-0.72-1.18-0.96-1.57z" fill="#98801f"/>
  <path d="m879.9 964.16c7.48-0.26 14.98-0.11 22.48 0.03-7.29 1.11-14.67 0.9-21.99 0.84l-0.49-0.87z" fill="#eec936"/>
  <path d="m348.04 964.98c6.68 0.01 13.35-0.07 20.05 0-4.32 1.84-15.88 1.79-20.05 0z" fill="#9b8120"/>
  <path d="m527.03 965.67c117.42-1.41 234.93-0.52 352.38-0.45-117.31 1.6-234.96 0.7-352.38 0.45z" fill="#f5cb22"/>
  <path d="m286.03 967.17c29.49 2.73 58.48 9.22 87.85 13.03-1 23.3-12.04 43.5-25.97 61.7-21.54-8-35.79-26.7-51.52-42.32-3.9-10.53-7.95-21.51-10.36-32.41z" fill="#039734"/>
  <path d="m428.12 974c2.98-0.02 5.91-0.07 8.92 0.04l0.11 0.95c-2.32-0.87-8.29 1.63-9.03-0.99z" fill="#9c7d05"/>
  <path d="m1054.8 975.46c18.6-7.07 7.4 11.3 4.4 19.63-15 16.81-27.3 38.01-49.1 46.71-7.5-17.9-20.9-35.1-18.55-55.12 20.95-4.02 42.35-6.89 63.25-11.22z" fill="#026d26"/>
  <path d="m960.69 976.67c3.06-0.82 6.14-0.89 9.35-0.7-1.31 2.99-6.62 0.52-9.35 0.7z" fill="#866900"/>
  <path d="m942.78 977.74c2.99-1.07 6.12-0.92 9.31-0.75-1.42 2.97-6.55 0.49-9.31 0.75z" fill="#bca131"/>
  <path d="m494.81 978.73c15.7-1.31 31.77-1.1 47.42 1.17-5.98-0.02-11.95 0.03-17.91-0.06-9.8-1.32-19.68-0.64-29.51-1.11z" fill="#f4ca22"/>
  <path d="m933.67 978.7c2.98-0.81 5.98-0.94 9.11-0.96-0.47 3.2-6.6 0.69-9.11 0.96z" fill="#765a00"/>
  <path d="m488.92 979.03c1.96-0.08 3.92-0.19 5.89-0.3 9.83 0.47 19.71-0.21 29.51 1.11-11.02-1.03-25.99 2.38-35.4-0.81z" fill="#ab9126"/>
  <path d="m916.78 979.74c3-1.06 6.12-0.9 9.3-0.74-1.41 2.96-6.54 0.48-9.3 0.74z" fill="#a78d24"/>
  <path d="m524.32 979.84c5.96 0.09 11.93 0.04 17.91 0.06l-0.27 0.93c-4.59-0.82-15.57 2.38-17.64-0.99z" fill="#624900"/>
  <path d="m542.23 979.9c11.67 0.36 23.4-0.61 35.02 0.94-5.09-0.07-10.15 0.04-15.22 0.17-6.7-0.1-13.4 0.35-20.07-0.18l0.27-0.93z" fill="#f1c929"/>
  <path d="m907.66 980.7c2.99-0.8 5.99-0.94 9.12-0.96-0.46 3.2-6.6 0.7-9.12 0.96z" fill="#604a00"/>
  <path d="m562.03 981.01c5.07-0.13 10.13-0.24 15.22-0.17l0.97 0.07-0.42 0.87c-4.6-0.47-12.88 1.98-15.77-0.77z" fill="#9a811c"/>
  <path d="m578.22 980.91c88.77 6.02 177.85 1.85 266.78 3.11-2.25 2.5-8.9 0.48-13 0.98-66.34-0.01-132.68 0.01-199.02-0.01-3.63 0.02-7.17 0.14-10.75-0.21-3.71-0.41-7.4-0.76-11.08-1.04-3.78-0.36-7.55-0.6-11.32-0.71-3.57-0.08-7.06 0.08-10.59-0.25-3.83-0.37-7.64-0.7-11.44-1l0.42-0.87z" fill="#efc625"/>
  <path d="m887.87 981.69c3.73-0.3 7.48-0.53 11.26-0.67-1.9 2.68-7.19 0.5-10.3 0.77l-0.96-0.1z" fill="#9b841e"/>
  <path d="m577.8 981.78c3.8 0.3 7.61 0.63 11.44 1-4.24 0.64-8.06 0.31-11.44-1z" fill="#503b00"/>
  <path d="m875.69 982.66c4.03-0.53 8.09-0.68 12.18-0.97l0.96 0.1c-1.82 2.57-9.07 1-13.14 0.87z" fill="#553c00"/>
  <path d="m398.06 983.04c35.89 5.64 72.62 5.08 108.71 9.93-7.35 24.23-30 37.73-47.12 54.83-14.24 5.1-22.38-11.5-33.57-17.9-11.42-14.1-26.63-27.6-28.02-46.86z" fill="#02802a"/>
  <path d="m599.83 983.03c3.77 0.11 7.54 0.35 11.32 0.71-4.17 0.66-7.94 0.42-11.32-0.71z" fill="#887313"/>
  <path d="m853.73 983.69c3.79-0.33 7.59-0.55 11.42-0.66-3.41 1.15-7.21 1.37-11.42 0.66z" fill="#897013"/>
  <path d="m611.15 983.74c3.68 0.28 7.37 0.63 11.08 1.04-4.37 0.64-8.06 0.29-11.08-1.04z" fill="#3f2900"/>
  <path d="m180.15 1003c3.55-5.34 4.23-14.86 9.61-17.84 13.87 22.84 27.98 47.84 51.2 61.84 21.68-12.3 26.87-38.3 34.84-60.19 7.87 10.64 12.94 23.19 20.6 33.79 18.96 12.2 35.58 29.6 56.35 38.2 9.38-21.6 29.16-38.4 32.32-62.69 10.77 10.69 15.26 28.99 26.23 40.59 14.69 9.8 28.16 21.4 42.79 31.2 25.86-15.9 46.29-36.8 62.21-62.7 9.8 8.2 12.05 25.1 21.47 35 15.7 12.5 30.23 26.6 48.2 35.8 11.13 10.1 18.85-7.8 26.25-13.8 15.96-12.3 21.17-32.4 30.89-49.1 1.67-0.5 2.14 1.2 1.74 2.5-9.81 123.6-16.36 248.4-26.01 372.3-27.43-1.4-54.41-6.8-81.64-10-9.42-1.6-18.44-12.8-28.29-8-56.65-56.4-111.17-115.5-168.61-171.2-48.96-58.1-96.73-117.2-145.77-175.2-5.65-6.2-10.03-13.4-14.38-20.5m86.72 72.1c13.31 16.3 26.95 32.4 41.35 47.7 15.65 21.2 34.72 40 51.58 60.3 12.48 15.7 26.16 31 39.28 45.9 1.89 5 6.88 8.6 10.28 12.6 18.98 24.5 40.73 46.7 60.26 70.8 23.21 5 47.71 11.1 70.79 14 4.28-75.9 10.2-152.1 14.53-228.1-27.43-4.2-57.9-8.2-84.05-8.1-8.86-1.9-17.93-2.6-26.98-2-15.27-2.2-30.78-3-46.16-4-14.85-1.4-29.76-3.6-44.68-3-28.52-3.3-57.64-5.9-86.2-6.1z" fill="#c8c196"/>
  <path d="m632.98 984.99c66.34 0.02 132.68 0 199.02 0.01-63.98 1.6-135 1.77-199.02-0.01z" fill="#76610b"/>
  <path d="m1146.8 995.71c-0.4-4.81 9.6-16.41 8.2-5.96-0.2 2.78 0.2 5.73 0.6 8.55 1.7 11 0.8 26.2 14.3 29.8-93.3 109-187.01 218-282.71 324.7-18.25-2.8-30.72 13.5-47.67 16.7-16.07 3.5-32.34 6-48.56 8.5 52.33-112 108.51-222.3 159.13-334.9 5.24-11.3 16.49-18.7 23.26-29-1.52-4.5 7.68-16.97 8.58-8.1 5.53 19.2 11.75 39.6 27.07 52.8 25.8-10.6 39.7-36 58.7-55.1 4.7-2 4.3-10.6 7-12.37 3.4 16.07 5.5 32.87 17.5 45.47 21.6-8.2 36.7-27.2 54.6-41.09z" fill="#9f986c"/>
  <path d="m961.52 988.4c2.43-0.25 4.88-0.41 7.35-0.48-6.59 20.58-18.49 38.88-35.14 52.78-6.96 4.6-9.82 16.9-20.04 14.9-18.91-13.7-25.12-38.6-30.44-60.51 26.15-1.63 52.19-4.37 78.27-6.69z" fill="#026e26"/>
  <path d="m1155 989.75c2.2 1.79 0.7 5.88 0.6 8.55-0.4-2.82-0.8-5.77-0.6-8.55z" fill="#464529"/>
  <path d="m528.05 992.75c4.55 0.53 9.11 1.06 13.68 1.55 6.04 0.62 12.16 0.9 18.26 0.73 14.59-0.61 29.13 1.16 43.72 1.24 6.39 0.6 12.85 0.98 19.3 0.76 4.7 0.53 18.35-3.35 12.03 5.17-13.37 20.9-19.52 48.9-43.71 60.5-9.32 4.1-10.02-12.8-17.9-8-10.8-13.8-30.3-21.2-35.01-39.1-3.55-7.6-6.83-15.3-10.37-22.85z" fill="#02802a"/>
  <path d="m541.73 994.3c5.06 0.98 15.1-2.76 18.26 0.73-6.1 0.17-12.22-0.11-18.26-0.73z" fill="#09431b"/>
  <path d="m775 997.24c9.24-3.27 19.18-1.42 28.72-0.95 8.37 0.87 16.81 0.89 25.22 0.73 10.65-0.02 21.3-0.01 31.95-0.24-12.45 27.42-28.23 56.02-56.88 69.02-19.78-16.6-26.99-43.6-29.01-68.56z" fill="#016e26"/>
  <path d="m603.71 996.27c5.5 0.95 15.67-2.64 19.3 0.76-6.45 0.22-12.91-0.16-19.3-0.76z" fill="#0d4c21"/>
  <path d="m803.72 996.29c7.43 0.88 19.81-2.61 25.22 0.73-8.41 0.16-16.85 0.14-25.22-0.73z" fill="#09421c"/>
  <path d="m656.09 997c32.93 0.07 65.88-0.17 98.81 0.1-3.09 25.4-23.46 43.6-35.9 64.9-2.48 5.6-8.73 6.8-13.92 8.8-18.42-22.7-46.73-42.4-48.99-73.8z" fill="#01802a"/>
  <path d="m868.16 1016.9c1.14-2.3-0.25-10.8 4.56-9.6 5.28 13.1 9.44 26.7 15.27 39.6 7.85 9.4 17.23 17.5 26.26 25.8 17.59-1.3 23-20.7 35.84-29.6-50.62 112.6-106.8 222.9-159.13 334.9-30.12 5-60.46 9.9-90.69 12.8-4.77-0.5-9.5-1-14.28-0.8-8.9 0-17.81 0.3-26.69-0.3-10.7-1.1-21.45-0.8-32.17-0.7-2.85-0.2-5.66 0-8.29-1.1 9.65-123.9 16.2-248.7 26.01-372.3 20.37 24.8 35.01 54.9 62.16 73.4 23.1-18.1 39.1-42.7 55.09-66.9 12.3 21.5 19.18 49.8 41.9 63.6 11.2-9.4 23.26-17.8 34.45-27.2 11.07-13 19.17-28.2 29.71-41.6z" fill="#b5ad86"/>
  <path d="m266.87 1075.1c28.56 0.2 57.68 2.8 86.2 6.1-0.96 22.4-1.77 44.9-3.95 67.1-18.89 4.5-28.27-15.3-40.9-25.5-14.4-15.3-28.04-31.4-41.35-47.7z" fill="#e7ddad"/>
  <path d="m353.07 1081.2c14.92-0.6 29.83 1.6 44.68 3 2.07 0.6 4.16 1.3 6.14 2.2-2.58 35.5-5.54 71.1-7.15 106.5-12.18-2.8-26.89-1.4-36.94-9.8-16.86-20.3-35.93-39.1-51.58-60.3 12.63 10.2 22.01 30 40.9 25.5 2.18-22.2 2.99-44.7 3.95-67.1z" fill="#e0daa8"/>
  <path d="m397.75 1084.2c15.38 1 30.89 1.8 46.16 4 3.35 0.5 6.91 0.6 10.09 2-3.42 49.6-5.99 99.4-9.9 148.9-14.83-4.1-30.12-6.2-45.02-10.1-13.12-14.9-26.8-30.2-39.28-45.9 10.05 8.4 24.76 7 36.94 9.8 1.61-35.4 4.57-71 7.15-106.5-1.98-0.9-4.07-1.6-6.14-2.2z" fill="#dbd5a3"/>
  <path d="m443.91 1088.2c9.05-0.6 18.12 0.1 26.98 2 11.12 2.2 23.91-1.3 34.25 4.2-5.41 62.9-8.44 125.8-12.93 188.7-18.91-3.7-37.45-9-56.43-12.4-10.17-8.3-15.88-21.1-26.42-29.1-3.4-4-8.39-7.6-10.28-12.6 14.9 3.9 30.19 6 45.02 10.1 3.91-49.5 6.48-99.3 9.9-148.9-3.18-1.4-6.74-1.5-10.09-2z" fill="#d6cfa1"/>
  <path d="m470.89 1090.2c26.15-0.1 56.62 3.9 84.05 8.1-4.33 76-10.25 152.2-14.53 228.1-23.08-2.9-47.58-9-70.79-14-19.53-24.1-41.28-46.3-60.26-70.8 10.54 8 16.25 20.8 26.42 29.1 18.98 3.4 37.52 8.7 56.43 12.4 4.49-62.9 7.52-125.8 12.93-188.7-10.34-5.5-23.13-2-34.25-4.2z" fill="#cfc799"/>
  <path d="m627.13 1389c10.72-0.1 21.47-0.4 32.17 0.7-10.05-0.4-24.07 2-32.17-0.7z" fill="#302d1f"/>
  <path d="m685.99 1390c4.78-0.2 9.51 0.3 14.28 0.8-4.04-1-11.94 2.3-14.28-0.8z" fill="#5f5c45"/>
  <path d="m635.95 1400c16.89 0.2 33.85-0.9 50.67 1h-50.39l-0.28-1z" fill="#353637"/>
 </g>
</svg>
